<svg xmlns="http://www.w3.org/2000/svg" xmlns:xlink="http://www.w3.org/1999/xlink" viewBox="0 0 420 294.0001"><defs><style>.cls-1{mask:url(#mask);}.cls-10,.cls-2,.cls-30,.cls-4,.cls-6,.cls-8{mix-blend-mode:multiply;}.cls-2{fill:url(#linear-gradient);}.cls-3{mask:url(#mask-2);}.cls-4{fill:url(#linear-gradient-2);}.cls-5{mask:url(#mask-3);}.cls-24,.cls-41,.cls-6{fill-rule:evenodd;}.cls-6{fill:url(#linear-gradient-3);}.cls-7{mask:url(#mask-4);}.cls-8{fill:url(#linear-gradient-4);}.cls-9{mask:url(#mask-5);}.cls-10{fill:url(#linear-gradient-5);}.cls-11{isolation:isolate;}.cls-12{fill:url(#linear-gradient-6);}.cls-13{fill:#ff6d00;}.cls-14{mask:url(#mask-6);}.cls-15,.cls-17{opacity:0.8;}.cls-15,.cls-17,.cls-24,.cls-36,.cls-37{mix-blend-mode:hard-light;}.cls-15{fill:url(#linear-gradient-7);}.cls-16{mask:url(#mask-7);}.cls-17{fill:url(#linear-gradient-8);}.cls-18{fill:#85d6e2;}.cls-19,.cls-26,.cls-27{fill:#fff;}.cls-20{fill:#ebfbff;}.cls-21{fill:#0b9db8;}.cls-22{fill:#30b085;}.cls-23{mask:url(#mask-8);}.cls-24{fill:url(#linear-gradient-9);}.cls-25,.cls-41{fill:#1d3a58;}.cls-26{opacity:0.5;}.cls-27{opacity:0.3;}.cls-28{fill:#fe9ca9;}.cls-29{fill:#e7dae1;}.cls-30{fill:#bdbdbd;}.cls-31{fill:url(#linear-gradient-10);}.cls-32{fill:url(#linear-gradient-11);}.cls-33{fill:url(#linear-gradient-12);}.cls-34{fill:url(#linear-gradient-13);}.cls-35{mask:url(#mask-9);}.cls-36{fill:url(#linear-gradient-14);}.cls-38{mask:url(#mask-10);}.cls-39{fill:url(#linear-gradient-15);}.cls-40{fill:#ccf3fa;}.cls-42{filter:url(#luminosity-noclip-10);}.cls-43{filter:url(#luminosity-noclip-9);}.cls-44{filter:url(#luminosity-noclip-8);}.cls-45{filter:url(#luminosity-noclip-7);}.cls-46{filter:url(#luminosity-noclip-6);}.cls-47{filter:url(#luminosity-noclip-5);}.cls-48{filter:url(#luminosity-noclip-4);}.cls-49{filter:url(#luminosity-noclip-3);}.cls-50{filter:url(#luminosity-noclip-2);}.cls-51{filter:url(#luminosity-noclip);}</style><filter id="luminosity-noclip" x="0" y="-8339" width="419.99999" height="32766" filterUnits="userSpaceOnUse" color-interpolation-filters="sRGB"><feFlood flood-color="#fff" result="bg"/><feBlend in="SourceGraphic" in2="bg"/></filter><mask id="mask" x="0" y="-8339" width="419.99999" height="32766" maskUnits="userSpaceOnUse"><g class="cls-51"/></mask><linearGradient id="linear-gradient" x1="145.36343" y1="377.64822" x2="356.17174" y2="12.5175" gradientTransform="matrix(-1, 0, 0, 1, 421.5137, 0)" gradientUnits="userSpaceOnUse"><stop offset="0" stop-color="#1a1a1a"/><stop offset="1" stop-color="#b3b3b3"/></linearGradient><filter id="luminosity-noclip-2" x="132.49997" y="-8339" width="287.50003" height="32766" filterUnits="userSpaceOnUse" color-interpolation-filters="sRGB"><feFlood flood-color="#fff" result="bg"/><feBlend in="SourceGraphic" in2="bg"/></filter><mask id="mask-2" x="132.49997" y="-8339" width="287.50003" height="32766" maskUnits="userSpaceOnUse"><g class="cls-50"/></mask><linearGradient id="linear-gradient-2" x1="-83.50405" y1="351.44859" x2="60.79911" y2="101.5082" gradientTransform="translate(314.47269)" xlink:href="#linear-gradient"/><filter id="luminosity-noclip-3" x="184.45451" y="-8339" width="143.94624" height="32766" filterUnits="userSpaceOnUse" color-interpolation-filters="sRGB"><feFlood flood-color="#fff" result="bg"/><feBlend in="SourceGraphic" in2="bg"/></filter><mask id="mask-3" x="184.45451" y="-8339" width="143.94624" height="32766" maskUnits="userSpaceOnUse"><g class="cls-49"/></mask><linearGradient id="linear-gradient-3" x1="184.45451" y1="50.60996" x2="328.40075" y2="50.60996" gradientUnits="userSpaceOnUse"><stop offset="0" stop-color="#4d4d4d"/><stop offset="0.97399" stop-color="#fafafa"/><stop offset="1" stop-color="#fff"/></linearGradient><filter id="luminosity-noclip-4" x="347.92429" y="-8339" width="49.57839" height="32766" filterUnits="userSpaceOnUse" color-interpolation-filters="sRGB"><feFlood flood-color="#fff" result="bg"/><feBlend in="SourceGraphic" in2="bg"/></filter><mask id="mask-4" x="347.92429" y="-8339" width="49.57839" height="32766" maskUnits="userSpaceOnUse"><g class="cls-48"/></mask><linearGradient id="linear-gradient-4" x1="347.92429" y1="41.29658" x2="397.50268" y2="41.29658" xlink:href="#linear-gradient-3"/><filter id="luminosity-noclip-5" x="71.52629" y="-8339" width="44.48919" height="32766" filterUnits="userSpaceOnUse" color-interpolation-filters="sRGB"><feFlood flood-color="#fff" result="bg"/><feBlend in="SourceGraphic" in2="bg"/></filter><mask id="mask-5" x="71.52629" y="-8339" width="44.48919" height="32766" maskUnits="userSpaceOnUse"><g class="cls-47"/></mask><linearGradient id="linear-gradient-5" x1="71.52629" y1="58.80098" x2="116.01547" y2="58.80098" xlink:href="#linear-gradient-3"/><linearGradient id="linear-gradient-6" x1="210.20813" x2="210.20813" y2="294.0001" gradientUnits="userSpaceOnUse"><stop offset="0" stop-color="#85d6e2"/><stop offset="1" stop-color="#e7dae1"/></linearGradient><filter id="luminosity-noclip-6" x="0" y="49.656" width="419.99999" height="244.94409" filterUnits="userSpaceOnUse" color-interpolation-filters="sRGB"><feFlood flood-color="#fff" result="bg"/><feBlend in="SourceGraphic" in2="bg"/></filter><mask id="mask-6" x="0" y="49.05601" width="419.99999" height="244.94409" maskUnits="userSpaceOnUse"><g class="cls-46"><g transform="translate(0 -0.59999)"><g class="cls-1"><path class="cls-2" d="M155.707,112.01078c-7.13279-4.96171-18.61275-7.1683-23.9316-.647-6.8314-3.41189-15.75751.17826-14.3512,8.14733-1.56257-6.25025-8.53673-6.744-13.333-4.63581,2.50748-3.80928,2.20222-10.81944.36377-14.74a24.72613,24.72613,0,0,0-9.37538-9.84415c-6.94241-3.78678-12.71652-4.8512-20.24133-3.27526-4.44718.93142-6.94728,2.65024-9.21662,7.62794-3.27526-4.97645-11.45684-6.28751-16.84769-3.40777,1.61632-22.50829-14.13132-30.13-30.7825-25.92093a8.48074,8.48074,0,0,0,.39676-2.472c.155-8.00208-7.84332-13.80369-17.46283-13.13466L0,254.51658v40.08351H419.99385v-55.056c.18063-9.661-3.52427-23.16257-24.73236-23.16257-1.72382-4.49356-4.78909-8.18634-10.56933-8.65511,2.107-11.0772-2.6051-17.57771-11.07345-22.42166-4.62306-2.64536-7.62243-4.076-13.04863-3.66227-3.7758.28813-10.41307,1.47231-12.83992,4.30692,0-5.96712-7.3928-10.97832-11.02333-10.97832-4.20914,0-8.88711.23688-12.31987,2.47085-1.86283,1.21218-5.5056,4.2213-5.3371,6.41264-1.52231-2.05459-7.67131-4.70607-12.64339-.51765,0-1.8702-.92653-3.63777-3.25938-5.08071-1.3783-.85216-5.00633-1.45393-6.36626-.83265a11.21624,11.21624,0,0,0-1.08154-9.53889c-2.60273-4.15305-5.41535-5.71561-9.06537-6.25026-11.729-1.71757-22.44479,1.47219-23.27732,11.41647a12.53947,12.53947,0,0,0-10.01379-4.14817c-3.52926,0-10.25554.6104-10.25554,4.10542,1.12067-4.72557-2.14-10.76094-6.58725-13.91657a32.34114,32.34114,0,0,0-7.81521-4.40331c-7.01441-2.6661-17.02219-2.25584-23.63621,1.62857-1.30381.76541-6.51152,5.51172-6.51152,10.319-2.69786-4.61932-17.48608-8.01546-21.18986.1355,0-5.94874-5.32482-9.54026-11.11983-11.12845,7.3148-5.04171,4.96733-21.56576-5.92672-21.62563,3.80141-1.56682,4.93793-7.47468,2.43783-13.25617C162.7385,120.76113,159.30086,114.51088,155.707,112.01078Z"/></g></g></g></mask><linearGradient id="linear-gradient-7" x1="145.36343" y1="377.64822" x2="356.17174" y2="12.5175" gradientTransform="matrix(-1, 0, 0, 1, 421.5137, 0)" gradientUnits="userSpaceOnUse"><stop offset="0" stop-color="#fff"/><stop offset="1" stop-color="#fff"/></linearGradient><filter id="luminosity-noclip-7" x="132.49997" y="126.93036" width="287.50003" height="167.66973" filterUnits="userSpaceOnUse" color-interpolation-filters="sRGB"><feFlood flood-color="#fff" result="bg"/><feBlend in="SourceGraphic" in2="bg"/></filter><mask id="mask-7" x="132.49997" y="126.33037" width="287.50003" height="167.66973" maskUnits="userSpaceOnUse"><g class="cls-45"><g transform="translate(0 -0.59999)"><g class="cls-3"><path class="cls-4" d="M313.416,169.61325c4.88057-3.39489,12.73977-4.9062,16.38129-.4419,4.67547-2.33659,10.78532.122,9.8234,5.57636,1.06942-4.27868,5.84251-4.61569,9.1264-3.17276-1.71647-2.60748-1.50771-7.4063-.249-10.09066a16.92547,16.92547,0,0,1,6.41751-6.73865c4.75232-2.59285,8.704-3.32038,13.85544-2.24,3.04463.6359,4.755,1.81157,6.30889,5.21983,2.24259-3.40714,7.84331-4.3043,11.53374-2.33159-1.10732-15.40775,9.672-20.62584,21.07021-17.74485a5.85058,5.85058,0,0,1-.271-1.69194c-.10626-5.4776,5.36884-9.44864,11.95361-8.99087L420,267.16122v27.43887H132.50414V256.91418c-.12325-6.614,2.41285-15.85765,16.93057-15.85765,1.17992-3.07375,3.27776-5.60323,7.23417-5.923-1.44169-7.58331,1.78357-12.033,7.58031-15.34862,3.16427-1.81158,5.2181-2.79062,8.93224-2.50611,2.585.19776,7.12866,1.00829,8.78948,2.94687,0-4.08341,5.05995-7.5138,7.54543-7.5138,2.88162,0,6.08425.16113,8.433,1.69207,1.27568.82766,3.7679,2.88824,3.65252,4.38855a6.39586,6.39586,0,0,1,8.65636-.354,4.02669,4.02669,0,0,1,2.23086-3.4779,6.62505,6.62505,0,0,1,4.3569-.57139,7.67074,7.67074,0,0,1,.74216-6.52852,8.15407,8.15407,0,0,1,6.2039-4.2788c8.02893-1.17555,15.36437,1.00842,15.9345,7.81532a8.583,8.583,0,0,1,6.85453-2.84074c2.41585,0,7.01928.42,7.01928,2.81024-.7654-3.23376,1.46619-7.3648,4.50956-9.52564a22.04706,22.04706,0,0,1,5.35047-3.01275c4.80007-1.82507,11.6521-1.54544,16.17866,1.1133.89366.52489,4.45818,3.7734,4.45818,7.06454,1.84583-3.163,11.96949-5.48735,14.505.09275,0-4.07242,3.64527-6.531,7.61143-7.61744-5.00758-3.45239-3.401-14.76385,4.05779-14.8041-2.6026-1.073-3.38026-5.115-1.66994-9.07387C308.60144,175.60349,310.95378,171.32469,313.416,169.61325Z"/></g></g></g></mask><linearGradient id="linear-gradient-8" x1="-83.50405" y1="351.44859" x2="60.79911" y2="101.5082" gradientTransform="translate(314.47269)" xlink:href="#linear-gradient-7"/><filter id="luminosity-noclip-8" x="184.45451" y="30.3217" width="143.94624" height="40.57653" filterUnits="userSpaceOnUse" color-interpolation-filters="sRGB"><feFlood flood-color="#fff" result="bg"/><feBlend in="SourceGraphic" in2="bg"/></filter><mask id="mask-8" x="184.45451" y="29.72171" width="143.94624" height="40.57653" maskUnits="userSpaceOnUse"><g class="cls-44"><g transform="translate(0 -0.59999)"><g class="cls-5"><path id="_Path_" data-name="&lt;Path&gt;" class="cls-6" d="M318.02432,50.14788a10.27026,10.27026,0,0,0-5.16243,1.42468A16.19919,16.19919,0,0,0,289.1524,40.14022,20.236,20.236,0,0,0,251.56787,50.6094c0,.23926.061.46014.0695.697-.02438,0-.04513-.00738-.0695-.00738-.19664,0-.36014.10013-.553.11113a12.78185,12.78185,0,0,0-22.7988,1.83108,9.15773,9.15773,0,0,0-4.12254-1.0583,8.90715,8.90715,0,0,0-1.88845.382,14.22173,14.22173,0,0,0-27.78924,2.28772,7.87026,7.87026,0,0,0-1.76034-.35527,8.2004,8.2004,0,1,0,0,16.4008h127.023v-.16714a10.35649,10.35649,0,0,0-1.65419-20.58321Z"/></g></g></g></mask><linearGradient id="linear-gradient-9" x1="184.45451" y1="50.60996" x2="328.40075" y2="50.60996" gradientUnits="userSpaceOnUse"><stop offset="0" stop-color="#fff"/><stop offset="0.97399" stop-color="#fff"/><stop offset="1" stop-color="#fff"/></linearGradient><linearGradient id="linear-gradient-10" x1="278.42134" y1="294.60009" x2="278.42134" y2="253.95381" gradientUnits="userSpaceOnUse"><stop offset="0" stop-color="#fff"/><stop offset="1" stop-color="#e7dae1"/></linearGradient><linearGradient id="linear-gradient-11" x1="138.8786" y1="294.60009" x2="138.8786" y2="253.95381" xlink:href="#linear-gradient-10"/><linearGradient id="linear-gradient-12" x1="391.5137" y1="294.60009" x2="391.5137" y2="253.95381" xlink:href="#linear-gradient-10"/><linearGradient id="linear-gradient-13" x1="27.13367" y1="294.60009" x2="27.13367" y2="253.95381" xlink:href="#linear-gradient-10"/><filter id="luminosity-noclip-9" x="347.92429" y="28.60963" width="49.57839" height="25.37391" filterUnits="userSpaceOnUse" color-interpolation-filters="sRGB"><feFlood flood-color="#fff" result="bg"/><feBlend in="SourceGraphic" in2="bg"/></filter><mask id="mask-9" x="347.92429" y="28.00964" width="49.57839" height="25.37391" maskUnits="userSpaceOnUse"><g class="cls-43"><g transform="translate(0 -0.59999)"><g class="cls-7"><path class="cls-8" d="M390.30027,39.5762a7.27817,7.27817,0,0,0-1.23418.108l.00125-.04212a7.20306,7.20306,0,0,0-9.7624-6.73365,7.20282,7.20282,0,0,0-13.18291,0,7.202,7.202,0,0,0-9.76115,6.73365v.04212a7.2019,7.2019,0,1,0-1.76882,14.27734l-.00487.022h35.95108l-.00112-.00613a7.20256,7.20256,0,0,0-.23688-14.40121Z"/></g></g></g></mask><linearGradient id="linear-gradient-14" x1="347.92429" y1="41.29658" x2="397.50268" y2="41.29658" xlink:href="#linear-gradient-9"/><filter id="luminosity-noclip-10" x="71.52629" y="47.98054" width="44.48919" height="21.64088" filterUnits="userSpaceOnUse" color-interpolation-filters="sRGB"><feFlood flood-color="#fff" result="bg"/><feBlend in="SourceGraphic" in2="bg"/></filter><mask id="mask-10" x="71.52629" y="47.38056" width="44.48919" height="21.64088" maskUnits="userSpaceOnUse"><g class="cls-42"><g transform="translate(0 -0.59999)"><g class="cls-9"><path class="cls-10" d="M108.7788,55.15058a7.2832,7.2832,0,0,0-1.24028.11351c0-.0165.0025-.03238.0025-.04763a7.2314,7.2314,0,0,0-13.7702-3.09275,7.23131,7.23131,0,0,0-13.77006,3.09275c0,.01525.00125.03113.00125.04763a7.22909,7.22909,0,1,0-1.7762,14.33046l-.00738.02687h30.79963v-.011a7.23182,7.23182,0,0,0-.23926-14.45984Z"/></g></g></g></mask><linearGradient id="linear-gradient-15" x1="71.52629" y1="58.80098" x2="116.01547" y2="58.80098" xlink:href="#linear-gradient-9"/></defs><title>content-stock3</title><g class="cls-11"><g id="Layer_1" data-name="Layer 1"><rect class="cls-12" x="0.41627" width="419.58373" height="294.0001"/><path class="cls-13" d="M305.75582,294.60009a118.75521,118.75521,0,1,0-191.511,0Z" transform="translate(0 -0.59999)"/><g class="cls-14"><path class="cls-15" d="M155.707,112.01078c-7.13279-4.96171-18.61275-7.1683-23.9316-.647-6.8314-3.41189-15.75751.17826-14.3512,8.14733-1.56257-6.25025-8.53673-6.744-13.333-4.63581,2.50748-3.80928,2.20222-10.81944.36377-14.74a24.72613,24.72613,0,0,0-9.37538-9.84415c-6.94241-3.78678-12.71652-4.8512-20.24133-3.27526-4.44718.93142-6.94728,2.65024-9.21662,7.62794-3.27526-4.97645-11.45684-6.28751-16.84769-3.40777,1.61632-22.50829-14.13132-30.13-30.7825-25.92093a8.48074,8.48074,0,0,0,.39676-2.472c.155-8.00208-7.84332-13.80369-17.46283-13.13466L0,254.51658v40.08351H419.99385v-55.056c.18063-9.661-3.52427-23.16257-24.73236-23.16257-1.72382-4.49356-4.78909-8.18634-10.56933-8.65511,2.107-11.0772-2.6051-17.57771-11.07345-22.42166-4.62306-2.64536-7.62243-4.076-13.04863-3.66227-3.7758.28813-10.41307,1.47231-12.83992,4.30692,0-5.96712-7.3928-10.97832-11.02333-10.97832-4.20914,0-8.88711.23688-12.31987,2.47085-1.86283,1.21218-5.5056,4.2213-5.3371,6.41264-1.52231-2.05459-7.67131-4.70607-12.64339-.51765,0-1.8702-.92653-3.63777-3.25938-5.08071-1.3783-.85216-5.00633-1.45393-6.36626-.83265a11.21624,11.21624,0,0,0-1.08154-9.53889c-2.60273-4.15305-5.41535-5.71561-9.06537-6.25026-11.729-1.71757-22.44479,1.47219-23.27732,11.41647a12.53947,12.53947,0,0,0-10.01379-4.14817c-3.52926,0-10.25554.6104-10.25554,4.10542,1.12067-4.72557-2.14-10.76094-6.58725-13.91657a32.34114,32.34114,0,0,0-7.81521-4.40331c-7.01441-2.6661-17.02219-2.25584-23.63621,1.62857-1.30381.76541-6.51152,5.51172-6.51152,10.319-2.69786-4.61932-17.48608-8.01546-21.18986.1355,0-5.94874-5.32482-9.54026-11.11983-11.12845,7.3148-5.04171,4.96733-21.56576-5.92672-21.62563,3.80141-1.56682,4.93793-7.47468,2.43783-13.25617C162.7385,120.76113,159.30086,114.51088,155.707,112.01078Z" transform="translate(0 -0.59999)"/></g><g class="cls-16"><path class="cls-17" d="M313.416,169.61325c4.88057-3.39489,12.73977-4.9062,16.38129-.4419,4.67547-2.33659,10.78532.122,9.8234,5.57636,1.06942-4.27868,5.84251-4.61569,9.1264-3.17276-1.71647-2.60748-1.50771-7.4063-.249-10.09066a16.92547,16.92547,0,0,1,6.41751-6.73865c4.75232-2.59285,8.704-3.32038,13.85544-2.24,3.04463.6359,4.755,1.81157,6.30889,5.21983,2.24259-3.40714,7.84331-4.3043,11.53374-2.33159-1.10732-15.40775,9.672-20.62584,21.07021-17.74485a5.85058,5.85058,0,0,1-.271-1.69194c-.10626-5.4776,5.36884-9.44864,11.95361-8.99087L420,267.16122v27.43887H132.50414V256.91418c-.12325-6.614,2.41285-15.85765,16.93057-15.85765,1.17992-3.07375,3.27776-5.60323,7.23417-5.923-1.44169-7.58331,1.78357-12.033,7.58031-15.34862,3.16427-1.81158,5.2181-2.79062,8.93224-2.50611,2.585.19776,7.12866,1.00829,8.78948,2.94687,0-4.08341,5.05995-7.5138,7.54543-7.5138,2.88162,0,6.08425.16113,8.433,1.69207,1.27568.82766,3.7679,2.88824,3.65252,4.38855a6.39586,6.39586,0,0,1,8.65636-.354,4.02669,4.02669,0,0,1,2.23086-3.4779,6.62505,6.62505,0,0,1,4.3569-.57139,7.67074,7.67074,0,0,1,.74216-6.52852,8.15407,8.15407,0,0,1,6.2039-4.2788c8.02893-1.17555,15.36437,1.00842,15.9345,7.81532a8.583,8.583,0,0,1,6.85453-2.84074c2.41585,0,7.01928.42,7.01928,2.81024-.7654-3.23376,1.46619-7.3648,4.50956-9.52564a22.04706,22.04706,0,0,1,5.35047-3.01275c4.80007-1.82507,11.6521-1.54544,16.17866,1.1133.89366.52489,4.45818,3.7734,4.45818,7.06454,1.84583-3.163,11.96949-5.48735,14.505.09275,0-4.07242,3.64527-6.531,7.61143-7.61744-5.00758-3.45239-3.401-14.76385,4.05779-14.8041-2.6026-1.073-3.38026-5.115-1.66994-9.07387C308.60144,175.60349,310.95378,171.32469,313.416,169.61325Z" transform="translate(0 -0.59999)"/></g><rect class="cls-18" x="79.15972" y="112.23182" width="73.63387" height="122.43474"/><rect class="cls-19" x="83.95179" y="116.58987" width="64.04861" height="12.20025"/><rect class="cls-20" x="83.95179" y="132.71116" width="64.04861" height="4.7927"/><rect class="cls-20" x="83.95179" y="141.42489" width="64.04861" height="4.79207"/><rect class="cls-20" x="83.95179" y="150.14037" width="64.04861" height="4.79157"/><rect class="cls-19" x="83.95179" y="158.85297" width="64.04861" height="4.7927"/><rect class="cls-20" x="83.95179" y="167.56783" width="64.04861" height="4.7927"/><rect class="cls-20" x="83.95179" y="176.28168" width="64.04861" height="4.79257"/><rect class="cls-19" x="83.95179" y="184.99654" width="64.04861" height="4.7927"/><rect class="cls-19" x="83.95179" y="193.70914" width="64.04861" height="4.79382"/><rect class="cls-19" x="83.95179" y="202.42287" width="64.04861" height="4.79257"/><rect class="cls-20" x="83.95179" y="211.13898" width="64.04861" height="4.7927"/><rect class="cls-20" x="83.95179" y="219.85146" width="64.04861" height="4.7927"/><rect class="cls-21" x="98.76615" y="99.65556" width="35.29256" height="12.63601"/><rect class="cls-22" y="234.38455" width="420" height="59.61555"/><g class="cls-23"><path id="_Path_2" data-name="&lt;Path&gt;" class="cls-24" d="M318.02432,50.14788a10.27026,10.27026,0,0,0-5.16243,1.42468A16.19919,16.19919,0,0,0,289.1524,40.14022,20.236,20.236,0,0,0,251.56787,50.6094c0,.23926.061.46014.0695.697-.02438,0-.04513-.00738-.0695-.00738-.19664,0-.36014.10013-.553.11113a12.78185,12.78185,0,0,0-22.7988,1.83108,9.15773,9.15773,0,0,0-4.12254-1.0583,8.90715,8.90715,0,0,0-1.88845.382,14.22173,14.22173,0,0,0-27.78924,2.28772,7.87026,7.87026,0,0,0-1.76034-.35527,8.2004,8.2004,0,1,0,0,16.4008h127.023v-.16714a10.35649,10.35649,0,0,0-1.65419-20.58321Z" transform="translate(0 -0.59999)"/></g><rect class="cls-25" y="270.63603" width="420" height="23.36408"/><path class="cls-25" d="M210.19831,122.06794h-1.16517c0-3.99117-5.01733-7.23717-11.18459-7.23717a.58259.58259,0,0,1,0-1.16518c5.50262,0,10.17629,2.461,11.76686,5.84974,1.59181-3.38876,6.26488-5.84974,11.7681-5.84974a.58259.58259,0,0,1,0,1.16518C215.21626,114.83077,210.19831,118.07677,210.19831,122.06794Z" transform="translate(0 -0.59999)"/><path class="cls-25" d="M226.71573,127.2794h-.88864c0-1.58207-2.03748-2.87-4.54371-2.87a.44377.44377,0,0,1,0-.88754,5.812,5.812,0,0,1,4.988,2.24372,5.81219,5.81219,0,0,1,4.98808-2.24372.44377.44377,0,1,1,0,.88754C228.75444,124.40941,226.71573,125.69733,226.71573,127.2794Z" transform="translate(0 -0.59999)"/><path class="cls-25" d="M319.65526,97.95508h-.88741c0-1.58332-2.03871-2.87-4.54368-2.87a.44377.44377,0,1,1,0-.88754,5.80819,5.80819,0,0,1,4.98683,2.24372,5.80877,5.80877,0,0,1,4.988-2.24372.44377.44377,0,0,1,0,.88754C321.69272,95.08509,319.65526,96.37176,319.65526,97.95508Z" transform="translate(0 -0.59999)"/><path class="cls-25" d="M386.71,69.61767h-.88741c0-1.58331-2.03871-2.87-4.54493-2.87a.44371.44371,0,0,1,0-.88741,5.81156,5.81156,0,0,1,4.98808,2.24247,5.8113,5.8113,0,0,1,4.98795-2.24247.44371.44371,0,0,1,0,.88741C388.74748,66.74768,386.71,68.03436,386.71,69.61767Z" transform="translate(0 -0.59999)"/><path class="cls-26" d="M293.97184,89.84075a7.11518,7.11518,0,0,1,.03913,10.11391,7.068,7.068,0,0,1,10.07366,0,7.12064,7.12064,0,0,1,.03663-10.11391A7.15894,7.15894,0,0,1,293.97184,89.84075Z" transform="translate(0 -0.59999)"/><path class="cls-26" d="M21.46075,74.84014a7.11519,7.11519,0,0,1,.03913,10.11391,7.068,7.068,0,0,1,10.07366,0,7.12063,7.12063,0,0,1,.03662-10.11391A7.15892,7.15892,0,0,1,21.46075,74.84014Z" transform="translate(0 -0.59999)"/><path class="cls-27" d="M326.32429,23.42079a10.09831,10.09831,0,0,1,.05612,14.35484,10.03309,10.03309,0,0,1,14.29871,0,10.106,10.106,0,0,1,.05125-14.35484A10.16414,10.16414,0,0,1,326.32429,23.42079Z" transform="translate(0 -0.59999)"/><path class="cls-26" d="M83.29064,28.69688a2.83135,2.83135,0,0,1,.01588,4.02242,2.80964,2.80964,0,0,1,4.00478,0,2.83248,2.83248,0,0,1,.01463-4.02242A2.84643,2.84643,0,0,1,83.29064,28.69688Z" transform="translate(0 -0.59999)"/><path class="cls-26" d="M397.05342,66.19841a2.83079,2.83079,0,0,1,.01587,4.02241,2.80891,2.80891,0,0,1,4.00416,0,2.83412,2.83412,0,0,1,.01463-4.02241A2.84567,2.84567,0,0,1,397.05342,66.19841Z" transform="translate(0 -0.59999)"/><polygon class="cls-22" points="349.171 156.217 354.571 148.359 372.09 148.359 377.819 156.217 349.171 156.217"/><rect class="cls-28" x="349.17072" y="156.21736" width="17.84373" height="78.25506"/><rect class="cls-29" x="363.49005" y="156.21736" width="14.32921" height="78.25506"/><rect class="cls-20" x="368.67826" y="226.77811" width="3.60252" height="7.69431"/><rect class="cls-20" x="368.67826" y="213.18981" width="3.60252" height="7.69444"/><rect class="cls-20" x="368.67826" y="199.60288" width="3.60252" height="7.69319"/><rect class="cls-20" x="368.67826" y="186.01345" width="3.60252" height="7.69444"/><rect class="cls-20" x="368.67826" y="172.42527" width="3.60252" height="7.69444"/><rect class="cls-20" x="368.67826" y="158.8371" width="3.60252" height="7.69431"/><rect class="cls-20" x="355.46122" y="226.77811" width="3.60115" height="7.69431"/><rect class="cls-20" x="355.46122" y="213.18981" width="3.60115" height="7.69444"/><rect class="cls-20" x="355.46122" y="199.60288" width="3.60115" height="7.69319"/><rect class="cls-20" x="355.46122" y="186.01345" width="3.60115" height="7.69444"/><rect class="cls-20" x="355.46122" y="172.42527" width="3.60115" height="7.69444"/><rect class="cls-20" x="355.46122" y="158.8371" width="3.60115" height="7.69431"/><rect class="cls-29" y="247.66271" width="420" height="5.64235"/><rect class="cls-30" y="247.66271" width="420" height="5.64235"/><rect class="cls-30" y="241.99598" width="420" height="5.64235"/><path class="cls-31" d="M223.4856,253.95381c25.17315,4.68769,43.89341,21.03,44.72844,40.64628h20.41709c.83-19.6163,19.55892-35.95859,44.72594-40.64628Z" transform="translate(0 -0.59999)"/><path class="cls-32" d="M193.81089,253.95381H83.94631c25.15963,4.68769,43.889,21.03,44.72343,40.64628h20.4122C149.91635,274.98379,168.64574,258.6415,193.81089,253.95381Z" transform="translate(0 -0.59999)"/><path class="cls-33" d="M407.7521,294.60009H420V253.95381H363.0274C388.19443,258.6415,406.92572,274.98379,407.7521,294.60009Z" transform="translate(0 -0.59999)"/><path class="cls-34" d="M0,253.95381v40.64628H9.53764c.83328-19.6163,19.56317-35.95859,44.72969-40.64628Z" transform="translate(0 -0.59999)"/><g class="cls-35"><path class="cls-36" d="M390.30027,39.5762a7.27817,7.27817,0,0,0-1.23418.108l.00125-.04212a7.20306,7.20306,0,0,0-9.7624-6.73365,7.20282,7.20282,0,0,0-13.18291,0,7.202,7.202,0,0,0-9.76115,6.73365v.04212a7.2019,7.2019,0,1,0-1.76882,14.27734l-.00487.022h35.95108l-.00112-.00613a7.20256,7.20256,0,0,0-.23688-14.40121Z" transform="translate(0 -0.59999)"/></g><g class="cls-37"><g class="cls-38"><path class="cls-39" d="M108.7788,55.15058a7.2832,7.2832,0,0,0-1.24028.11351c0-.0165.0025-.03238.0025-.04763a7.2314,7.2314,0,0,0-13.7702-3.09275,7.23131,7.23131,0,0,0-13.77006,3.09275c0,.01525.00125.03113.00125.04763a7.22909,7.22909,0,1,0-1.7762,14.33046l-.00738.02687h30.79963v-.011a7.23182,7.23182,0,0,0-.23926-14.45984Z" transform="translate(0 -0.59999)"/></g></g><rect class="cls-30" x="69.65921" y="128.48061" width="1.39768" height="21.21061"/><rect class="cls-25" x="24.77265" y="137.30784" width="50.90906" height="96.99008"/><rect class="cls-29" x="24.77265" y="141.29426" width="50.90906" height="4.45693"/><rect class="cls-29" x="24.77265" y="148.83544" width="50.90906" height="4.45693"/><rect class="cls-29" x="24.77265" y="156.3785" width="50.90906" height="4.45693"/><rect class="cls-29" x="24.77265" y="163.92155" width="50.90906" height="4.45568"/><rect class="cls-29" x="24.77265" y="171.46336" width="50.90906" height="4.45693"/><rect class="cls-29" x="24.77265" y="179.00629" width="50.90906" height="4.45581"/><rect class="cls-29" x="24.77265" y="186.5481" width="50.90906" height="4.45706"/><rect class="cls-29" x="24.77265" y="194.09241" width="50.90906" height="4.45693"/><rect class="cls-29" x="24.77265" y="201.63296" width="50.90906" height="4.45706"/><rect class="cls-29" x="24.77265" y="209.17602" width="50.90906" height="4.45693"/><rect class="cls-29" x="24.77265" y="216.71908" width="50.90906" height="4.45568"/><rect class="cls-29" x="24.77265" y="224.26089" width="50.90906" height="4.45693"/><polygon class="cls-22" points="383.349 202.743 374.433 229.465 383.349 229.465 392.266 229.465 383.349 202.743"/><rect class="cls-25" x="382.42882" y="229.46497" width="1.84097" height="5.15396"/><polygon class="cls-22" points="359.598 212.118 353.304 230.981 359.598 230.981 365.893 230.981 359.598 212.118"/><rect class="cls-25" x="358.94886" y="230.98116" width="1.29893" height="3.63777"/><polygon class="cls-22" points="19.413 186.554 5.252 228.995 19.413 228.995 33.574 228.995 19.413 186.554"/><rect class="cls-25" x="17.95112" y="228.99495" width="2.92373" height="8.18633"/><polygon class="cls-25" points="128.792 217.389 123.023 234.68 128.792 234.68 134.562 234.68 128.792 217.389"/><rect class="cls-25" x="128.19734" y="234.67994" width="1.19017" height="3.33514"/><rect class="cls-30" x="163.98668" y="115.2537" width="1.41306" height="21.44562"/><rect class="cls-30" x="170.46469" y="119.33049" width="1.41418" height="21.44737"/><rect id="_Path_3" data-name="&lt;Path&gt;" class="cls-22" x="159.747" y="128.71374" width="36.81862" height="5.11371"/><rect id="_Path_4" data-name="&lt;Path&gt;" class="cls-21" x="156.09461" y="132.47365" width="44.12467" height="102.23804"/><g id="_Group_" data-name="&lt;Group&gt;"><rect id="_Path_5" data-name="&lt;Path&gt;" class="cls-40" x="159.52124" y="138.00125" width="3.99241" height="7.62969"/><rect id="_Path_6" data-name="&lt;Path&gt;" class="cls-40" x="166.17614" y="138.00125" width="3.99368" height="7.62969"/><rect id="_Path_7" data-name="&lt;Path&gt;" class="cls-40" x="172.83291" y="138.00125" width="3.99254" height="7.62969"/><rect id="_Path_8" data-name="&lt;Path&gt;" class="cls-40" x="179.48843" y="138.00125" width="3.99193" height="7.62969"/><rect id="_Path_9" data-name="&lt;Path&gt;" class="cls-40" x="186.14345" y="138.00125" width="3.99366" height="7.62969"/><rect id="_Path_10" data-name="&lt;Path&gt;" class="cls-40" x="192.79897" y="138.00125" width="3.99491" height="7.62969"/></g><g id="_Group_2" data-name="&lt;Group&gt;"><rect id="_Path_11" data-name="&lt;Path&gt;" class="cls-40" x="159.52124" y="147.95828" width="3.99241" height="7.63156"/><rect id="_Path_12" data-name="&lt;Path&gt;" class="cls-40" x="166.17614" y="147.95828" width="3.99368" height="7.63156"/><rect id="_Path_13" data-name="&lt;Path&gt;" class="cls-40" x="172.83291" y="147.95828" width="3.99254" height="7.63156"/><rect id="_Path_14" data-name="&lt;Path&gt;" class="cls-40" x="179.48843" y="147.95828" width="3.99193" height="7.63156"/><rect id="_Path_15" data-name="&lt;Path&gt;" class="cls-40" x="186.14345" y="147.95828" width="3.99366" height="7.63156"/><rect id="_Path_16" data-name="&lt;Path&gt;" class="cls-40" x="192.79897" y="147.95828" width="3.99491" height="7.63156"/></g><g id="_Group_3" data-name="&lt;Group&gt;"><rect id="_Path_17" data-name="&lt;Path&gt;" class="cls-40" x="159.52124" y="157.91906" width="3.99241" height="7.62844"/><rect id="_Path_18" data-name="&lt;Path&gt;" class="cls-40" x="166.17614" y="157.91906" width="3.99368" height="7.62844"/><rect id="_Path_19" data-name="&lt;Path&gt;" class="cls-40" x="172.83291" y="157.91906" width="3.99254" height="7.62844"/><rect id="_Path_20" data-name="&lt;Path&gt;" class="cls-40" x="179.48843" y="157.91906" width="3.99193" height="7.62844"/><rect id="_Path_21" data-name="&lt;Path&gt;" class="cls-40" x="186.14345" y="157.91906" width="3.99366" height="7.62844"/><rect id="_Path_22" data-name="&lt;Path&gt;" class="cls-40" x="192.79897" y="157.91906" width="3.99491" height="7.62844"/></g><g id="_Group_4" data-name="&lt;Group&gt;"><rect id="_Path_23" data-name="&lt;Path&gt;" class="cls-40" x="159.52124" y="167.87671" width="3.99241" height="7.62856"/><rect id="_Path_24" data-name="&lt;Path&gt;" class="cls-40" x="166.17614" y="167.87671" width="3.99368" height="7.62856"/><rect id="_Path_25" data-name="&lt;Path&gt;" class="cls-40" x="172.83291" y="167.87671" width="3.99254" height="7.62856"/><rect id="_Path_26" data-name="&lt;Path&gt;" class="cls-40" x="179.48843" y="167.87671" width="3.99193" height="7.62856"/><rect id="_Path_27" data-name="&lt;Path&gt;" class="cls-40" x="186.14345" y="167.87671" width="3.99366" height="7.62856"/><rect id="_Path_28" data-name="&lt;Path&gt;" class="cls-40" x="192.79897" y="167.87671" width="3.99491" height="7.62856"/></g><g id="_Group_5" data-name="&lt;Group&gt;"><rect id="_Path_29" data-name="&lt;Path&gt;" class="cls-40" x="159.52124" y="177.83324" width="3.99241" height="7.62969"/><rect id="_Path_30" data-name="&lt;Path&gt;" class="cls-40" x="166.17614" y="177.83324" width="3.99368" height="7.62969"/><rect id="_Path_31" data-name="&lt;Path&gt;" class="cls-40" x="172.83291" y="177.83324" width="3.99254" height="7.62969"/><rect id="_Path_32" data-name="&lt;Path&gt;" class="cls-40" x="179.48843" y="177.83324" width="3.99193" height="7.62969"/><rect id="_Path_33" data-name="&lt;Path&gt;" class="cls-40" x="186.14345" y="177.83324" width="3.99366" height="7.62969"/><rect id="_Path_34" data-name="&lt;Path&gt;" class="cls-40" x="192.79897" y="177.83324" width="3.99491" height="7.62969"/></g><g id="_Group_6" data-name="&lt;Group&gt;"><rect id="_Path_35" data-name="&lt;Path&gt;" class="cls-40" x="159.52124" y="187.79215" width="3.99241" height="7.62969"/><rect id="_Path_36" data-name="&lt;Path&gt;" class="cls-40" x="166.17614" y="187.79215" width="3.99368" height="7.62969"/><rect id="_Path_37" data-name="&lt;Path&gt;" class="cls-40" x="172.83291" y="187.79215" width="3.99254" height="7.62969"/><rect id="_Path_38" data-name="&lt;Path&gt;" class="cls-40" x="179.48843" y="187.79215" width="3.99193" height="7.62969"/><rect id="_Path_39" data-name="&lt;Path&gt;" class="cls-40" x="186.14345" y="187.79215" width="3.99366" height="7.62969"/><rect id="_Path_40" data-name="&lt;Path&gt;" class="cls-40" x="192.79897" y="187.79215" width="3.99491" height="7.62969"/></g><g id="_Group_7" data-name="&lt;Group&gt;"><rect id="_Path_41" data-name="&lt;Path&gt;" class="cls-40" x="159.52124" y="197.74981" width="3.99241" height="7.63094"/><rect id="_Path_42" data-name="&lt;Path&gt;" class="cls-40" x="166.17614" y="197.74981" width="3.99368" height="7.63094"/><rect id="_Path_43" data-name="&lt;Path&gt;" class="cls-40" x="172.83291" y="197.74981" width="3.99254" height="7.63094"/><rect id="_Path_44" data-name="&lt;Path&gt;" class="cls-40" x="179.48843" y="197.74981" width="3.99193" height="7.63094"/><rect id="_Path_45" data-name="&lt;Path&gt;" class="cls-40" x="186.14345" y="197.74981" width="3.99366" height="7.63094"/><rect id="_Path_46" data-name="&lt;Path&gt;" class="cls-40" x="192.79897" y="197.74981" width="3.99491" height="7.63094"/></g><g id="_Group_8" data-name="&lt;Group&gt;"><rect id="_Path_47" data-name="&lt;Path&gt;" class="cls-40" x="159.52124" y="207.70871" width="3.99241" height="7.62969"/><rect id="_Path_48" data-name="&lt;Path&gt;" class="cls-40" x="166.17614" y="207.70871" width="3.99368" height="7.62969"/><rect id="_Path_49" data-name="&lt;Path&gt;" class="cls-40" x="172.83291" y="207.70871" width="3.99254" height="7.62969"/><rect id="_Path_50" data-name="&lt;Path&gt;" class="cls-40" x="179.48843" y="207.70871" width="3.99193" height="7.62969"/><rect id="_Path_51" data-name="&lt;Path&gt;" class="cls-40" x="186.14345" y="207.70871" width="3.99366" height="7.62969"/><rect id="_Path_52" data-name="&lt;Path&gt;" class="cls-40" x="192.79897" y="207.70871" width="3.99491" height="7.62969"/></g><rect id="_Path_53" data-name="&lt;Path&gt;" class="cls-40" x="204.94484" y="166.57179" width="46.79266" height="68.16065"/><rect id="_Rectangle_" data-name="&lt;Rectangle&gt;" class="cls-19" x="207.55057" y="171.93813" width="2.92062" height="55.01699"/><rect id="_Rectangle_2" data-name="&lt;Rectangle&gt;" class="cls-19" x="212.33764" y="171.93813" width="2.92012" height="55.01699"/><rect id="_Rectangle_3" data-name="&lt;Rectangle&gt;" class="cls-19" x="217.12309" y="171.93813" width="2.92126" height="55.01699"/><rect id="_Rectangle_4" data-name="&lt;Rectangle&gt;" class="cls-19" x="221.90841" y="171.93813" width="2.92124" height="55.01699"/><rect id="_Rectangle_5" data-name="&lt;Rectangle&gt;" class="cls-19" x="226.69373" y="171.93813" width="2.92249" height="55.01699"/><rect id="_Rectangle_6" data-name="&lt;Rectangle&gt;" class="cls-19" x="231.48155" y="171.93813" width="2.92124" height="55.01699"/><rect id="_Rectangle_7" data-name="&lt;Rectangle&gt;" class="cls-19" x="236.26812" y="171.93813" width="2.91999" height="55.01699"/><rect id="_Rectangle_8" data-name="&lt;Rectangle&gt;" class="cls-19" x="241.05344" y="171.93813" width="2.92249" height="55.01699"/><rect id="_Rectangle_9" data-name="&lt;Rectangle&gt;" class="cls-19" x="245.84126" y="171.93813" width="2.91999" height="55.01699"/><rect class="cls-18" x="215.75216" y="161.4067" width="25.10227" height="5.33597"/><polygon class="cls-25" points="210.721 160.275 210.721 160.97 210.721 161.701 245.885 161.701 245.885 160.97 245.885 160.275 210.721 160.275"/><rect class="cls-29" x="257.11497" y="141.73552" width="37.33427" height="92.96641"/><rect class="cls-21" x="283.07302" y="179.63691" width="4.63756" height="7.78594" transform="translate(570.78361 366.45977) rotate(180)"/><rect class="cls-21" x="277.81769" y="179.63691" width="4.63756" height="7.78594" transform="translate(560.27294 366.45977) rotate(180)"/><rect class="cls-21" x="268.69009" y="179.63691" width="4.63769" height="7.78594" transform="translate(542.01786 366.45977) rotate(180)"/><rect class="cls-21" x="263.43598" y="179.63691" width="4.63644" height="7.78594" transform="translate(531.50839 366.45977) rotate(180)"/><rect class="cls-21" x="283.07302" y="168.69033" width="4.63756" height="7.78482" transform="translate(570.78361 344.5655) rotate(180)"/><rect class="cls-21" x="277.81769" y="168.69033" width="4.63756" height="7.78482" transform="translate(560.27294 344.5655) rotate(180)"/><rect class="cls-21" x="268.69009" y="168.69033" width="4.63769" height="7.78482" transform="translate(542.01786 344.5655) rotate(180)"/><rect class="cls-21" x="263.43598" y="168.69033" width="4.63644" height="7.78482" transform="translate(531.50839 344.5655) rotate(180)"/><rect class="cls-21" x="283.07302" y="157.9624" width="4.63756" height="7.78594" transform="translate(570.78361 323.11075) rotate(180)"/><rect class="cls-21" x="277.81769" y="157.9624" width="4.63756" height="7.78594" transform="translate(560.27294 323.11075) rotate(180)"/><rect class="cls-21" x="268.69009" y="157.9624" width="4.63769" height="7.78594" transform="translate(542.01786 323.11075) rotate(180)"/><rect class="cls-21" x="263.43598" y="157.9624" width="4.63644" height="7.78594" transform="translate(531.50839 323.11075) rotate(180)"/><rect class="cls-21" x="283.07302" y="147.23446" width="4.63756" height="7.78594" transform="translate(570.78361 301.65488) rotate(180)"/><rect class="cls-21" x="277.81769" y="147.23446" width="4.63756" height="7.78594" transform="translate(560.27294 301.65488) rotate(180)"/><rect class="cls-21" x="268.69009" y="147.23446" width="4.63769" height="7.78594" transform="translate(542.01786 301.65488) rotate(180)"/><rect class="cls-21" x="263.43598" y="147.23446" width="4.63644" height="7.78594" transform="translate(531.50839 301.65488) rotate(180)"/><rect class="cls-21" x="283.07302" y="222.81604" width="4.63756" height="7.78719" transform="translate(570.78361 452.81928) rotate(180)"/><rect class="cls-21" x="277.81769" y="222.81604" width="4.63756" height="7.78719" transform="translate(560.27294 452.81928) rotate(180)"/><rect class="cls-21" x="268.69009" y="222.81604" width="4.63769" height="7.78719" transform="translate(542.01786 452.81928) rotate(180)"/><rect class="cls-21" x="263.43598" y="222.81604" width="4.63644" height="7.78719" transform="translate(531.50839 452.81928) rotate(180)"/><rect class="cls-21" x="283.07302" y="211.87084" width="4.63756" height="7.78469" transform="translate(570.78361 430.92639) rotate(180)"/><rect class="cls-21" x="277.81769" y="211.87084" width="4.63756" height="7.78469" transform="translate(560.27294 430.92639) rotate(180)"/><rect class="cls-21" x="268.69009" y="211.87084" width="4.63769" height="7.78469" transform="translate(542.01786 430.92639) rotate(180)"/><rect class="cls-21" x="263.43598" y="211.87084" width="4.63644" height="7.78469" transform="translate(531.50839 430.92639) rotate(180)"/><rect class="cls-21" x="283.07302" y="201.14166" width="4.63756" height="7.78719" transform="translate(570.78361 409.47052) rotate(180)"/><rect class="cls-21" x="277.81769" y="201.14166" width="4.63756" height="7.78719" transform="translate(560.27294 409.47052) rotate(180)"/><rect class="cls-21" x="268.69009" y="201.14166" width="4.63769" height="7.78719" transform="translate(542.01786 409.47052) rotate(180)"/><rect class="cls-21" x="263.43598" y="201.14166" width="4.63644" height="7.78719" transform="translate(531.50839 409.47052) rotate(180)"/><rect class="cls-21" x="283.07302" y="190.41359" width="4.63756" height="7.78719" transform="translate(570.78361 388.01439) rotate(180)"/><rect class="cls-21" x="277.81769" y="190.41359" width="4.63756" height="7.78719" transform="translate(560.27294 388.01439) rotate(180)"/><rect class="cls-21" x="268.69009" y="190.41359" width="4.63769" height="7.78719" transform="translate(542.01786 388.01439) rotate(180)"/><rect class="cls-21" x="263.43598" y="190.41359" width="4.63644" height="7.78719" transform="translate(531.50839 388.01439) rotate(180)"/><polygon id="_Path_54" data-name="&lt;Path&gt;" class="cls-41" points="256.577 135.42 295.146 135.42 298.895 141.866 252.829 141.866 256.577 135.42"/><rect class="cls-25" x="298.39827" y="111.43216" width="48.20509" height="123.26002"/><rect class="cls-18" x="315.40459" y="128.8175" width="14.2182" height="13.90619"/><rect class="cls-18" x="315.40459" y="143.4891" width="14.2182" height="13.90132"/><rect class="cls-18" x="315.40459" y="158.15832" width="14.2182" height="14.44884"/><rect class="cls-18" x="300.61274" y="128.8175" width="14.0082" height="13.90619"/><polygon class="cls-18" points="344.359 113.554 330.406 113.554 330.406 128.052 344.344 128.052 344.344 128.817 330.406 128.817 330.406 142.724 344.344 142.724 344.344 143.489 330.406 143.489 330.406 157.39 344.344 157.39 344.344 158.158 330.406 158.158 330.406 172.607 344.359 172.607 344.359 113.554"/><rect class="cls-18" x="315.40459" y="113.55388" width="14.2182" height="14.49822"/><rect class="cls-18" x="300.61274" y="113.55388" width="14.0082" height="14.49822"/><rect class="cls-18" x="300.61274" y="143.4891" width="14.0082" height="13.90132"/><rect class="cls-18" x="300.61274" y="158.15832" width="14.0082" height="14.44884"/><rect class="cls-18" x="315.43272" y="188.43905" width="14.21933" height="13.90569"/><rect class="cls-18" x="315.43272" y="203.11127" width="14.21933" height="13.90194"/><rect class="cls-18" x="300.64086" y="173.55807" width="14.00807" height="14.11445"/><rect class="cls-18" x="300.64086" y="188.43905" width="14.00807" height="13.90569"/><rect class="cls-18" x="300.64086" y="203.11127" width="14.00807" height="13.90194"/><polygon class="cls-18" points="330.436 173.558 330.436 187.673 344.373 187.673 344.373 188.439 330.436 188.439 330.436 202.345 344.373 202.345 344.373 203.111 330.436 203.111 330.436 217.013 344.373 217.013 344.373 217.779 330.436 217.779 330.436 232.572 344.388 232.572 344.388 173.558 330.436 173.558"/><rect class="cls-18" x="300.64086" y="217.77862" width="14.00807" height="14.7931"/><rect class="cls-18" x="315.43272" y="173.55807" width="14.21933" height="14.11445"/><rect class="cls-18" x="315.43272" y="217.77862" width="14.21933" height="14.7931"/><polygon class="cls-21" points="216.051 210.077 207.135 236.799 216.051 236.799 224.968 236.799 216.051 210.077"/><rect class="cls-25" x="215.13076" y="236.79927" width="1.84097" height="5.15396"/></g></g></svg>