<svg id="Layer_1" data-name="Layer 1" xmlns="http://www.w3.org/2000/svg" viewBox="0 0 410.5805 242.56904"><defs><style>.cls-1{fill:none;}.cls-2{fill:#0d47a1;}.cls-3{fill:#76ff03;}.cls-4{fill:#2b1c3a;}</style></defs><title>content-stock2</title><path class="cls-1" d="M33.70223,78.16486v32.02839a5.08263,5.08263,0,0,0,10.165,0V78.16486Z" transform="translate(-5.4195 -3)"/><path class="cls-2" d="M32.43161,78.16486V99.32272c0,6.1828-2.11037,16.80874,6.67076,17.59589,8.73938.78311,6.67075-12.59359,6.67075-17.59589V78.5841c0-.91634-.742-1.3722-1.65854-1.3722H33.70223a1.42945,1.42945,0,1,0,0,2.85889H44.11458a6.11643,6.11643,0,0,0-1.83566-1.48669v27.51718c0,2.85035.73394,7.08968-3.33538,7.45482-3.94464.35349-3.33538-4.60367-3.33538-6.99943V78.16486C35.60816,76.25893,32.43161,76.25893,32.43161,78.16486Z" transform="translate(-5.4195 -3)"/><rect class="cls-1" x="29.55336" y="66.90583" width="7.30606" height="8.25903"/><path class="cls-2" d="M42.27892,77.2119H35.37164a10.68786,10.68786,0,0,1,1.50714,1.3722V70.5137a6.68476,6.68476,0,0,0-1.50714,1.93337H42.7695a7.16385,7.16385,0,0,0-1.7612-1.93337v7.65116c0,2.8589,3.4942,2.8589,3.4942,0V70.5137a1.643,1.643,0,0,0-1.733-1.56083H35.37164a1.58668,1.58668,0,0,0-1.66941,1.56083v8.0704a1.52934,1.52934,0,0,0,1.66941,1.48669h6.90728C45.13781,80.07079,45.13781,77.2119,42.27892,77.2119Z" transform="translate(-5.4195 -3)"/><circle class="cls-1" cx="39.74311" cy="37.44759" r="32.72993" transform="translate(-12.85806 6.9571) rotate(-13.06933)"/><path class="cls-2" d="M70.79172,37.44762A31.41954,31.41954,0,0,1,41.6005,68.44427c-16.25609,1.13692-30.68382-11.331-32.70064-27.30918C6.86394,25.004,18.18228,10.27075,33.81436,6.95973c16.051-3.40021,31.83932,7.33043,36.02065,22.80912a30.99792,30.99792,0,0,1,.95671,7.67877c.03024,2.16666,3.39275,2.16962,3.36266,0A34.97061,34.97061,0,0,0,51.70263,5.17852C38.10242-.14408,22.2752,4.6386,13.09221,15.69137,3.8197,26.85211,3.01736,42.96008,10.32823,55.31448,17.71431,67.79641,32.53739,73.74653,46.5657,71.17817c16.04189-2.93691,27.36563-17.7634,27.58868-33.73055C74.18447,35.278,70.822,35.2808,70.79172,37.44762Z" transform="translate(-5.4195 -3)"/><circle class="cls-1" cx="39.74315" cy="37.44755" r="25.33192" transform="translate(-19.33991 24.34511) rotate(-32.63512)"/><path class="cls-2" d="M63.394,37.44762A23.95022,23.95022,0,0,1,39.74311,61.09818c-13.06868.23532-23.42178-10.93673-23.65072-23.65056-.23512-13.06883,10.93693-23.42178,23.65072-23.65071C52.81178,13.56178,63.16489,24.734,63.394,37.44762c.03891,2.16606,3.40145,2.16962,3.36251,0A27.38839,27.38839,0,0,0,40.67171,10.451c-14.57134-.78762-26.604,11.05405-27.87578,25.148C11.48252,50.16145,22.95965,62.53789,36.983,64.31212c14.16,1.79192,27.73821-9.19338,29.51076-23.2026a33.86015,33.86015,0,0,0,.26273-3.6619C66.79543,35.278,63.43289,35.2816,63.394,37.44762Z" transform="translate(-5.4195 -3)"/><path class="cls-1" d="M22.53717,32.371A17.91574,17.91574,0,0,1,39.74311,19.51346" transform="translate(-5.4195 -3)"/><path class="cls-3" d="M24.15864,32.8179A16.57991,16.57991,0,0,1,39.74311,21.19481c2.162-.07586,2.16945-3.43852,0-3.36254a20.0627,20.0627,0,0,0-18.827,14.09178c-.67625,2.06692,2.57151,2.94542,3.2425.89385Z" transform="translate(-5.4195 -3)"/><path class="cls-4" d="M27.74915,50.7803a17.99748,17.99748,0,0,1-4.09136-5.39362" transform="translate(-5.4195 -3)"/><path class="cls-3" d="M28.93773,49.59157a17.53051,17.53051,0,0,1-3.82816-5.05332c-.98121-1.93461-3.88181-.232-2.90356,1.69685A20.1835,20.1835,0,0,0,26.56043,51.969c1.5937,1.46372,3.978-.90783,2.3773-2.37746Z" transform="translate(-5.4195 -3)"/><path class="cls-4" d="M51.09352,51.33324a17.90613,17.90613,0,0,1-5.53955,3.086" transform="translate(-5.4195 -3)"/><path class="cls-3" d="M49.90464,50.14467a16.48456,16.48456,0,0,1-4.79755,2.65325c-2.02924.71892-1.15585,3.96865.89388,3.24262A21.273,21.273,0,0,0,52.28225,52.522a1.68262,1.68262,0,0,0,0-2.3773,1.71792,1.71792,0,0,0-2.37761,0Z" transform="translate(-5.4195 -3)"/><path class="cls-4" d="M55.0563,28.10752a17.84916,17.84916,0,0,1,2.62081,9.3401" transform="translate(-5.4195 -3)"/><path class="cls-3" d="M53.60468,28.95626a16.99376,16.99376,0,0,1,2.39124,8.49136c.03771,2.16606,3.40053,2.16962,3.36254,0a20.53792,20.53792,0,0,0-2.85038-10.18853,1.68243,1.68243,0,0,0-2.9034,1.69717Z" transform="translate(-5.4195 -3)"/><path class="cls-1" d="M329.05143,137.10758H376.8005a8.84409,8.84409,0,0,1,8.84409,8.84409V232.7723a8.84377,8.84377,0,0,1-8.84377,8.84377H329.05175a8.84409,8.84409,0,0,1-8.84409-8.84409V145.95135A8.84377,8.84377,0,0,1,329.05143,137.10758Z"/><path class="cls-2" d="M389.46091,235.32838c-.291,5.75937-4.95808,7.06411-9.704,7.06411H337.9698c-4.18971,0-8.331-.12532-10.07192-4.88023-.595-1.62611-.36479-3.7374-.36479-5.446V151.69579c0-2.49873-.08189-4.79709,1.30785-7.08519,2.13546-3.51346,6.39188-3.2324,9.87522-3.2324h29.8515c6.17626,0,20.90815-2.20157,20.90815,7.52229v86.50359a1.75372,1.75372,0,1,0,3.4942,0V160.21044c0-4.51512,1.05471-11.44057-.99762-15.70159-3.859-8.01148-13.70043-6.3072-21.02575-6.3072H340.39688a46.34054,46.34054,0,0,0-6.932.17868,10.67774,10.67774,0,0,0-9.10837,10.66193v77.29747c0,5.63374-1.07612,11.83515,3.01709,16.33877,2.54527,2.79994,6.10866,2.89054,9.60629,2.89054h45.30583a10.57061,10.57061,0,0,0,10.53786-10.38243C392.93342,233.018,389.57012,233.17118,389.46091,235.32838Z" transform="translate(-5.4195 -3)"/><line class="cls-4" x1="320.84297" y1="153.62564" x2="385.32693" y2="153.62564"/><path class="cls-2" d="M326.26247,158.21392h64.484a1.59017,1.59017,0,1,0,0-3.17655h-64.484c-1.90593,0-1.90593,3.17655,0,3.17655Z" transform="translate(-5.4195 -3)"/><line class="cls-4" x1="320.84297" y1="224.78036" x2="385.32693" y2="224.78036"/><path class="cls-2" d="M326.26248,229.051c-.03882-.89769,43.08316-2.72524,64.48395,0,2.20575.28088,2.22358-3.49421,0-3.49421h-64.484c-1.90593,0-1.90593,3.49421,0,3.49421Z" transform="translate(-5.4195 -3)"/><path class="cls-1" d="M362.16183,235.86506a3.50259,3.50259,0,1,1-3.50291-3.50352A3.50208,3.50208,0,0,1,362.16183,235.86506Z" transform="translate(-5.4195 -3)"/><path class="cls-3" d="M360.48049,235.86506a1.82224,1.82224,0,0,1-3.64249,0c-.12655-2.353,3.51622-2.34023,3.64249,0,.116,2.15687,3.479,2.16774,3.36266,0a5.30694,5.30694,0,0,0-5.18423-5.18486c-2.92248-.15759-5.03873,2.49254-5.18358,5.18486-.15728,2.92185,2.4919,5.0381,5.18358,5.1833,2.92249.15727,5.03938-2.4913,5.18423-5.1833C363.95979,233.69668,360.59649,233.70815,360.48049,235.86506Z" transform="translate(-5.4195 -3)"/><line class="cls-4" x1="345.62006" y1="146.00192" x2="360.54985" y2="146.00192"/><path class="cls-3" d="M351.03956,150.27254h14.92978a1.59017,1.59017,0,1,0,0-3.17655H351.03956c-1.90593,0-1.90593,3.17655,0,3.17655Z" transform="translate(-5.4195 -3)"/><line class="cls-4" x1="341.5529" y1="184.84703" x2="349.86126" y2="172.6046"/><path class="cls-3" d="M348.42449,188.69545q4.15341-6.12027,8.308-12.24242c1.22129-1.80015-1.69377-3.48026-2.90356-1.69717q-4.15436,6.12123-8.30836,12.24243c-1.22161,1.79986,1.69374,3.48057,2.90387,1.69716Z" transform="translate(-5.4195 -3)"/><line class="cls-4" x1="355.00359" y1="204.35054" x2="363.31195" y2="192.10843"/><path class="cls-3" d="M361.8749,208.199q4.15383-6.12075,8.30832-12.24211c1.22132-1.79954-1.69341-3.48026-2.90355-1.69716q-4.15431,6.12075-8.30836,12.24213c-1.22129,1.79984,1.69345,3.48055,2.90359,1.69714Z" transform="translate(-5.4195 -3)"/><line class="cls-4" x1="341.55103" y1="205.84018" x2="364.66043" y2="171.7875"/><path class="cls-3" d="M348.4223,209.6886q11.55428-17.02634,23.1094-34.05267c1.22132-1.79984-1.69405-3.48-2.90387-1.69717q-11.55423,17.02633-23.10909,34.05268c-1.22128,1.79954,1.69346,3.48026,2.90356,1.69716Z" transform="translate(-5.4195 -3)"/><path class="cls-1" d="M403.23424,38.14033H383.758v-1.086c0-2.33635-1.64008-3.67879-4.06252-3.67879H364.25512c-2.42244,0-4.95653,1.34244-4.95653,3.67879V63.56544c0,2.336,2.53409,4.75212,4.95653,4.75212h38.97912c2.42212,0,3.71259-2.41609,3.71259-4.75212V41.76189C406.94683,39.42585,405.65636,38.14033,403.23424,38.14033Z" transform="translate(-5.4195 -3)"/><path class="cls-2" d="M402.81732,35.91675H383.74468c.56056.63531,1.12078.93359,1.681,1.49428,0-5.35284-3.77679-6.57676-8.268-6.57676H364.292a6.79533,6.79533,0,0,0-6.05406,3.857c-.79319,2.04227-.52766,4.80637-.52766,6.96112V63.45578c0,4.4202,4.154,5.81474,7.97085,5.81474h37.53758c5.15382,0,5.634-4.59964,5.634-8.50829V45.04453c0-4.3276-.30275-8.41633-5.67436-8.8579-2.16247-.178-2.08026,3.18617.06515,3.36254,2.77265.22829,2.43266,2.62808,2.43266,4.56629v19.423c0,4.06513-6.176,2.5555-8.65921,2.5555H364.39069c-3.82025,0-3.18617-3.95966-3.18617-6.377V37.91356c0-4.35969,7.66434-3.26743,10.44011-3.26743h6.44525c2.16123,0,3.97345.08656,3.97345,2.89612a1.58936,1.58936,0,0,0,1.68135,1.551h19.07264C405.67621,39.0933,405.67621,35.91675,402.81732,35.91675Z" transform="translate(-5.4195 -3)"/><path class="cls-1" d="M339.84781,38.14033H320.227v-1.086c0-2.33635-1.49552-3.67879-3.91795-3.67879H300.86836c-2.42212,0-4.78311,1.34244-4.78311,3.67879V63.56544a5.13482,5.13482,0,0,0,4.78311,4.75212h38.97945c2.42244,0,4.20334-2.41609,4.20334-4.75212V41.76189C344.05115,39.42585,342.27025,38.14033,339.84781,38.14033Z" transform="translate(-5.4195 -3)"/><path class="cls-2" d="M339.604,35.91675h-19.0776c.56025.63531,1.12078.93359,1.68135,1.49428,0-5.36586-3.958-6.57676-8.43619-6.57676H300.90559c-6.27493,0-6.091,6.17254-6.091,10.81812V63.45578c0,4.40035,3.64991,5.81474,7.48038,5.81474h37.5373c5.192,0,6.12477-4.535,6.12477-8.50829V45.04453c0-4.40466-.56581-8.4143-6.00381-8.8579-2.16278-.17636-2.31726,3.18773-.17185,3.36254,4.118.33611,2.3638,9.40369,2.3638,12.11447V63.53847c0,4.0414-6.08074,2.5555-8.51433,2.5555H301.00425c-3.6732,0-3.01307-4.05613-3.01307-6.377V37.91356c0-4.37395,7.39167-3.26743,10.267-3.26743h6.44522c2.13394,0,4.14161.02233,4.14161,2.89612a1.58934,1.58934,0,0,0,1.68135,1.551H339.604C341.50991,39.0933,341.50991,35.91675,339.604,35.91675Z" transform="translate(-5.4195 -3)"/><line class="cls-4" x1="284.63031" y1="78.65907" x2="409.15106" y2="78.65907"/><path class="cls-3" d="M290.0498,83.24734H414.57055c1.90593,0,1.90593-3.81186,0-3.81186H290.0498c-2.22358,0-2.22358,3.81186,0,3.81186Z" transform="translate(-5.4195 -3)"/><line class="cls-4" x1="377.38556" y1="65.31756" x2="377.38556" y2="78.02376"/><path class="cls-2" d="M381.21678,68.31756v12.7062a1.91917,1.91917,0,1,0,3.81186,0V68.31756c0-2.22359-3.81186-2.22359-3.81186,0Z" transform="translate(-5.4195 -3)"/><line class="cls-4" x1="314.17222" y1="65.31756" x2="314.17222" y2="78.02376"/><path class="cls-2" d="M318.00344,68.31756v12.7062c0,2.85889,3.4942,2.85889,3.4942,0V68.31756a1.749,1.749,0,0,0-3.4942,0Z" transform="translate(-5.4195 -3)"/><circle class="cls-1" cx="319.60165" cy="81.16226" r="4.95996" transform="translate(30.79927 246.76437) rotate(-45)"/><path class="cls-2" d="M322.88024,81.16225a3.28043,3.28043,0,0,1-6.5572,0c-.22769-4.23018,6.33045-4.20753,6.5572,0,.11635,2.15659,3.47962,2.16806,3.36269,0a6.796,6.796,0,0,0-6.64127-6.64127c-3.74611-.20149-6.4558,3.191-6.64131,6.64127-.20193,3.74595,3.19081,6.45548,6.64131,6.64131,3.74607.20178,6.45544-3.191,6.64127-6.64131C326.35986,78.99435,322.99659,79.00585,322.88024,81.16225Z" transform="translate(-5.4195 -3)"/><path class="cls-1" d="M387.77988,81.83479a4.95995,4.95995,0,1,1-4.96024-4.95993A4.9603,4.9603,0,0,1,387.77988,81.83479Z" transform="translate(-5.4195 -3)"/><path class="cls-2" d="M386.09857,81.83479a3.28044,3.28044,0,0,1-6.55723,0c-.228-4.23018,6.33045-4.20753,6.55723,0,.11632,2.15659,3.47962,2.16806,3.36234,0a6.79535,6.79535,0,0,0-6.64127-6.64111c-3.74579-.20165-6.45548,3.19081-6.641,6.64111-.20161,3.746,3.19085,6.45532,6.641,6.64115,3.7461.20193,6.45516-3.19084,6.64127-6.64115C389.57819,79.66689,386.21489,79.67836,386.09857,81.83479Z" transform="translate(-5.4195 -3)"/><line class="cls-4" x1="119.13206" y1="13.22214" x2="222.05227" y2="13.22214"/><path class="cls-2" d="M124.55156,18.44572H227.47177a1.749,1.749,0,0,0,0-3.4942H124.55156a1.749,1.749,0,0,0,0,3.4942Z" transform="translate(-5.4195 -3)"/><path class="cls-1" d="M125.2885,4.64546h90.29a6.79143,6.79143,0,0,1,6.79143,6.79143V67.7378a6.79175,6.79175,0,0,1-6.79175,6.79175h-90.29a6.79144,6.79144,0,0,1-6.79144-6.79144V11.43721a6.79175,6.79175,0,0,1,6.79175-6.79175Z"/><path class="cls-2" d="M226.03488,71.07826c-.47524,7.0683-11.35711,5.18067-16.15869,5.18067H131.25766c-7.54291,0-5.43548-12.136-5.43548-16.97685V16.58074c0-3.40609.96722-7.02935,5.27993-7.02935h87.081c2.77916,0,5.39578-.20226,7.23752,2.52418,1.24145,1.83846.78048,5.43952.78048,7.52026v51.263a1.59017,1.59017,0,1,0,3.17655,0V14.65823A8.41421,8.41421,0,0,0,220.689,6.37484H133.43331c-2.0038,0-4.20721-.26445-6.05606.66307C120.51571,10.4811,122.328,20.0306,122.328,26.37344V69.0751c0,3.316.51028,6.69013,3.54258,8.73859,4.10842,2.77453,10.97215,1.62179,15.66033,1.62179h67.88233c7.34513,0,19.27645,2.11006,19.98465-8.41506C229.54367,68.85452,226.18005,68.92666,226.03488,71.07826Z" transform="translate(-5.4195 -3)"/><line class="cls-4" x1="119.13206" y1="65.95287" x2="222.05227" y2="65.95287"/><path class="cls-2" d="M124.55156,70.8588H227.47177a1.59017,1.59017,0,1,0,0-3.17655H124.55156a1.59017,1.59017,0,1,0,0,3.17655Z" transform="translate(-5.4195 -3)"/><line class="cls-4" x1="135.96777" y1="80.24734" x2="205.21656" y2="80.24734"/><path class="cls-2" d="M141.38727,85.15327h69.24879c1.90593,0,1.90593-3.4942,0-3.4942H141.38727c-1.90593,0-1.90593,3.4942,0,3.4942Z" transform="translate(-5.4195 -3)"/><polygon class="cls-1" points="199.162 80.247 141.324 80.247 145.359 74.53 195.127 74.53 199.162 80.247"/><path class="cls-2" d="M204.60061,81.65907H146.74334c.484.953.96787,1.60625,1.45178,2.44972,1.34508-1.79332,2.69032-3.64948,4.03539-5.44324-.4841.27747-.96786.13462-1.45193.76993h49.76757c-.48407-.63531-.9677-.53248-1.45177-.81,1.34491,1.7938,2.69,3.59843,4.0352,5.39147,1.28412,1.71267,4.206.04542,2.90359-1.69113q-1.30709-1.74356-2.6151-3.48366c-.58566-.7814-1.39422-2.31136-2.425-2.59489-1.19-.32744-2.74057.01162-3.94836.01162H150.77858c-2.06416,0-4.41306,4.85695-5.48686,6.28859-.7921,1.05578.28773,2.60575,1.45162,2.60575h57.85727C206.50654,85.15327,206.50654,81.65907,204.60061,81.65907Z" transform="translate(-5.4195 -3)"/><path class="cls-1" d="M194.75707,29.10489h43.79a5.10573,5.10573,0,0,1,5.10573,5.10573v49.5078a5.1056,5.1056,0,0,1-5.1056,5.1056h-43.79a5.10574,5.10574,0,0,1-5.10574-5.10574V34.21049A5.1056,5.1056,0,0,1,194.75707,29.10489Z"/><path class="cls-2" d="M247.55661,86.973c-.398,4.43786-5.93834,3.58045-9.029,3.58045H200.5539c-4.26909,0-3.25935-5.64054-3.25935-8.39474V39.6478c0-2.85826.02683-5.637,3.88148-5.637h39.84944c2.853,0,6.45856-.56289,6.45856,3.58153V87.0592c0,1.90593,3.49421,1.90593,3.49421,0V38.53912c0-3.69258-1.6311-7.7821-5.89864-8.16459-2.47517-.22147-5.02819-.17557-7.51051-.17557H207.10338c-2.482,0-4.98258-.0459-7.45714.17557-4.26817.38249-5.8459,4.472-5.8459,8.16459V86.81724c0,9.20485,13.686,6.91272,19.44893,6.91272h24.31982c5.58377,0,12.67021.81135,13.3499-6.772C251.11257,84.79747,247.74864,84.83142,247.55661,86.973Z" transform="translate(-5.4195 -3)"/><line class="cls-4" x1="190.28678" y1="37.99923" x2="243.65281" y2="37.99923"/><path class="cls-2" d="M195.70627,43.54047h53.366c1.90593,0,1.90593-3.81186,0-3.81186h-53.366c-1.90593,0-1.90593,3.81186,0,3.81186Z" transform="translate(-5.4195 -3)"/><line class="cls-4" x1="190.28678" y1="79.61203" x2="243.65281" y2="79.61203"/><path class="cls-2" d="M195.70627,84.518h53.366c1.90593,0,1.90593-3.4942,0-3.4942h-53.366c-1.90593,0-1.90593,3.4942,0,3.4942Z" transform="translate(-5.4195 -3)"/><path class="cls-4" d="M222.841,87.23229a.485.485,0,1,1-.48487-.48515A.48485.48485,0,0,1,222.841,87.23229Z" transform="translate(-5.4195 -3)"/><path class="cls-3" d="M221.15961,87.23229a1.22455,1.22455,0,0,1,1.19648-1.19648,1.19632,1.19632,0,1,1-1.19648,1.19648,1.71257,1.71257,0,0,0,1.68135,1.68119,1.6859,1.6859,0,0,0,1.68131-1.68119,2.30887,2.30887,0,0,0-.60675-1.5014,2.34385,2.34385,0,0,0-1.55943-.66494,2.07362,2.07362,0,0,0-1.50143.60646,2.34184,2.34184,0,0,0-.66507,1.55988,2.07109,2.07109,0,0,0,.60678,1.50127,2.3428,2.3428,0,0,0,1.55972.66507,2.0756,2.0756,0,0,0,1.50111-.60643,2.34624,2.34624,0,0,0,.66507-1.55991A1.68592,1.68592,0,0,0,222.841,85.551,1.71261,1.71261,0,0,0,221.15961,87.23229Z" transform="translate(-5.4195 -3)"/><path class="cls-1" d="M171.8862,49.43481h27.58917a5.10589,5.10589,0,0,1,5.10589,5.10589v49.50736a5.10589,5.10589,0,0,1-5.10589,5.10589H171.8862a5.1059,5.1059,0,0,1-5.1059-5.1059V54.5407A5.10589,5.10589,0,0,1,171.8862,49.43481Z"/><path class="cls-2" d="M208.54912,107.06727c-.43214,4.8213-8.04515,3.4984-11.34019,3.4984H181.717c-3.143,0-7.6113.41352-7.6113-4.1399V57.5379c0-4.639,6.15533-3.51482,9.16626-3.51482H204.6183c3.25409,0,4.11183,2.375,4.11183,4.941v48.425c0,1.58827,3.17655,1.58827,3.17655,0V58.71532c0-3.69289-1.59851-7.705-5.86668-8.08749-3.32562-.2978-6.73546-.099-10.07052-.099H180.7889c-3.69258,0-8.28136.13306-9.5008,4.57528-.64122,2.33371-.35892,4.92521-.35892,7.32252v42.39655c0,3.52908.536,6.83841,4.136,8.548,2.71556,1.28923,7.056.68867,9.9236.68867h15.595c3.42067,0,7.62.43367,9.89771-2.78878a7.92077,7.92077,0,0,0,1.43037-4.17094C212.10585,104.93955,208.7413,104.92542,208.54912,107.06727Z" transform="translate(-5.4195 -3)"/><line class="cls-4" x1="167.41562" y1="58.6468" x2="204.58125" y2="58.6468"/><path class="cls-2" d="M172.83511,63.55273h37.16564c1.90593,0,1.90593-3.4942,0-3.4942H172.83511a1.749,1.749,0,0,0,0,3.4942Z" transform="translate(-5.4195 -3)"/><line class="cls-4" x1="167.41562" y1="99.62429" x2="204.58125" y2="99.62429"/><path class="cls-2" d="M172.83511,104.53022h37.16564c1.90593,0,1.90593-3.4942,0-3.4942H172.83511a1.749,1.749,0,0,0,0,3.4942Z" transform="translate(-5.4195 -3)"/><path class="cls-4" d="M191.962,107.40834a.48486.48486,0,1,1-.48471-.48516A.48472.48472,0,0,1,191.962,107.40834Z" transform="translate(-5.4195 -3)"/><path class="cls-3" d="M190.28069,107.40834a1.22532,1.22532,0,0,1,1.19664-1.19632,1.19626,1.19626,0,1,1-1.19664,1.19632,1.71326,1.71326,0,0,0,1.68135,1.68135,1.68586,1.68586,0,0,0,1.68147-1.68135,2.30629,2.30629,0,0,0-.60659-1.50156,2.34309,2.34309,0,0,0-1.55959-.66494,2.076,2.076,0,0,0-1.50143.60662,2.34329,2.34329,0,0,0-.66476,1.55988,2.07178,2.07178,0,0,0,.6066,1.50127,2.34291,2.34291,0,0,0,1.55959.6651,2.074,2.074,0,0,0,1.50111-.60662,2.34409,2.34409,0,0,0,.66507-1.55975A1.68565,1.68565,0,0,0,191.962,105.727,1.71314,1.71314,0,0,0,190.28069,107.40834Z" transform="translate(-5.4195 -3)"/><rect class="cls-1" x="169.95686" y="156.80219" width="91.80229" height="65.11927"/><path class="cls-2" d="M267.17864,223.01553H175.93132a18.43015,18.43015,0,0,0,1.66862,1.75269V159.53231a16.27416,16.27416,0,0,0-1.66862,1.5405H267.3961c-.56088-.63531-1.17042-.98-1.48808-1.5405v65.38915c0,1.58828,3.17655,1.58828,3.17655,0V159.53231a1.961,1.961,0,0,0-1.68847-1.9537H175.93132a2.08255,2.08255,0,0,0-1.82559,1.9537v65.23591c0,.917.90906,1.10621,1.82559,1.10621h91.24732C269.71988,225.87443,269.71988,223.01553,267.17864,223.01553Z" transform="translate(-5.4195 -3)"/><rect class="cls-1" x="205.21656" y="191.10893" width="21.28288" height="21.91819"/><path class="cls-3" d="M231.91894,214.12119H210.90282a19.98316,19.98316,0,0,0,1.63917,1.90406V193.83162a9.35239,9.35239,0,0,1-1.63917,1.23027h21.52176a9.8938,9.8938,0,0,1-1.77626-1.23027v22.1955a1.75372,1.75372,0,1,0,3.4942,0v-22.1955a1.68422,1.68422,0,0,0-1.71794-1.62862H210.90282a1.53311,1.53311,0,0,0-1.53738,1.62862v22.19363a1.79217,1.79217,0,0,0,1.53738,1.9078h21.01612A1.91917,1.91917,0,1,0,231.91894,214.12119Z" transform="translate(-5.4195 -3)"/><line class="cls-4" x1="169.95686" y1="166.96715" x2="261.75915" y2="166.96715"/><path class="cls-2" d="M175.37635,171.23777h91.80229a1.749,1.749,0,0,0,0-3.4942H175.37635c-1.90593,0-1.90593,3.4942,0,3.4942Z" transform="translate(-5.4195 -3)"/><path class="cls-4" d="M183.95971,164.77981a.55009.55009,0,1,1-.55031-.5503A.55016.55016,0,0,1,183.95971,164.77981Z" transform="translate(-5.4195 -3)"/><path class="cls-3" d="M182.27836,164.77981a1.13126,1.13126,0,1,1,1.131,1.13073,1.1418,1.1418,0,0,1-1.131-1.13073,1.71086,1.71086,0,0,0,1.68135,1.68135,1.68583,1.68583,0,0,0,1.68118-1.68135,2.29464,2.29464,0,0,0-2.23149-2.23165,2.247,2.247,0,0,0-1.57773.65361,2.28849,2.28849,0,0,0-.65348,1.578,2.24849,2.24849,0,0,0,.65348,1.57773,2.2841,2.2841,0,0,0,1.57773.65332,2.249,2.249,0,0,0,1.57817-.65332,2.28286,2.28286,0,0,0,.65332-1.57773,1.686,1.686,0,0,0-1.68118-1.68131A1.71124,1.71124,0,0,0,182.27836,164.77981Z" transform="translate(-5.4195 -3)"/><path class="cls-4" d="M190.01252,164.77981a.55008.55008,0,1,1-.5503-.5503A.55015.55015,0,0,1,190.01252,164.77981Z" transform="translate(-5.4195 -3)"/><path class="cls-3" d="M188.33133,164.77981a1.13127,1.13127,0,1,1,1.13089,1.13073,1.14157,1.14157,0,0,1-1.13089-1.13073,1.7106,1.7106,0,0,0,1.68119,1.68135,1.68617,1.68617,0,0,0,1.68135-1.68135,2.29489,2.29489,0,0,0-2.23165-2.23165,2.24634,2.24634,0,0,0-1.57757.65361,2.28722,2.28722,0,0,0-.65364,1.578,2.24728,2.24728,0,0,0,.65364,1.57773,2.28311,2.28311,0,0,0,1.57757.65332,2.249,2.249,0,0,0,1.57817-.65332,2.283,2.283,0,0,0,.65348-1.57773,1.68635,1.68635,0,0,0-1.68135-1.68131A1.711,1.711,0,0,0,188.33133,164.77981Z" transform="translate(-5.4195 -3)"/><path class="cls-4" d="M196.06534,164.77981a.55008.55008,0,1,1-.55033-.5503A.55026.55026,0,0,1,196.06534,164.77981Z" transform="translate(-5.4195 -3)"/><path class="cls-3" d="M194.384,164.77981a1.13133,1.13133,0,1,1,1.131,1.13073,1.14179,1.14179,0,0,1-1.131-1.13073,1.7107,1.7107,0,0,0,1.68134,1.68135,1.686,1.686,0,0,0,1.68132-1.68135,2.29488,2.29488,0,0,0-2.23165-2.23165,2.24616,2.24616,0,0,0-1.57757.65361,2.28646,2.28646,0,0,0-.65345,1.578,2.24654,2.24654,0,0,0,.65345,1.57773,2.28351,2.28351,0,0,0,1.57757.65332,2.249,2.249,0,0,0,1.578-.65332,2.283,2.283,0,0,0,.65361-1.57773,1.68622,1.68622,0,0,0-1.68132-1.68131A1.71121,1.71121,0,0,0,194.384,164.77981Z" transform="translate(-5.4195 -3)"/><path class="cls-1" d="M213.81261,188.07348v-2.98484a6.81552,6.81552,0,0,1,6.82958-6.72536h0a6.81533,6.81533,0,0,1,6.82958,6.72536v8.385" transform="translate(-5.4195 -3)"/><path class="cls-3" d="M215.94715,188.07348s-.20473-3.9406.81742-5.76245c2.05265-3.6577,7.13948-2.478,8.89961.65825.80221,1.43008.537,3.85436.537,5.42805v5.07629c0,1.58827,3.19671,1.58827,3.19671,0,0-5.40014,1.176-11.8525-3.95239-15.526-3.23331-2.31479-7.65072-1.29295-10.39884,1.17011-2.6008,2.33279-2.46247,6.09688-2.46247,8.95577,0,1.90593,3.363,1.90593,3.363,0Z" transform="translate(-5.4195 -3)"/><path class="cls-1" d="M100.99655,190.204a21.56929,21.56929,0,0,0,1.62842-8.24693A20.52976,20.52976,0,0,0,82.11266,161.424a21.604,21.604,0,0,0-12.22413,3.77927,21.15175,21.15175,0,0,0-17.44465-15.53778v20.30168h6.80273l-10.42429,20.8489-11.09683-20.8489h5.50639V150.12953A21.70819,21.70819,0,0,0,27.7003,171.00264c0,.11353.28043.23513.28214.55279h-.34821c-8.72684,0-16.16785,6.64222-16.16785,15.36967v.005c0,8.72713,7.441,16.39087,16.16785,16.39087H85.47875A16.06024,16.06024,0,0,0,100.99655,190.204Z" transform="translate(-5.4195 -3)"/><path class="cls-2" d="M102.61786,190.5254a22.63306,22.63306,0,0,0-6.78181-26.05206c-7.63506-6.1614-18.57474-6.10959-26.589-.73769q1.23495.50206,2.46973,1.00446a23.26915,23.26915,0,0,0-18.4136-16.69551,1.70807,1.70807,0,0,0-2.1299,1.62087v19.77587a1.80278,1.80278,0,0,0,1.68426,1.79643h6.38909c-.48423-.953-.9677-1.793-1.45162-2.63555-3.47482,6.9487-6.94978,14.07113-10.42445,20.74188H50.2741c-3.69909-6.67075-7.39787-13.79318-11.09683-20.74188-.48392.84255-.96767,1.68259-1.45178,2.63555H43.442a1.81277,1.81277,0,0,0,1.69577-1.79643V150.12953a1.70043,1.70043,0,0,0-2.13518-1.62115,24.54274,24.54274,0,0,0-13.17214,9.9258,23.08562,23.08562,0,0,0-3.28884,8.20223,23.84775,23.84775,0,0,0-.41628,4.31846,1.66746,1.66746,0,0,0,.22893.84842c.76374,1.3041.004.15292-.05321-.344q.84081-.84037,1.68148-1.68135A17.414,17.414,0,0,0,13.3281,197.00629c5.15058,7.804,13.485,7.58525,21.65733,7.58525H85.46852a17.76261,17.76261,0,0,0,17.14934-14.14527c.467-2.11345-2.77453-2.95753-3.24246-.841-1.49864,6.77933-7.07342,11.80968-14.147,11.80968H27.675c-7.95735,0-13.9385-6.76878-14.16077-14.471-.23081-7.99719,6.889-13.79627,14.4682-13.79627a1.68584,1.68584,0,0,0,1.68116-1.68538,2.32078,2.32078,0,0,0-1.00941-1.95742q.41621.72592.83276,1.45086A20.44081,20.44081,0,0,1,43.8306,151.75164c-.70945-.54071-1.55168-1.08139-2.187-1.62211v19.31181c.63531-.55993,1.2379-.74481,1.79843-1.69777H37.72549a1.70577,1.70577,0,0,0-1.45178,2.53844q5.54841,10.42491,11.09683,20.85262a1.6928,1.6928,0,0,0,2.90356.00187q5.212-10.42353,10.42429-20.85541a1.70677,1.70677,0,0,0-1.45178-2.53752H52.85752c.56057.953,1.17463,1.13784,1.80994,1.69777V149.66547c-.63531.54068-1.4831,1.08076-2.19271,1.62176a19.9184,19.9184,0,0,1,16.03163,14.3466,1.67921,1.67921,0,0,0,2.4536,1.00509,19.35167,19.35167,0,0,1,23.18758.76218c6.66923,5.3812,8.2488,14.47656,5.23171,22.22962C98.59193,191.65485,101.84046,192.52313,102.61786,190.5254Z" transform="translate(-5.4195 -3)"/><path class="cls-1" d="M116.75163,202.68561h-.34805c.0014-.31765.00854-.53636.00854-.64925a21.53374,21.53374,0,0,0-42.29-5.87633,20.46487,20.46487,0,0,0-32.36154,16.67968,21.55807,21.55807,0,0,0,1.62858,8.24384,16.001,16.001,0,0,0,15.518,13.04991h23.714v-15.5651h-5.216l11.09683-20.84858L98.926,218.56836H92.15075v15.5651h24.60088c8.72684,0,15.106-7.53935,15.106-16.26648v-.00559C131.85762,209.13426,125.47847,202.68561,116.75163,202.68561Z" transform="translate(-5.4195 -3)"/><path class="cls-2" d="M116.92784,200.77968h-.52426a10.69092,10.69092,0,0,1,1.68118,1.64847A23.65071,23.65071,0,0,0,99.8959,179.16923c-12.03769-2.885-23.99518,4.95869-27.39478,16.51527.823-.33411,1.64628-.67349,2.46958-1.00821A22.234,22.234,0,0,0,41.76784,221.462c1.03066,2.64857,1.52748,4.905,3.36114,7.21486,5.22688,6.58544,12.22768,6.72721,19.86119,6.72721h18.1313c.91681,0,1.72321-.48239,1.72321-1.39937V217.86418a1.87455,1.87455,0,0,0-1.72321-1.83706H77.40508c.48407.63531.9677,1.95123,1.45161,2.79438,3.69894-6.9487,7.39806-14.23,11.097-20.58306H87.05c3.47467,6.3531,6.94962,13.63436,10.42429,20.58306.48408-.84315.96787-2.15907,1.45178-2.79438H92.53711a1.81788,1.81788,0,0,0-1.657,1.83706v16.14053c0,.917.74032,1.39937,1.657,1.39937h14.40616c5.044,0,10.69993.78978,15.54461-.87975,7.66809-2.643,12.35055-11.1353,11.24838-19.018-1.216-8.702-8.30572-14.58828-16.98463-14.82712-2.16977-.05956-2.164,3.32079,0,3.38067a13.98208,13.98208,0,0,1,13.61746,16.214,14.2831,14.2831,0,0,1-14.18142,12.2713H92.53711a12.81617,12.81617,0,0,1,1.83722,1.45953V217.86418a15.65567,15.65567,0,0,1-1.83722,1.65715H98.926a1.69148,1.69148,0,0,0,1.45194-2.51767q-5.212-10.424-10.42429-20.84239a1.693,1.693,0,0,0-2.90372.00251q-5.54822,10.42395-11.09667,20.838a1.69123,1.69123,0,0,0,1.45178,2.51952h5.71639a15.50537,15.50537,0,0,1-1.771-1.65715v16.14053a12.57955,12.57955,0,0,1,1.771-1.45953H69.36767c-4.98194,0-10.71278.59964-15.49511-1.05287-5.68012-1.96329-7.33307-6.93968-9.2821-11.94926a19.262,19.262,0,0,1,1.42262-16.18614c5.46233-9.79768,18.32688-11.77928,27.26045-5.768a1.69683,1.69683,0,0,0,2.46989-1.01068A20.09528,20.09528,0,0,1,99.0019,182.3988c9.40154,1.8349,15.78827,10.598,15.72033,19.93812a1.64318,1.64318,0,0,0,1.68135,1.61931h.52426C119.46908,203.95623,119.46908,200.77968,116.92784,200.77968Z" transform="translate(-5.4195 -3)"/></svg>