<?xml version="1.0" encoding="UTF-8" standalone="no"?>
<svg
   xmlns:dc="http://purl.org/dc/elements/1.1/"
   xmlns:cc="http://creativecommons.org/ns#"
   xmlns:rdf="http://www.w3.org/1999/02/22-rdf-syntax-ns#"
   xmlns:svg="http://www.w3.org/2000/svg"
   xmlns="http://www.w3.org/2000/svg"
   xmlns:sodipodi="http://sodipodi.sourceforge.net/DTD/sodipodi-0.dtd"
   xmlns:inkscape="http://www.inkscape.org/namespaces/inkscape"
   width="420px"
   height="250px"
   viewBox="0 0 420 250"
   version="1.1"
   id="SVGRoot"
   sodipodi:docname="content-stock4.svg"
   inkscape:version="1.0.1 (3bc2e813f5, 2020-09-07)">
  <defs
     id="defs500">
    <clipPath
       clipPathUnits="userSpaceOnUse"
       id="clipPath60">
      <path
         d="M 0,980 H 1400 V 0 H 0 Z"
         id="path58" />
    </clipPath>
  </defs>
  <sodipodi:namedview
     id="base"
     pagecolor="#ffffff"
     bordercolor="#666666"
     borderopacity="1.0"
     inkscape:pageopacity="0.0"
     inkscape:pageshadow="2"
     inkscape:zoom="7.9195959"
     inkscape:cx="119.25373"
     inkscape:cy="28.647177"
     inkscape:document-units="px"
     inkscape:current-layer="layer1"
     inkscape:document-rotation="0"
     showgrid="false"
     inkscape:window-width="1920"
     inkscape:window-height="1017"
     inkscape:window-x="1912"
     inkscape:window-y="-8"
     inkscape:window-maximized="1" />
  <metadata
     id="metadata503">
    <rdf:RDF>
      <cc:Work
         rdf:about="">
        <dc:format>image/svg+xml</dc:format>
        <dc:type
           rdf:resource="http://purl.org/dc/dcmitype/StillImage" />
        <dc:title></dc:title>
      </cc:Work>
    </rdf:RDF>
  </metadata>
  <g
     inkscape:label="Layer 1"
     inkscape:groupmode="layer"
     id="layer1">
    <g
       id="g54"
       transform="matrix(0.2993269,0,0,-0.25632167,0.08520805,250.19526)">
      <g
         id="g56"
         clip-path="url(#clipPath60)">
        <g
           id="g62"
           transform="translate(508.7129,274.1426)">
          <path
             d="m 0,0 c 0,0 -71.387,-80.044 -71.387,-117.804 l 61.458,13.397 64.229,75.655 z"
             style="fill:#efb978;fill-opacity:1;fill-rule:nonzero;stroke:none"
             id="path64" />
        </g>
        <g
           id="g66"
           transform="translate(508.2622,297.0244)">
          <path
             d="m 0,0 c -12.636,-12.637 -12.638,-33.127 -0.001,-45.762 l 12.203,-12.203 c 12.637,-12.639 33.127,-12.635 45.763,0 l 80.864,80.863 c 12.635,12.637 12.636,33.126 -0.001,45.761 L 126.625,80.863 C 113.989,93.5 93.5,93.5 80.863,80.863 Z"
             style="fill:#c64738;fill-opacity:1;fill-rule:nonzero;stroke:none"
             id="path68" />
        </g>
        <g
           id="g70"
           transform="translate(891.2871,274.1426)">
          <path
             d="M 0,0 C 0,0 71.387,-80.044 71.387,-117.804 L 9.928,-104.407 -54.3,-28.752 Z"
             style="fill:#efb978;fill-opacity:1;fill-rule:nonzero;stroke:none"
             id="path72" />
        </g>
        <g
           id="g74"
           transform="translate(891.7383,297.0244)">
          <path
             d="m 0,0 c 12.636,-12.637 12.637,-33.127 0.001,-45.762 l -12.204,-12.203 c -12.637,-12.639 -33.127,-12.635 -45.763,0 l -80.863,80.863 c -12.636,12.637 -12.638,33.126 0,45.761 l 12.204,12.204 c 12.637,12.637 33.125,12.637 45.762,0 z"
             style="fill:#c64738;fill-opacity:1;fill-rule:nonzero;stroke:none"
             id="path76" />
        </g>
        <g
           id="g78"
           transform="translate(795.5625,221.8174)">
          <path
             d="M 0,0 C 2.857,-15.616 -7.484,-30.594 -23.1,-33.453 L -324.312,-88.58 c -15.617,-2.859 -30.592,7.486 -33.45,23.101 -2.857,15.616 7.483,30.588 23.099,33.448 L -33.449,23.098 C -17.833,25.955 -2.857,15.615 0,0"
             style="fill:#f5c688;fill-opacity:1;fill-rule:nonzero;stroke:none"
             id="path80" />
        </g>
        <g
           id="g82"
           transform="translate(604.437,221.8174)">
          <path
             d="M 0,0 C -2.858,-15.616 7.484,-30.594 23.1,-33.453 L 324.313,-88.58 c 15.616,-2.859 30.592,7.486 33.449,23.101 2.858,15.616 -7.482,30.588 -23.099,33.448 L 33.45,23.098 C 17.833,25.955 2.858,15.615 0,0"
             style="fill:#f5c688;fill-opacity:1;fill-rule:nonzero;stroke:none"
             id="path84" />
        </g>
        <g
           id="g86"
           transform="translate(889.5859,140.1582)">
          <path
             d="m 0,0 c 0,-4.085 -3.311,-7.396 -7.396,-7.396 h -366.771 c -4.083,0 -7.395,3.311 -7.395,7.396 v 22.183 c 0,4.084 3.312,7.394 7.395,7.394 H -7.396 C -3.311,29.577 0,26.267 0,22.183 Z"
             style="fill:#c7d1cf;fill-opacity:1;fill-rule:nonzero;stroke:none"
             id="path88" />
        </g>
        <g
           id="g90"
           transform="translate(836.2812,161.0693)">
          <path
             d="m 0,0 c 0,-45.554 -36.93,-22.48 -82.485,-22.48 h -109.981 c -45.554,0 -82.485,-23.074 -82.485,22.48 v 154.457 c 0,45.553 36.931,82.484 82.485,82.484 H -82.485 C -36.93,236.941 0,200.01 0,154.457 Z"
             style="fill:#c64738;fill-opacity:1;fill-rule:nonzero;stroke:none"
             id="path92" />
        </g>
        <g
           id="g94"
           transform="translate(595.3755,539.0996)">
          <path
             d="m 0,0 c 0,0 8.976,-81.994 -17.7,-107.047 0,0 60.935,-18.972 121.13,-18.972 L 91.962,-20.642 Z"
             style="fill:#835130;fill-opacity:1;fill-rule:nonzero;stroke:none"
             id="path96" />
        </g>
        <g
           id="g98"
           transform="translate(802.4297,539.0996)">
          <path
             d="m 0,0 c 0,0 -8.977,-81.994 17.699,-107.047 0,0 -60.933,-18.972 -121.129,-18.972 l 11.467,105.377 z"
             style="fill:#835130;fill-opacity:1;fill-rule:nonzero;stroke:none"
             id="path100" />
        </g>
        <g
           id="g102"
           transform="translate(727.1738,380.9912)">
          <path
             d="m 0,0 c 0,-11.752 -9.526,-21.279 -21.276,-21.279 h -14.185 c -11.75,0 -21.276,9.527 -21.276,21.279 v 64.182 c 0,11.752 9.526,21.277 21.276,21.277 h 14.185 C -9.526,85.459 0,75.934 0,64.182 Z"
             style="fill:#efb978;fill-opacity:1;fill-rule:nonzero;stroke:none"
             id="path104" />
        </g>
        <path
           d="M 727.174,415.388 H 670.46 v 16.665 h 56.714 z"
           style="fill:#ddaa72;fill-opacity:1;fill-rule:nonzero;stroke:none"
           id="path106" />
        <g
           id="g108"
           transform="translate(802.2344,518.4697)">
          <path
             d="M 0,0 V 59.834 C 0,115.108 -44.814,159.92 -100.093,159.92 h -6.674 c -55.278,0 -100.092,-44.812 -100.092,-100.086 V -0.195 Z"
             style="fill:#835130;fill-opacity:1;fill-rule:nonzero;stroke:none"
             id="path110" />
        </g>
        <g
           id="g112"
           transform="translate(631.5771,506.5225)">
          <path
             d="m 0,0 c 0,-14.887 -12.066,-26.951 -26.951,-26.951 -14.884,0 -26.95,12.064 -26.95,26.951 0,14.885 12.066,26.949 26.95,26.949 C -12.066,26.949 0,14.885 0,0"
             style="fill:#efb978;fill-opacity:1;fill-rule:nonzero;stroke:none"
             id="path114" />
        </g>
        <g
           id="g116"
           transform="translate(819.9346,506.5225)">
          <path
             d="m 0,0 c 0,-14.887 -12.067,-26.951 -26.95,-26.951 -14.885,0 -26.951,12.064 -26.951,26.951 0,14.885 12.066,26.949 26.951,26.949 C -12.067,26.949 0,14.885 0,0"
             style="fill:#efb978;fill-opacity:1;fill-rule:nonzero;stroke:none"
             id="path118" />
        </g>
        <g
           id="g120"
           transform="translate(808.0488,506.5225)">
          <path
             d="m 0,0 c 0,-8.319 -6.746,-15.064 -15.064,-15.064 -8.32,0 -15.065,6.745 -15.065,15.064 0,8.318 6.745,15.064 15.065,15.064 C -6.746,15.064 0,8.318 0,0"
             style="fill:#ddaa72;fill-opacity:1;fill-rule:nonzero;stroke:none"
             id="path122" />
        </g>
        <g
           id="g124"
           transform="translate(619.6904,506.5225)">
          <path
             d="m 0,0 c 0,-8.319 -6.744,-15.064 -15.064,-15.064 -8.319,0 -15.064,6.745 -15.064,15.064 0,8.318 6.745,15.064 15.064,15.064 C -6.744,15.064 0,8.318 0,0"
             style="fill:#ddaa72;fill-opacity:1;fill-rule:nonzero;stroke:none"
             id="path126" />
        </g>
        <g
           id="g128"
           transform="translate(790.0527,512.6084)">
          <path
             d="m 0,0 c 0,-48.768 -39.536,-88.303 -88.305,-88.303 h -5.887 c -48.768,0 -88.303,39.535 -88.303,88.303 v 52.982 c 0,48.77 39.535,88.302 88.303,88.302 h 5.887 C -39.536,141.284 0,101.752 0,52.982 Z"
             style="fill:#f5c688;fill-opacity:1;fill-rule:nonzero;stroke:none"
             id="path130" />
        </g>
        <g
           id="g132"
           transform="translate(698.8047,461.6201)">
          <path
             d="M 0,0 C 5.335,0 9.66,4.325 9.66,9.66 H -9.66 C -9.66,4.325 -5.335,0 0,0"
             style="fill:#c64738;fill-opacity:1;fill-rule:nonzero;stroke:none"
             id="path134" />
        </g>
        <g
           id="g136"
           transform="translate(698.8047,449.0752)">
          <path
             d="M 0,0 C -3.446,0 -6.239,-2.794 -6.239,-6.239 H 6.239 C 6.239,-2.794 3.445,0 0,0"
             style="fill:#efb978;fill-opacity:1;fill-rule:nonzero;stroke:none"
             id="path138" />
        </g>
        <g
           id="g140"
           transform="translate(669.0337,541.3916)">
          <path
             d="m 0,0 c 0,-4.373 -3.546,-7.92 -7.919,-7.92 -4.373,0 -7.92,3.547 -7.92,7.92 0,4.372 3.547,7.919 7.92,7.919 C -3.546,7.919 0,4.372 0,0"
             style="fill:#281822;fill-opacity:1;fill-rule:nonzero;stroke:none"
             id="path142" />
        </g>
        <g
           id="g144"
           transform="translate(744.415,541.3916)">
          <path
             d="m 0,0 c 0,-4.373 -3.546,-7.92 -7.919,-7.92 -4.374,0 -7.92,3.547 -7.92,7.92 0,4.372 3.546,7.919 7.92,7.919 C -3.546,7.919 0,4.372 0,0"
             style="fill:#281822;fill-opacity:1;fill-rule:nonzero;stroke:none"
             id="path146" />
        </g>
        <g
           id="g148"
           transform="translate(707.5518,509.7119)">
          <path
             d="m 0,0 c 0,-4.829 -3.915,-8.746 -8.747,-8.746 -4.831,0 -8.747,3.917 -8.747,8.746 v 22.934 c 0,4.83 3.916,8.746 8.747,8.746 C -3.915,31.68 0,27.764 0,22.934 Z"
             style="fill:#efb978;fill-opacity:1;fill-rule:nonzero;stroke:none"
             id="path150" />
        </g>
        <g
           id="g152"
           transform="translate(710.2715,518.458)">
          <path
             d="m 0,0 c 4.83,0 8.746,-3.914 8.746,-8.744 0,-4.831 -3.916,-8.748 -8.746,-8.748 h -22.934 c -4.829,0 -8.746,3.917 -8.746,8.748 0,4.83 3.917,8.744 8.746,8.744 z"
             style="fill:#efb978;fill-opacity:1;fill-rule:nonzero;stroke:none"
             id="path154" />
        </g>
        <g
           id="g156"
           transform="translate(749.2617,565.8584)">
          <path
             d="m 0,0 c 0,-1.827 -1.481,-3.309 -3.31,-3.309 h -18.913 c -1.828,0 -3.309,1.482 -3.309,3.309 0,1.828 1.481,3.312 3.309,3.312 H -3.31 C -1.481,3.312 0,1.828 0,0"
             style="fill:#281822;fill-opacity:1;fill-rule:nonzero;stroke:none"
             id="path158" />
        </g>
        <g
           id="g160"
           transform="translate(673.8799,565.8584)">
          <path
             d="m 0,0 c 0,-1.827 -1.481,-3.309 -3.31,-3.309 h -18.913 c -1.828,0 -3.309,1.482 -3.309,3.309 0,1.828 1.481,3.312 3.309,3.312 H -3.31 C -1.481,3.312 0,1.828 0,0"
             style="fill:#281822;fill-opacity:1;fill-rule:nonzero;stroke:none"
             id="path162" />
        </g>
        <g
           id="g164"
           transform="translate(607.5581,533.4717)">
          <path
             d="m 0,0 h 6.518 c 0,0 21.074,65.051 21.074,96.238 v 10.383 L -2.932,73.523 -6.721,35.698 Z"
             style="fill:#835130;fill-opacity:1;fill-rule:nonzero;stroke:none"
             id="path166" />
        </g>
        <g
           id="g168"
           transform="translate(793.625,533.4717)">
          <path
             d="m 0,0 h -6.518 c 0,0 -21.074,65.051 -21.074,96.238 v 10.383 L 2.932,73.523 6.722,35.698 Z"
             style="fill:#835130;fill-opacity:1;fill-rule:nonzero;stroke:none"
             id="path170" />
        </g>
        <g
           id="g172"
           transform="translate(636.5381,627.7998)">
          <path
             d="m 0,0 c 0,0 35.873,-48.021 153.515,-48.021 0,0 -1.061,88.3 -94.193,88.3 C -33.81,40.279 0,0 0,0"
             style="fill:#835130;fill-opacity:1;fill-rule:nonzero;stroke:none"
             id="path174" />
        </g>
        <g
           id="g176"
           transform="translate(853.0527,154.0381)">
          <path
             d="m 0,0 c 0,-11.75 -9.525,-21.275 -21.276,-21.275 h -265.943 c -11.751,0 -21.276,9.525 -21.276,21.275 v 164.549 c 0,11.75 9.525,21.276 21.276,21.276 H -21.276 C -9.525,185.825 0,176.299 0,164.549 Z"
             style="fill:#d8e4e2;fill-opacity:1;fill-rule:nonzero;stroke:none"
             id="path178" />
        </g>
        <path
           d="M 1252,101.073 H 148 v 30.581 h 1104 z"
           style="fill:#d8c5a3;fill-opacity:1;fill-rule:nonzero;stroke:none"
           id="path180" />
        <g
           id="g182"
           transform="translate(1104.0146,562.5605)">
          <path
             d="m 0,0 -13.559,54.706 c 0,3.031 -3.977,5.488 -8.882,5.488 h -18.647 c -4.905,0 -8.883,-2.457 -8.883,-5.488 L -63.529,0 c -1.218,-1.521 -1.95,-3.446 -1.95,-5.546 v -101.27 c 0,-4.907 3.977,-8.884 8.883,-8.884 h 49.662 c 4.906,0 8.883,3.977 8.883,8.884 V -5.546 C 1.949,-3.446 1.217,-1.521 0,0"
             style="fill:#f7eddc;fill-opacity:1;fill-rule:nonzero;stroke:none"
             id="path184" />
        </g>
        <g
           id="g186"
           transform="translate(1099.2705,560.2148)">
          <path
             d="M 0,0 -9.991,40.314 H -44.05 L -54.041,0 l -0.71,-0.886 c -0.372,-0.464 -0.815,-1.243 -0.815,-2.314 v -101.271 c 0,-2.049 1.666,-3.715 3.714,-3.715 h 49.663 c 2.047,0 3.714,1.666 3.714,3.715 V -3.2 c 0,1.071 -0.443,1.85 -0.815,2.314 z"
             style="fill:#0d47a1;fill-opacity:1;fill-rule:nonzero;stroke:none"
             id="path188" />
        </g>
        <path
           d="m 1105.964,480.096 h -67.952 v 64.094 h 67.952 z"
           style="fill:#d8c5a3;fill-opacity:1;fill-rule:nonzero;stroke:none"
           id="path190" />
        <g
           id="g192"
           transform="translate(1097.4521,512.1426)">
          <path
             d="m 0,0 c 0,-14.064 -11.4,-25.465 -25.464,-25.465 -14.064,0 -25.465,11.401 -25.465,25.465 0,14.064 11.401,25.465 25.465,25.465 C -11.4,25.465 0,14.064 0,0"
             style="fill:#6ba152;fill-opacity:1;fill-rule:nonzero;stroke:none"
             id="path194" />
        </g>
        <g
           id="g196"
           transform="translate(1094.7598,512.1426)">
          <path
             d="m 0,0 c 0,-12.576 -10.196,-22.771 -22.771,-22.771 -12.577,0 -22.772,10.195 -22.772,22.771 0,12.576 10.195,22.771 22.772,22.771 C -10.196,22.771 0,12.576 0,0"
             style="fill:#f2e3c4;fill-opacity:1;fill-rule:nonzero;stroke:none"
             id="path198" />
        </g>
        <g
           id="g200"
           transform="translate(1092.5557,512.1426)">
          <path
             d="m 0,0 c 0,-11.359 -9.208,-20.568 -20.567,-20.568 -11.36,0 -20.568,9.209 -20.568,20.568 0,11.358 9.208,20.567 20.568,20.567 C -9.208,20.567 0,11.358 0,0"
             style="fill:#0d47a1;fill-opacity:1;fill-rule:nonzero;stroke:none"
             id="path202" />
        </g>
        <g
           id="g204"
           transform="translate(1080.3125,512.1426)">
          <path
             d="m 0,0 c 0,-4.597 -3.728,-8.324 -8.324,-8.324 -4.598,0 -8.325,3.727 -8.325,8.324 0,4.597 3.727,8.324 8.325,8.324 C -3.728,8.324 0,4.597 0,0"
             style="fill:#d86e66;fill-opacity:1;fill-rule:nonzero;stroke:none"
             id="path206" />
        </g>
        <g
           id="g208"
           transform="translate(1073.1924,528.1914)">
          <path
             d="m 0,0 c 0,-1.286 -0.539,-3.613 -1.204,-3.613 -0.666,0 -1.205,2.327 -1.205,3.613 0,1.286 0.539,1.044 1.205,1.044 C -0.539,1.044 0,1.286 0,0"
             style="fill:#f2e3c4;fill-opacity:1;fill-rule:nonzero;stroke:none"
             id="path210" />
        </g>
        <g
           id="g212"
           transform="translate(1070.7832,496.0937)">
          <path
             d="M 0,0 C 0,1.285 0.539,3.613 1.205,3.613 1.87,3.613 2.409,1.285 2.409,0 2.409,-1.286 1.87,-1.044 1.205,-1.044 0.539,-1.044 0,-1.286 0,0"
             style="fill:#f2e3c4;fill-opacity:1;fill-rule:nonzero;stroke:none"
             id="path214" />
        </g>
        <g
           id="g216"
           transform="translate(1088.0371,510.9375)">
          <path
             d="M 0,0 C -1.286,0 -3.613,0.539 -3.613,1.205 -3.613,1.87 -1.286,2.409 0,2.409 1.285,2.409 1.044,1.87 1.044,1.205 1.044,0.539 1.285,0 0,0"
             style="fill:#f2e3c4;fill-opacity:1;fill-rule:nonzero;stroke:none"
             id="path218" />
        </g>
        <g
           id="g220"
           transform="translate(1055.9385,513.3477)">
          <path
             d="M 0,0 C 1.286,0 3.613,-0.54 3.613,-1.205 3.613,-1.87 1.286,-2.41 0,-2.41 c -1.285,0 -1.043,0.54 -1.043,1.205 C -1.043,-0.54 -1.285,0 0,0"
             style="fill:#f2e3c4;fill-opacity:1;fill-rule:nonzero;stroke:none"
             id="path222" />
        </g>
        <g
           id="g224"
           transform="translate(1084.1885,522.6387)">
          <path
             d="m 0,0 c -0.909,-0.909 -2.936,-2.173 -3.406,-1.703 -0.471,0.47 0.793,2.497 1.703,3.406 0.909,0.91 1.119,0.357 1.589,-0.113 C 0.356,1.12 0.909,0.91 0,0"
             style="fill:#f2e3c4;fill-opacity:1;fill-rule:nonzero;stroke:none"
             id="path226" />
        </g>
        <g
           id="g228"
           transform="translate(1059.7881,501.6455)">
          <path
             d="M 0,0 C 0.909,0.909 2.936,2.174 3.406,1.703 3.877,1.233 2.612,-0.794 1.703,-1.702 0.794,-2.612 0.584,-2.06 0.113,-1.59 -0.356,-1.119 -0.909,-0.909 0,0"
             style="fill:#f2e3c4;fill-opacity:1;fill-rule:nonzero;stroke:none"
             id="path230" />
        </g>
        <g
           id="g232"
           transform="translate(1082.4854,499.9414)">
          <path
             d="M 0,0 C -0.91,0.91 -2.174,2.938 -1.704,3.407 -1.234,3.878 0.793,2.613 1.703,1.704 2.612,0.795 2.06,0.585 1.589,0.114 1.119,-0.355 0.909,-0.909 0,0"
             style="fill:#f2e3c4;fill-opacity:1;fill-rule:nonzero;stroke:none"
             id="path234" />
        </g>
        <g
           id="g236"
           transform="translate(1061.4912,524.3418)">
          <path
             d="m 0,0 c 0.909,-0.908 2.174,-2.937 1.703,-3.406 -0.47,-0.47 -2.497,0.794 -3.406,1.703 -0.909,0.91 -0.357,1.12 0.113,1.59 C -1.119,0.357 -0.909,0.91 0,0"
             style="fill:#f2e3c4;fill-opacity:1;fill-rule:nonzero;stroke:none"
             id="path238" />
        </g>
        <path
           d="m 1091.326,612.4 h -38.153 v 19.658 h 38.153 z"
           style="fill:#f7eddc;fill-opacity:1;fill-rule:nonzero;stroke:none"
           id="path240" />
        <path
           d="m 1095.021,615.347 h -45.543 v 19.813 h 45.543 z"
           style="fill:#c64738;fill-opacity:1;fill-rule:nonzero;stroke:none"
           id="path242" />
        <path
           d="m 1076.141,615.347 h -2.594 v 11.155 h 2.594 z"
           style="fill:#aa3930;fill-opacity:1;fill-rule:nonzero;stroke:none"
           id="path244" />
        <path
           d="m 1081.328,615.347 h -2.595 v 11.155 h 2.595 z"
           style="fill:#aa3930;fill-opacity:1;fill-rule:nonzero;stroke:none"
           id="path246" />
        <path
           d="m 1086.516,615.347 h -2.595 v 11.155 h 2.595 z"
           style="fill:#aa3930;fill-opacity:1;fill-rule:nonzero;stroke:none"
           id="path248" />
        <path
           d="m 1091.702,615.347 h -2.594 v 11.155 h 2.594 z"
           style="fill:#aa3930;fill-opacity:1;fill-rule:nonzero;stroke:none"
           id="path250" />
        <path
           d="m 1055.392,615.347 h -2.594 v 11.155 h 2.594 z"
           style="fill:#aa3930;fill-opacity:1;fill-rule:nonzero;stroke:none"
           id="path252" />
        <path
           d="m 1060.579,615.347 h -2.595 v 11.155 h 2.595 z"
           style="fill:#aa3930;fill-opacity:1;fill-rule:nonzero;stroke:none"
           id="path254" />
        <path
           d="m 1065.766,615.347 h -2.594 v 11.155 h 2.594 z"
           style="fill:#aa3930;fill-opacity:1;fill-rule:nonzero;stroke:none"
           id="path256" />
        <path
           d="m 1070.953,615.347 h -2.594 v 11.155 h 2.594 z"
           style="fill:#aa3930;fill-opacity:1;fill-rule:nonzero;stroke:none"
           id="path258" />
        <g
           id="g260"
           transform="translate(1005.0684,562.5605)">
          <path
             d="m 0,0 -13.559,54.706 c 0,3.031 -3.977,5.488 -8.882,5.488 h -18.647 c -4.905,0 -8.883,-2.457 -8.883,-5.488 L -63.529,0 c -1.218,-1.521 -1.95,-3.446 -1.95,-5.546 v -101.27 c 0,-4.907 3.977,-8.884 8.883,-8.884 h 49.662 c 4.906,0 8.883,3.977 8.883,8.884 V -5.546 C 1.949,-3.446 1.217,-1.521 0,0"
             style="fill:#f7eddc;fill-opacity:1;fill-rule:nonzero;stroke:none"
             id="path262" />
        </g>
        <g
           id="g264"
           transform="translate(1000.3242,560.2148)">
          <path
             d="M 0,0 -9.991,40.314 H -44.05 L -54.041,0 l -0.71,-0.886 c -0.372,-0.464 -0.815,-1.243 -0.815,-2.314 v -101.271 c 0,-2.049 1.666,-3.715 3.714,-3.715 h 49.663 c 2.047,0 3.714,1.666 3.714,3.715 V -3.2 c 0,1.071 -0.443,1.85 -0.815,2.314 z"
             style="fill:#0d47a1;fill-opacity:1;fill-rule:nonzero;stroke:none"
             id="path266" />
        </g>
        <path
           d="m 1007.018,480.096 h -67.952 v 64.094 h 67.952 z"
           style="fill:#d8c5a3;fill-opacity:1;fill-rule:nonzero;stroke:none"
           id="path268" />
        <g
           id="g270"
           transform="translate(998.5059,512.1426)">
          <path
             d="m 0,0 c 0,-14.064 -11.4,-25.465 -25.464,-25.465 -14.064,0 -25.465,11.401 -25.465,25.465 0,14.064 11.401,25.465 25.465,25.465 C -11.4,25.465 0,14.064 0,0"
             style="fill:#6ba152;fill-opacity:1;fill-rule:nonzero;stroke:none"
             id="path272" />
        </g>
        <g
           id="g274"
           transform="translate(995.8135,512.1426)">
          <path
             d="m 0,0 c 0,-12.576 -10.196,-22.771 -22.771,-22.771 -12.577,0 -22.772,10.195 -22.772,22.771 0,12.576 10.195,22.771 22.772,22.771 C -10.196,22.771 0,12.576 0,0"
             style="fill:#f2e3c4;fill-opacity:1;fill-rule:nonzero;stroke:none"
             id="path276" />
        </g>
        <g
           id="g278"
           transform="translate(993.6094,512.1426)">
          <path
             d="m 0,0 c 0,-11.359 -9.208,-20.568 -20.567,-20.568 -11.36,0 -20.568,9.209 -20.568,20.568 0,11.358 9.208,20.567 20.568,20.567 C -9.208,20.567 0,11.358 0,0"
             style="fill:#0d47a1;fill-opacity:1;fill-rule:nonzero;stroke:none"
             id="path280" />
        </g>
        <g
           id="g282"
           transform="translate(981.3662,512.1426)">
          <path
             d="m 0,0 c 0,-4.597 -3.728,-8.324 -8.324,-8.324 -4.598,0 -8.325,3.727 -8.325,8.324 0,4.597 3.727,8.324 8.325,8.324 C -3.728,8.324 0,4.597 0,0"
             style="fill:#d86e66;fill-opacity:1;fill-rule:nonzero;stroke:none"
             id="path284" />
        </g>
        <g
           id="g286"
           transform="translate(974.2461,528.1914)">
          <path
             d="m 0,0 c 0,-1.286 -0.539,-3.613 -1.204,-3.613 -0.666,0 -1.205,2.327 -1.205,3.613 0,1.286 0.539,1.044 1.205,1.044 C -0.539,1.044 0,1.286 0,0"
             style="fill:#f2e3c4;fill-opacity:1;fill-rule:nonzero;stroke:none"
             id="path288" />
        </g>
        <g
           id="g290"
           transform="translate(971.8369,496.0937)">
          <path
             d="M 0,0 C 0,1.285 0.539,3.613 1.205,3.613 1.87,3.613 2.409,1.285 2.409,0 2.409,-1.286 1.87,-1.044 1.205,-1.044 0.539,-1.044 0,-1.286 0,0"
             style="fill:#f2e3c4;fill-opacity:1;fill-rule:nonzero;stroke:none"
             id="path292" />
        </g>
        <g
           id="g294"
           transform="translate(989.0908,510.9375)">
          <path
             d="M 0,0 C -1.286,0 -3.613,0.539 -3.613,1.205 -3.613,1.87 -1.286,2.409 0,2.409 1.285,2.409 1.044,1.87 1.044,1.205 1.044,0.539 1.285,0 0,0"
             style="fill:#f2e3c4;fill-opacity:1;fill-rule:nonzero;stroke:none"
             id="path296" />
        </g>
        <g
           id="g298"
           transform="translate(956.9922,513.3477)">
          <path
             d="M 0,0 C 1.286,0 3.613,-0.54 3.613,-1.205 3.613,-1.87 1.286,-2.41 0,-2.41 c -1.285,0 -1.043,0.54 -1.043,1.205 C -1.043,-0.54 -1.285,0 0,0"
             style="fill:#f2e3c4;fill-opacity:1;fill-rule:nonzero;stroke:none"
             id="path300" />
        </g>
        <g
           id="g302"
           transform="translate(985.2422,522.6387)">
          <path
             d="m 0,0 c -0.909,-0.909 -2.936,-2.173 -3.406,-1.703 -0.471,0.47 0.793,2.497 1.703,3.406 0.909,0.91 1.119,0.357 1.589,-0.113 C 0.356,1.12 0.909,0.91 0,0"
             style="fill:#f2e3c4;fill-opacity:1;fill-rule:nonzero;stroke:none"
             id="path304" />
        </g>
        <g
           id="g306"
           transform="translate(960.8418,501.6455)">
          <path
             d="M 0,0 C 0.909,0.909 2.936,2.174 3.406,1.703 3.877,1.233 2.612,-0.794 1.703,-1.702 0.794,-2.612 0.584,-2.06 0.113,-1.59 -0.356,-1.119 -0.909,-0.909 0,0"
             style="fill:#f2e3c4;fill-opacity:1;fill-rule:nonzero;stroke:none"
             id="path308" />
        </g>
        <g
           id="g310"
           transform="translate(983.5391,499.9414)">
          <path
             d="M 0,0 C -0.91,0.91 -2.174,2.938 -1.704,3.407 -1.234,3.878 0.793,2.613 1.703,1.704 2.612,0.795 2.06,0.585 1.589,0.114 1.119,-0.355 0.909,-0.909 0,0"
             style="fill:#f2e3c4;fill-opacity:1;fill-rule:nonzero;stroke:none"
             id="path312" />
        </g>
        <g
           id="g314"
           transform="translate(962.5449,524.3418)">
          <path
             d="m 0,0 c 0.909,-0.908 2.174,-2.937 1.703,-3.406 -0.47,-0.47 -2.497,0.794 -3.406,1.703 -0.909,0.91 -0.357,1.12 0.113,1.59 C -1.119,0.357 -0.909,0.91 0,0"
             style="fill:#f2e3c4;fill-opacity:1;fill-rule:nonzero;stroke:none"
             id="path316" />
        </g>
        <path
           d="m 992.38,612.4 h -38.153 v 19.658 h 38.153 z"
           style="fill:#f7eddc;fill-opacity:1;fill-rule:nonzero;stroke:none"
           id="path318" />
        <path
           d="m 996.075,615.347 h -45.543 v 19.813 h 45.543 z"
           style="fill:#c64738;fill-opacity:1;fill-rule:nonzero;stroke:none"
           id="path320" />
        <path
           d="M 977.194,615.347 H 974.6 v 11.155 h 2.594 z"
           style="fill:#aa3930;fill-opacity:1;fill-rule:nonzero;stroke:none"
           id="path322" />
        <path
           d="m 982.382,615.347 h -2.595 v 11.155 h 2.595 z"
           style="fill:#aa3930;fill-opacity:1;fill-rule:nonzero;stroke:none"
           id="path324" />
        <path
           d="m 987.569,615.347 h -2.595 v 11.155 h 2.595 z"
           style="fill:#aa3930;fill-opacity:1;fill-rule:nonzero;stroke:none"
           id="path326" />
        <path
           d="m 992.756,615.347 h -2.594 v 11.155 h 2.594 z"
           style="fill:#aa3930;fill-opacity:1;fill-rule:nonzero;stroke:none"
           id="path328" />
        <path
           d="m 956.445,615.347 h -2.594 v 11.155 h 2.594 z"
           style="fill:#aa3930;fill-opacity:1;fill-rule:nonzero;stroke:none"
           id="path330" />
        <path
           d="m 961.633,615.347 h -2.595 v 11.155 h 2.595 z"
           style="fill:#aa3930;fill-opacity:1;fill-rule:nonzero;stroke:none"
           id="path332" />
        <path
           d="m 966.819,615.347 h -2.594 v 11.155 h 2.594 z"
           style="fill:#aa3930;fill-opacity:1;fill-rule:nonzero;stroke:none"
           id="path334" />
        <path
           d="m 972.007,615.347 h -2.594 v 11.155 h 2.594 z"
           style="fill:#aa3930;fill-opacity:1;fill-rule:nonzero;stroke:none"
           id="path336" />
        <g
           id="g338"
           transform="translate(1202.9609,562.5605)">
          <path
             d="m 0,0 -13.559,54.706 c 0,3.031 -3.977,5.488 -8.882,5.488 h -18.647 c -4.905,0 -8.883,-2.457 -8.883,-5.488 L -63.529,0 c -1.218,-1.521 -1.95,-3.446 -1.95,-5.546 v -101.27 c 0,-4.907 3.977,-8.884 8.883,-8.884 h 49.662 c 4.906,0 8.883,3.977 8.883,8.884 V -5.546 C 1.949,-3.446 1.217,-1.521 0,0"
             style="fill:#f7eddc;fill-opacity:1;fill-rule:nonzero;stroke:none"
             id="path340" />
        </g>
        <g
           id="g342"
           transform="translate(1198.2168,560.2148)">
          <path
             d="M 0,0 -9.991,40.314 H -44.05 L -54.041,0 l -0.71,-0.886 c -0.372,-0.464 -0.815,-1.243 -0.815,-2.314 v -101.271 c 0,-2.049 1.666,-3.715 3.714,-3.715 h 49.663 c 2.047,0 3.714,1.666 3.714,3.715 V -3.2 c 0,1.071 -0.443,1.85 -0.815,2.314 z"
             style="fill:#0d47a1;fill-opacity:1;fill-rule:nonzero;stroke:none"
             id="path344" />
        </g>
        <path
           d="m 1204.91,480.096 h -67.952 v 64.094 h 67.952 z"
           style="fill:#d8c5a3;fill-opacity:1;fill-rule:nonzero;stroke:none"
           id="path346" />
        <g
           id="g348"
           transform="translate(1196.3984,512.1426)">
          <path
             d="m 0,0 c 0,-14.064 -11.4,-25.465 -25.464,-25.465 -14.064,0 -25.465,11.401 -25.465,25.465 0,14.064 11.401,25.465 25.465,25.465 C -11.4,25.465 0,14.064 0,0"
             style="fill:#6ba152;fill-opacity:1;fill-rule:nonzero;stroke:none"
             id="path350" />
        </g>
        <g
           id="g352"
           transform="translate(1193.7061,512.1426)">
          <path
             d="m 0,0 c 0,-12.576 -10.196,-22.771 -22.771,-22.771 -12.577,0 -22.772,10.195 -22.772,22.771 0,12.576 10.195,22.771 22.772,22.771 C -10.196,22.771 0,12.576 0,0"
             style="fill:#f2e3c4;fill-opacity:1;fill-rule:nonzero;stroke:none"
             id="path354" />
        </g>
        <g
           id="g356"
           transform="translate(1191.502,512.1426)">
          <path
             d="m 0,0 c 0,-11.359 -9.208,-20.568 -20.567,-20.568 -11.36,0 -20.568,9.209 -20.568,20.568 0,11.358 9.208,20.567 20.568,20.567 C -9.208,20.567 0,11.358 0,0"
             style="fill:#0d47a1;fill-opacity:1;fill-rule:nonzero;stroke:none"
             id="path358" />
        </g>
        <g
           id="g360"
           transform="translate(1179.2588,512.1426)">
          <path
             d="m 0,0 c 0,-4.597 -3.728,-8.324 -8.324,-8.324 -4.598,0 -8.325,3.727 -8.325,8.324 0,4.597 3.727,8.324 8.325,8.324 C -3.728,8.324 0,4.597 0,0"
             style="fill:#d86e66;fill-opacity:1;fill-rule:nonzero;stroke:none"
             id="path362" />
        </g>
        <g
           id="g364"
           transform="translate(1172.1387,528.1914)">
          <path
             d="m 0,0 c 0,-1.286 -0.539,-3.613 -1.204,-3.613 -0.666,0 -1.205,2.327 -1.205,3.613 0,1.286 0.539,1.044 1.205,1.044 C -0.539,1.044 0,1.286 0,0"
             style="fill:#f2e3c4;fill-opacity:1;fill-rule:nonzero;stroke:none"
             id="path366" />
        </g>
        <g
           id="g368"
           transform="translate(1169.7295,496.0937)">
          <path
             d="M 0,0 C 0,1.285 0.539,3.613 1.205,3.613 1.87,3.613 2.409,1.285 2.409,0 2.409,-1.286 1.87,-1.044 1.205,-1.044 0.539,-1.044 0,-1.286 0,0"
             style="fill:#f2e3c4;fill-opacity:1;fill-rule:nonzero;stroke:none"
             id="path370" />
        </g>
        <g
           id="g372"
           transform="translate(1186.9834,510.9375)">
          <path
             d="M 0,0 C -1.286,0 -3.613,0.539 -3.613,1.205 -3.613,1.87 -1.286,2.409 0,2.409 1.285,2.409 1.044,1.87 1.044,1.205 1.044,0.539 1.285,0 0,0"
             style="fill:#f2e3c4;fill-opacity:1;fill-rule:nonzero;stroke:none"
             id="path374" />
        </g>
        <g
           id="g376"
           transform="translate(1154.8848,513.3477)">
          <path
             d="M 0,0 C 1.286,0 3.613,-0.54 3.613,-1.205 3.613,-1.87 1.286,-2.41 0,-2.41 c -1.285,0 -1.043,0.54 -1.043,1.205 C -1.043,-0.54 -1.285,0 0,0"
             style="fill:#f2e3c4;fill-opacity:1;fill-rule:nonzero;stroke:none"
             id="path378" />
        </g>
        <g
           id="g380"
           transform="translate(1183.1348,522.6387)">
          <path
             d="m 0,0 c -0.909,-0.909 -2.936,-2.173 -3.406,-1.703 -0.471,0.47 0.793,2.497 1.703,3.406 0.909,0.91 1.119,0.357 1.589,-0.113 C 0.356,1.12 0.909,0.91 0,0"
             style="fill:#f2e3c4;fill-opacity:1;fill-rule:nonzero;stroke:none"
             id="path382" />
        </g>
        <g
           id="g384"
           transform="translate(1158.7344,501.6455)">
          <path
             d="M 0,0 C 0.909,0.909 2.936,2.174 3.406,1.703 3.877,1.233 2.612,-0.794 1.703,-1.702 0.794,-2.612 0.584,-2.06 0.113,-1.59 -0.356,-1.119 -0.909,-0.909 0,0"
             style="fill:#f2e3c4;fill-opacity:1;fill-rule:nonzero;stroke:none"
             id="path386" />
        </g>
        <g
           id="g388"
           transform="translate(1181.4316,499.9414)">
          <path
             d="M 0,0 C -0.91,0.91 -2.174,2.938 -1.704,3.407 -1.234,3.878 0.793,2.613 1.703,1.704 2.612,0.795 2.06,0.585 1.589,0.114 1.119,-0.355 0.909,-0.909 0,0"
             style="fill:#f2e3c4;fill-opacity:1;fill-rule:nonzero;stroke:none"
             id="path390" />
        </g>
        <g
           id="g392"
           transform="translate(1160.4375,524.3418)">
          <path
             d="m 0,0 c 0.909,-0.908 2.174,-2.937 1.703,-3.406 -0.47,-0.47 -2.497,0.794 -3.406,1.703 -0.909,0.91 -0.357,1.12 0.113,1.59 C -1.119,0.357 -0.909,0.91 0,0"
             style="fill:#f2e3c4;fill-opacity:1;fill-rule:nonzero;stroke:none"
             id="path394" />
        </g>
        <path
           d="m 1190.272,612.4 h -38.153 v 19.658 h 38.153 z"
           style="fill:#f7eddc;fill-opacity:1;fill-rule:nonzero;stroke:none"
           id="path396" />
        <path
           d="m 1193.968,615.347 h -45.543 v 19.813 h 45.543 z"
           style="fill:#c64738;fill-opacity:1;fill-rule:nonzero;stroke:none"
           id="path398" />
        <path
           d="m 1175.087,615.347 h -2.594 v 11.155 h 2.594 z"
           style="fill:#aa3930;fill-opacity:1;fill-rule:nonzero;stroke:none"
           id="path400" />
        <path
           d="m 1180.274,615.347 h -2.595 v 11.155 h 2.595 z"
           style="fill:#aa3930;fill-opacity:1;fill-rule:nonzero;stroke:none"
           id="path402" />
        <path
           d="m 1185.462,615.347 h -2.595 v 11.155 h 2.595 z"
           style="fill:#aa3930;fill-opacity:1;fill-rule:nonzero;stroke:none"
           id="path404" />
        <path
           d="m 1190.648,615.347 h -2.594 v 11.155 h 2.594 z"
           style="fill:#aa3930;fill-opacity:1;fill-rule:nonzero;stroke:none"
           id="path406" />
        <path
           d="m 1154.338,615.347 h -2.594 v 11.155 h 2.594 z"
           style="fill:#aa3930;fill-opacity:1;fill-rule:nonzero;stroke:none"
           id="path408" />
        <path
           d="m 1159.525,615.347 h -2.595 v 11.155 h 2.595 z"
           style="fill:#aa3930;fill-opacity:1;fill-rule:nonzero;stroke:none"
           id="path410" />
        <path
           d="m 1164.712,615.347 h -2.594 v 11.155 h 2.594 z"
           style="fill:#aa3930;fill-opacity:1;fill-rule:nonzero;stroke:none"
           id="path412" />
        <path
           d="m 1169.899,615.347 h -2.594 v 11.155 h 2.594 z"
           style="fill:#aa3930;fill-opacity:1;fill-rule:nonzero;stroke:none"
           id="path414" />
        <g
           id="g416"
           transform="translate(737.085,236.3145)">
          <path
             d="m 0,0 c 0,-21.143 -17.138,-38.281 -38.279,-38.281 -21.142,0 -38.28,17.138 -38.28,38.281 0,21.142 17.138,38.279 38.28,38.279 C -17.138,38.279 0,21.142 0,0"
             style="fill:#6ba152;fill-opacity:1;fill-rule:nonzero;stroke:none"
             id="path418" />
        </g>
        <g
           id="g420"
           transform="translate(733.0371,236.3145)">
          <path
             d="m 0,0 c 0,-18.906 -15.327,-34.232 -34.231,-34.232 -18.905,0 -34.231,15.326 -34.231,34.232 0,18.904 15.326,34.23 34.231,34.23 C -15.327,34.23 0,18.904 0,0"
             style="fill:#f2e3c4;fill-opacity:1;fill-rule:nonzero;stroke:none"
             id="path422" />
        </g>
        <g
           id="g424"
           transform="translate(729.7227,236.3145)">
          <path
             d="m 0,0 c 0,-17.076 -13.842,-30.92 -30.917,-30.92 -17.075,0 -30.918,13.844 -30.918,30.92 0,17.074 13.843,30.918 30.918,30.918 C -13.842,30.918 0,17.074 0,0"
             style="fill:#0d47a1;fill-opacity:1;fill-rule:nonzero;stroke:none"
             id="path426" />
        </g>
        <g
           id="g428"
           transform="translate(711.3193,236.3145)">
          <path
             d="m 0,0 c 0,-6.911 -5.603,-12.514 -12.514,-12.514 -6.91,0 -12.514,5.603 -12.514,12.514 0,6.909 5.604,12.513 12.514,12.513 C -5.603,12.513 0,6.909 0,0"
             style="fill:#d86e66;fill-opacity:1;fill-rule:nonzero;stroke:none"
             id="path430" />
        </g>
        <g
           id="g432"
           transform="translate(700.6167,260.4395)">
          <path
             d="m 0,0 c 0,-1.934 -0.811,-5.432 -1.811,-5.432 -1,0 -1.811,3.498 -1.811,5.432 0,1.934 0.811,1.569 1.811,1.569 C -0.811,1.569 0,1.934 0,0"
             style="fill:#f2e3c4;fill-opacity:1;fill-rule:nonzero;stroke:none"
             id="path434" />
        </g>
        <g
           id="g436"
           transform="translate(696.9951,212.1875)">
          <path
             d="m 0,0 c 0,1.932 0.811,5.432 1.811,5.432 1,0 1.81,-3.5 1.81,-5.432 0,-1.934 -0.81,-1.568 -1.81,-1.568 C 0.811,-1.568 0,-1.934 0,0"
             style="fill:#f2e3c4;fill-opacity:1;fill-rule:nonzero;stroke:none"
             id="path438" />
        </g>
        <g
           id="g440"
           transform="translate(722.9316,234.502)">
          <path
             d="m 0,0 c -1.933,0 -5.432,0.811 -5.432,1.811 0,1 3.499,1.81 5.432,1.81 1.934,0 1.57,-0.81 1.57,-1.81 C 1.57,0.811 1.934,0 0,0"
             style="fill:#f2e3c4;fill-opacity:1;fill-rule:nonzero;stroke:none"
             id="path442" />
        </g>
        <g
           id="g444"
           transform="translate(674.6797,238.125)">
          <path
             d="m 0,0 c 1.933,0 5.432,-0.812 5.432,-1.811 0,-1 -3.499,-1.812 -5.432,-1.812 -1.933,0 -1.569,0.812 -1.569,1.812 C -1.569,-0.812 -1.933,0 0,0"
             style="fill:#f2e3c4;fill-opacity:1;fill-rule:nonzero;stroke:none"
             id="path446" />
        </g>
        <g
           id="g448"
           transform="translate(717.1445,252.0928)">
          <path
             d="m 0,0 c -1.365,-1.367 -4.413,-3.268 -5.119,-2.561 -0.708,0.707 1.193,3.753 2.56,5.121 1.367,1.368 1.683,0.536 2.389,-0.17 C 0.537,1.683 1.368,1.367 0,0"
             style="fill:#f2e3c4;fill-opacity:1;fill-rule:nonzero;stroke:none"
             id="path450" />
        </g>
        <g
           id="g452"
           transform="translate(680.4658,220.5342)">
          <path
             d="M 0,0 C 1.366,1.366 4.413,3.268 5.121,2.561 5.828,1.854 3.927,-1.194 2.56,-2.56 1.193,-3.927 0.878,-3.097 0.17,-2.39 -0.537,-1.683 -1.367,-1.367 0,0"
             style="fill:#f2e3c4;fill-opacity:1;fill-rule:nonzero;stroke:none"
             id="path454" />
        </g>
        <g
           id="g456"
           transform="translate(714.5859,217.9727)">
          <path
             d="M 0,0 C -1.367,1.367 -3.269,4.415 -2.562,5.122 -1.855,5.829 1.192,3.928 2.559,2.562 3.927,1.194 3.096,0.879 2.389,0.172 1.682,-0.535 1.366,-1.367 0,0"
             style="fill:#f2e3c4;fill-opacity:1;fill-rule:nonzero;stroke:none"
             id="path458" />
        </g>
        <g
           id="g460"
           transform="translate(683.0259,254.6523)">
          <path
             d="m 0,0 c 1.367,-1.365 3.268,-4.414 2.561,-5.12 -0.707,-0.707 -3.755,1.193 -5.121,2.56 -1.367,1.368 -0.537,1.683 0.17,2.39 C -1.682,0.537 -1.366,1.368 0,0"
             style="fill:#f2e3c4;fill-opacity:1;fill-rule:nonzero;stroke:none"
             id="path462" />
        </g>
        <path
           d="m 1099.121,130.793 h -97.362 v 133.812 h 97.362 z"
           style="fill:#f2e3c4;fill-opacity:1;fill-rule:nonzero;stroke:none"
           id="path464" />
        <g
           id="g466"
           transform="translate(1117.3301,299.6465)">
          <path
             d="m 0,0 h -97.363 l -18.208,-35.041 h 97.362 z"
             style="fill:#f7eddc;fill-opacity:1;fill-rule:nonzero;stroke:none"
             id="path468" />
        </g>
        <g
           id="g470"
           transform="translate(1117.3301,299.6465)">
          <path
             d="M 0,0 -18.209,-35.041 V -168.854 H 18.209 V -35.041 Z"
             style="fill:#d8c5a3;fill-opacity:1;fill-rule:nonzero;stroke:none"
             id="path472" />
        </g>
        <path
           d="m 1091.689,139.482 h -82.499 v 67.902 h 82.499 z"
           style="fill:#0d47a1;fill-opacity:1;fill-rule:nonzero;stroke:none"
           id="path474" />
        <path
           d="m 1129.926,139.482 h -23.411 v 67.902 h 23.411 z"
           style="fill:#0d47a1;fill-opacity:1;fill-rule:nonzero;stroke:none"
           id="path476" />
        <path
           d="m 1129.926,218.737 h -23.411 v 9.686 h 23.411 z"
           style="fill:#f2e3c4;fill-opacity:1;fill-rule:nonzero;stroke:none"
           id="path478" />
        <g
           id="g480"
           transform="translate(1076.3584,219.5771)">
          <path
             d="m 0,0 c 0,-14.315 -11.604,-25.92 -25.919,-25.92 -14.314,0 -25.918,11.605 -25.918,25.92 0,14.314 11.604,25.918 25.918,25.918 C -11.604,25.918 0,14.314 0,0"
             style="fill:#6ba152;fill-opacity:1;fill-rule:nonzero;stroke:none"
             id="path482" />
        </g>
        <g
           id="g484"
           transform="translate(1073.6172,219.5771)">
          <path
             d="m 0,0 c 0,-12.802 -10.377,-23.179 -23.178,-23.179 -12.8,0 -23.176,10.377 -23.176,23.179 0,12.8 10.376,23.177 23.176,23.177 C -10.377,23.177 0,12.8 0,0"
             style="fill:#f2e3c4;fill-opacity:1;fill-rule:nonzero;stroke:none"
             id="path486" />
        </g>
        <g
           id="g488"
           transform="translate(1071.373,219.5771)">
          <path
             d="m 0,0 c 0,-11.562 -9.371,-20.935 -20.934,-20.935 -11.56,0 -20.933,9.373 -20.933,20.935 0,11.561 9.373,20.934 20.933,20.934 C -9.371,20.934 0,11.561 0,0"
             style="fill:#0d47a1;fill-opacity:1;fill-rule:nonzero;stroke:none"
             id="path490" />
        </g>
        <g
           id="g492"
           transform="translate(1058.9121,219.5771)">
          <path
             d="m 0,0 c 0,-4.68 -3.793,-8.474 -8.473,-8.474 -4.678,0 -8.472,3.794 -8.472,8.474 0,4.679 3.794,8.472 8.472,8.472 C -3.793,8.472 0,4.679 0,0"
             style="fill:#d86e66;fill-opacity:1;fill-rule:nonzero;stroke:none"
             id="path494" />
        </g>
        <g
           id="g496"
           transform="translate(1051.666,235.9121)">
          <path
             d="m 0,0 c 0,-1.31 -0.549,-3.678 -1.227,-3.678 -0.676,0 -1.225,2.368 -1.225,3.678 0,1.309 0.549,1.062 1.225,1.062 C -0.549,1.062 0,1.309 0,0"
             style="fill:#f2e3c4;fill-opacity:1;fill-rule:nonzero;stroke:none"
             id="path498" />
        </g>
        <g
           id="g500"
           transform="translate(1049.2139,203.2412)">
          <path
             d="M 0,0 C 0,1.308 0.549,3.678 1.226,3.678 1.903,3.678 2.452,1.308 2.452,0 2.452,-1.31 1.903,-1.062 1.226,-1.062 0.549,-1.062 0,-1.31 0,0"
             style="fill:#f2e3c4;fill-opacity:1;fill-rule:nonzero;stroke:none"
             id="path502" />
        </g>
        <g
           id="g504"
           transform="translate(1066.7754,218.3496)">
          <path
             d="m 0,0 c -1.309,0 -3.678,0.549 -3.678,1.227 0,0.676 2.369,1.225 3.678,1.225 1.309,0 1.062,-0.549 1.062,-1.225 C 1.062,0.549 1.309,0 0,0"
             style="fill:#f2e3c4;fill-opacity:1;fill-rule:nonzero;stroke:none"
             id="path506" />
        </g>
        <g
           id="g508"
           transform="translate(1034.1045,220.8027)">
          <path
             d="m 0,0 c 1.309,0 3.678,-0.55 3.678,-1.226 0,-0.676 -2.369,-1.227 -3.678,-1.227 -1.309,0 -1.062,0.551 -1.062,1.227 C -1.062,-0.55 -1.309,0 0,0"
             style="fill:#f2e3c4;fill-opacity:1;fill-rule:nonzero;stroke:none"
             id="path510" />
        </g>
        <g
           id="g512"
           transform="translate(1062.8574,230.2598)">
          <path
             d="m 0,0 c -0.925,-0.926 -2.988,-2.212 -3.467,-1.732 -0.478,0.477 0.808,2.541 1.734,3.466 0.924,0.926 1.139,0.363 1.618,-0.115 C 0.363,1.14 0.926,0.926 0,0"
             style="fill:#f2e3c4;fill-opacity:1;fill-rule:nonzero;stroke:none"
             id="path514" />
        </g>
        <g
           id="g516"
           transform="translate(1038.0225,208.8926)">
          <path
             d="M 0,0 C 0.926,0.925 2.987,2.213 3.468,1.733 3.946,1.255 2.659,-0.809 1.733,-1.733 0.808,-2.659 0.595,-2.098 0.115,-1.618 -0.363,-1.14 -0.925,-0.926 0,0"
             style="fill:#f2e3c4;fill-opacity:1;fill-rule:nonzero;stroke:none"
             id="path518" />
        </g>
        <g
           id="g520"
           transform="translate(1061.124,207.1582)">
          <path
             d="M 0,0 C -0.926,0.926 -2.212,2.989 -1.733,3.468 -1.255,3.947 0.808,2.659 1.733,1.734 2.659,0.809 2.097,0.595 1.618,0.116 1.14,-0.363 0.925,-0.926 0,0"
             style="fill:#f2e3c4;fill-opacity:1;fill-rule:nonzero;stroke:none"
             id="path522" />
        </g>
        <g
           id="g524"
           transform="translate(1039.7559,231.9941)">
          <path
             d="m 0,0 c 0.926,-0.926 2.213,-2.989 1.734,-3.467 -0.478,-0.479 -2.542,0.807 -3.467,1.733 -0.925,0.925 -0.364,1.139 0.115,1.619 C -1.139,0.363 -0.925,0.926 0,0"
             style="fill:#f2e3c4;fill-opacity:1;fill-rule:nonzero;stroke:none"
             id="path526" />
        </g>
        <path
           d="m 1117.33,299.646 h -97.211 v 20.587 h 97.211 z"
           style="fill:#f2e3c4;fill-opacity:1;fill-rule:nonzero;stroke:none"
           id="path528" />
        <path
           d="m 1215.582,130.793 h -97.362 v 133.812 h 97.362 z"
           style="fill:#f2e3c4;fill-opacity:1;fill-rule:nonzero;stroke:none"
           id="path530" />
        <g
           id="g532"
           transform="translate(1233.791,299.6465)">
          <path
             d="m 0,0 h -97.363 l -18.208,-35.041 h 97.362 z"
             style="fill:#f7eddc;fill-opacity:1;fill-rule:nonzero;stroke:none"
             id="path534" />
        </g>
        <g
           id="g536"
           transform="translate(1233.791,299.6465)">
          <path
             d="M 0,0 -18.209,-35.041 V -168.854 H 18.209 V -35.041 Z"
             style="fill:#d8c5a3;fill-opacity:1;fill-rule:nonzero;stroke:none"
             id="path538" />
        </g>
        <path
           d="m 1208.15,139.482 h -82.499 v 67.902 h 82.499 z"
           style="fill:#0d47a1;fill-opacity:1;fill-rule:nonzero;stroke:none"
           id="path540" />
        <path
           d="m 1246.387,139.482 h -23.411 v 67.902 h 23.411 z"
           style="fill:#0d47a1;fill-opacity:1;fill-rule:nonzero;stroke:none"
           id="path542" />
        <path
           d="m 1246.387,218.737 h -23.411 v 9.686 h 23.411 z"
           style="fill:#f2e3c4;fill-opacity:1;fill-rule:nonzero;stroke:none"
           id="path544" />
        <g
           id="g546"
           transform="translate(1192.8193,219.5771)">
          <path
             d="m 0,0 c 0,-14.315 -11.604,-25.92 -25.919,-25.92 -14.314,0 -25.918,11.605 -25.918,25.92 0,14.314 11.604,25.918 25.918,25.918 C -11.604,25.918 0,14.314 0,0"
             style="fill:#6ba152;fill-opacity:1;fill-rule:nonzero;stroke:none"
             id="path548" />
        </g>
        <g
           id="g550"
           transform="translate(1190.0781,219.5771)">
          <path
             d="m 0,0 c 0,-12.802 -10.377,-23.179 -23.178,-23.179 -12.8,0 -23.176,10.377 -23.176,23.179 0,12.8 10.376,23.177 23.176,23.177 C -10.377,23.177 0,12.8 0,0"
             style="fill:#f2e3c4;fill-opacity:1;fill-rule:nonzero;stroke:none"
             id="path552" />
        </g>
        <g
           id="g554"
           transform="translate(1187.834,219.5771)">
          <path
             d="m 0,0 c 0,-11.562 -9.371,-20.935 -20.934,-20.935 -11.56,0 -20.933,9.373 -20.933,20.935 0,11.561 9.373,20.934 20.933,20.934 C -9.371,20.934 0,11.561 0,0"
             style="fill:#0d47a1;fill-opacity:1;fill-rule:nonzero;stroke:none"
             id="path556" />
        </g>
        <g
           id="g558"
           transform="translate(1175.373,219.5771)">
          <path
             d="m 0,0 c 0,-4.68 -3.793,-8.474 -8.473,-8.474 -4.678,0 -8.472,3.794 -8.472,8.474 0,4.679 3.794,8.472 8.472,8.472 C -3.793,8.472 0,4.679 0,0"
             style="fill:#d86e66;fill-opacity:1;fill-rule:nonzero;stroke:none"
             id="path560" />
        </g>
        <g
           id="g562"
           transform="translate(1168.127,235.9121)">
          <path
             d="m 0,0 c 0,-1.31 -0.549,-3.678 -1.227,-3.678 -0.676,0 -1.225,2.368 -1.225,3.678 0,1.309 0.549,1.062 1.225,1.062 C -0.549,1.062 0,1.309 0,0"
             style="fill:#f2e3c4;fill-opacity:1;fill-rule:nonzero;stroke:none"
             id="path564" />
        </g>
        <g
           id="g566"
           transform="translate(1165.6748,203.2412)">
          <path
             d="M 0,0 C 0,1.308 0.549,3.678 1.226,3.678 1.903,3.678 2.452,1.308 2.452,0 2.452,-1.31 1.903,-1.062 1.226,-1.062 0.549,-1.062 0,-1.31 0,0"
             style="fill:#f2e3c4;fill-opacity:1;fill-rule:nonzero;stroke:none"
             id="path568" />
        </g>
        <g
           id="g570"
           transform="translate(1183.2363,218.3496)">
          <path
             d="m 0,0 c -1.309,0 -3.678,0.549 -3.678,1.227 0,0.676 2.369,1.225 3.678,1.225 1.309,0 1.062,-0.549 1.062,-1.225 C 1.062,0.549 1.309,0 0,0"
             style="fill:#f2e3c4;fill-opacity:1;fill-rule:nonzero;stroke:none"
             id="path572" />
        </g>
        <g
           id="g574"
           transform="translate(1150.5654,220.8027)">
          <path
             d="m 0,0 c 1.309,0 3.678,-0.55 3.678,-1.226 0,-0.676 -2.369,-1.227 -3.678,-1.227 -1.309,0 -1.062,0.551 -1.062,1.227 C -1.062,-0.55 -1.309,0 0,0"
             style="fill:#f2e3c4;fill-opacity:1;fill-rule:nonzero;stroke:none"
             id="path576" />
        </g>
        <g
           id="g578"
           transform="translate(1179.3184,230.2598)">
          <path
             d="m 0,0 c -0.925,-0.926 -2.988,-2.212 -3.467,-1.732 -0.478,0.477 0.808,2.541 1.734,3.466 0.924,0.926 1.139,0.363 1.618,-0.115 C 0.363,1.14 0.926,0.926 0,0"
             style="fill:#f2e3c4;fill-opacity:1;fill-rule:nonzero;stroke:none"
             id="path580" />
        </g>
        <g
           id="g582"
           transform="translate(1154.4834,208.8926)">
          <path
             d="M 0,0 C 0.926,0.925 2.987,2.213 3.468,1.733 3.946,1.255 2.659,-0.809 1.733,-1.733 0.808,-2.659 0.595,-2.098 0.115,-1.618 -0.363,-1.14 -0.925,-0.926 0,0"
             style="fill:#f2e3c4;fill-opacity:1;fill-rule:nonzero;stroke:none"
             id="path584" />
        </g>
        <g
           id="g586"
           transform="translate(1177.585,207.1582)">
          <path
             d="M 0,0 C -0.926,0.926 -2.212,2.989 -1.733,3.468 -1.255,3.947 0.808,2.659 1.733,1.734 2.659,0.809 2.097,0.595 1.618,0.116 1.14,-0.363 0.925,-0.926 0,0"
             style="fill:#f2e3c4;fill-opacity:1;fill-rule:nonzero;stroke:none"
             id="path588" />
        </g>
        <g
           id="g590"
           transform="translate(1156.2168,231.9941)">
          <path
             d="m 0,0 c 0.926,-0.926 2.213,-2.989 1.734,-3.467 -0.478,-0.479 -2.542,0.807 -3.467,1.733 -0.925,0.925 -0.364,1.139 0.115,1.619 C -1.139,0.363 -0.925,0.926 0,0"
             style="fill:#f2e3c4;fill-opacity:1;fill-rule:nonzero;stroke:none"
             id="path592" />
        </g>
        <path
           d="m 1233.791,299.646 h -97.211 v 20.587 h 97.211 z"
           style="fill:#f2e3c4;fill-opacity:1;fill-rule:nonzero;stroke:none"
           id="path594" />
        <path
           d="M 245.362,130.793 H 148 v 133.812 h 97.362 z"
           style="fill:#f2e3c4;fill-opacity:1;fill-rule:nonzero;stroke:none"
           id="path596" />
        <g
           id="g598"
           transform="translate(263.5713,299.6465)">
          <path
             d="m 0,0 h -97.363 l -18.208,-35.041 h 97.362 z"
             style="fill:#f7eddc;fill-opacity:1;fill-rule:nonzero;stroke:none"
             id="path600" />
        </g>
        <g
           id="g602"
           transform="translate(263.5713,299.6465)">
          <path
             d="M 0,0 -18.209,-35.041 V -168.854 H 18.209 V -35.041 Z"
             style="fill:#d8c5a3;fill-opacity:1;fill-rule:nonzero;stroke:none"
             id="path604" />
        </g>
        <path
           d="m 237.93,139.482 h -82.499 v 67.902 h 82.499 z"
           style="fill:#0d47a1;fill-opacity:1;fill-rule:nonzero;stroke:none"
           id="path606" />
        <path
           d="m 276.167,139.482 h -23.411 v 67.902 h 23.411 z"
           style="fill:#0d47a1;fill-opacity:1;fill-rule:nonzero;stroke:none"
           id="path608" />
        <path
           d="m 276.167,218.737 h -23.411 v 9.686 h 23.411 z"
           style="fill:#f2e3c4;fill-opacity:1;fill-rule:nonzero;stroke:none"
           id="path610" />
        <g
           id="g612"
           transform="translate(222.5996,219.5771)">
          <path
             d="m 0,0 c 0,-14.315 -11.604,-25.92 -25.918,-25.92 -14.315,0 -25.919,11.605 -25.919,25.92 0,14.314 11.604,25.918 25.919,25.918 C -11.604,25.918 0,14.314 0,0"
             style="fill:#6ba152;fill-opacity:1;fill-rule:nonzero;stroke:none"
             id="path614" />
        </g>
        <g
           id="g616"
           transform="translate(219.8584,219.5771)">
          <path
             d="m 0,0 c 0,-12.802 -10.377,-23.179 -23.177,-23.179 -12.801,0 -23.177,10.377 -23.177,23.179 0,12.8 10.376,23.177 23.177,23.177 C -10.377,23.177 0,12.8 0,0"
             style="fill:#f2e3c4;fill-opacity:1;fill-rule:nonzero;stroke:none"
             id="path618" />
        </g>
        <g
           id="g620"
           transform="translate(217.6147,219.5771)">
          <path
             d="m 0,0 c 0,-11.562 -9.372,-20.935 -20.934,-20.935 -11.561,0 -20.934,9.373 -20.934,20.935 0,11.561 9.373,20.934 20.934,20.934 C -9.372,20.934 0,11.561 0,0"
             style="fill:#0d47a1;fill-opacity:1;fill-rule:nonzero;stroke:none"
             id="path622" />
        </g>
        <g
           id="g624"
           transform="translate(205.1538,219.5771)">
          <path
             d="m 0,0 c 0,-4.68 -3.793,-8.474 -8.473,-8.474 -4.679,0 -8.473,3.794 -8.473,8.474 0,4.679 3.794,8.472 8.473,8.472 C -3.793,8.472 0,4.679 0,0"
             style="fill:#d86e66;fill-opacity:1;fill-rule:nonzero;stroke:none"
             id="path626" />
        </g>
        <g
           id="g628"
           transform="translate(197.9072,235.9121)">
          <path
             d="m 0,0 c 0,-1.31 -0.549,-3.678 -1.226,-3.678 -0.677,0 -1.226,2.368 -1.226,3.678 0,1.309 0.549,1.062 1.226,1.062 C -0.549,1.062 0,1.309 0,0"
             style="fill:#f2e3c4;fill-opacity:1;fill-rule:nonzero;stroke:none"
             id="path630" />
        </g>
        <g
           id="g632"
           transform="translate(195.4551,203.2412)">
          <path
             d="M 0,0 C 0,1.308 0.549,3.678 1.226,3.678 1.903,3.678 2.452,1.308 2.452,0 2.452,-1.31 1.903,-1.062 1.226,-1.062 0.549,-1.062 0,-1.31 0,0"
             style="fill:#f2e3c4;fill-opacity:1;fill-rule:nonzero;stroke:none"
             id="path634" />
        </g>
        <g
           id="g636"
           transform="translate(213.0166,218.3496)">
          <path
             d="m 0,0 c -1.309,0 -3.678,0.549 -3.678,1.227 0,0.676 2.369,1.225 3.678,1.225 1.309,0 1.062,-0.549 1.062,-1.225 C 1.062,0.549 1.309,0 0,0"
             style="fill:#f2e3c4;fill-opacity:1;fill-rule:nonzero;stroke:none"
             id="path638" />
        </g>
        <g
           id="g640"
           transform="translate(180.3457,220.8027)">
          <path
             d="m 0,0 c 1.309,0 3.678,-0.55 3.678,-1.226 0,-0.676 -2.369,-1.227 -3.678,-1.227 -1.309,0 -1.062,0.551 -1.062,1.227 C -1.062,-0.55 -1.309,0 0,0"
             style="fill:#f2e3c4;fill-opacity:1;fill-rule:nonzero;stroke:none"
             id="path642" />
        </g>
        <g
           id="g644"
           transform="translate(209.0986,230.2598)">
          <path
             d="m 0,0 c -0.925,-0.926 -2.988,-2.212 -3.467,-1.732 -0.478,0.477 0.808,2.541 1.734,3.466 0.925,0.926 1.139,0.363 1.617,-0.115 C 0.363,1.14 0.926,0.926 0,0"
             style="fill:#f2e3c4;fill-opacity:1;fill-rule:nonzero;stroke:none"
             id="path646" />
        </g>
        <g
           id="g648"
           transform="translate(184.2637,208.8926)">
          <path
             d="M 0,0 C 0.926,0.925 2.988,2.213 3.467,1.733 3.946,1.255 2.659,-0.809 1.733,-1.733 0.808,-2.659 0.594,-2.098 0.115,-1.618 -0.363,-1.14 -0.925,-0.926 0,0"
             style="fill:#f2e3c4;fill-opacity:1;fill-rule:nonzero;stroke:none"
             id="path650" />
        </g>
        <g
           id="g652"
           transform="translate(207.3652,207.1582)">
          <path
             d="M 0,0 C -0.926,0.926 -2.212,2.989 -1.734,3.468 -1.255,3.947 0.808,2.659 1.733,1.734 2.659,0.809 2.096,0.595 1.618,0.116 1.139,-0.363 0.925,-0.926 0,0"
             style="fill:#f2e3c4;fill-opacity:1;fill-rule:nonzero;stroke:none"
             id="path654" />
        </g>
        <g
           id="g656"
           transform="translate(185.9971,231.9941)">
          <path
             d="m 0,0 c 0.926,-0.926 2.212,-2.989 1.734,-3.467 -0.479,-0.479 -2.542,0.807 -3.467,1.733 -0.925,0.925 -0.364,1.139 0.115,1.619 C -1.139,0.363 -0.925,0.926 0,0"
             style="fill:#f2e3c4;fill-opacity:1;fill-rule:nonzero;stroke:none"
             id="path658" />
        </g>
        <path
           d="M 263.571,299.646 H 166.36 v 20.587 h 97.211 z"
           style="fill:#f2e3c4;fill-opacity:1;fill-rule:nonzero;stroke:none"
           id="path660" />
        <path
           d="m 361.823,130.793 h -97.362 v 133.812 h 97.362 z"
           style="fill:#f2e3c4;fill-opacity:1;fill-rule:nonzero;stroke:none"
           id="path662" />
        <g
           id="g664"
           transform="translate(380.0322,299.6465)">
          <path
             d="m 0,0 h -97.363 l -18.208,-35.041 h 97.362 z"
             style="fill:#f7eddc;fill-opacity:1;fill-rule:nonzero;stroke:none"
             id="path666" />
        </g>
        <g
           id="g668"
           transform="translate(380.0322,299.6465)">
          <path
             d="M 0,0 -18.209,-35.041 V -168.854 H 18.209 V -35.041 Z"
             style="fill:#d8c5a3;fill-opacity:1;fill-rule:nonzero;stroke:none"
             id="path670" />
        </g>
        <path
           d="m 354.391,139.482 h -82.499 v 67.902 h 82.499 z"
           style="fill:#0d47a1;fill-opacity:1;fill-rule:nonzero;stroke:none"
           id="path672" />
        <path
           d="m 392.627,139.482 h -23.411 v 67.902 h 23.411 z"
           style="fill:#0d47a1;fill-opacity:1;fill-rule:nonzero;stroke:none"
           id="path674" />
        <path
           d="m 392.627,218.737 h -23.411 v 9.686 h 23.411 z"
           style="fill:#f2e3c4;fill-opacity:1;fill-rule:nonzero;stroke:none"
           id="path676" />
        <g
           id="g678"
           transform="translate(339.0605,219.5771)">
          <path
             d="m 0,0 c 0,-14.315 -11.604,-25.92 -25.918,-25.92 -14.315,0 -25.919,11.605 -25.919,25.92 0,14.314 11.604,25.918 25.919,25.918 C -11.604,25.918 0,14.314 0,0"
             style="fill:#6ba152;fill-opacity:1;fill-rule:nonzero;stroke:none"
             id="path680" />
        </g>
        <g
           id="g682"
           transform="translate(336.3193,219.5771)">
          <path
             d="m 0,0 c 0,-12.802 -10.377,-23.179 -23.177,-23.179 -12.801,0 -23.177,10.377 -23.177,23.179 0,12.8 10.376,23.177 23.177,23.177 C -10.377,23.177 0,12.8 0,0"
             style="fill:#f2e3c4;fill-opacity:1;fill-rule:nonzero;stroke:none"
             id="path684" />
        </g>
        <g
           id="g686"
           transform="translate(334.0757,219.5771)">
          <path
             d="m 0,0 c 0,-11.562 -9.372,-20.935 -20.934,-20.935 -11.561,0 -20.934,9.373 -20.934,20.935 0,11.561 9.373,20.934 20.934,20.934 C -9.372,20.934 0,11.561 0,0"
             style="fill:#0d47a1;fill-opacity:1;fill-rule:nonzero;stroke:none"
             id="path688" />
        </g>
        <g
           id="g690"
           transform="translate(321.6147,219.5771)">
          <path
             d="m 0,0 c 0,-4.68 -3.793,-8.474 -8.473,-8.474 -4.679,0 -8.473,3.794 -8.473,8.474 0,4.679 3.794,8.472 8.473,8.472 C -3.793,8.472 0,4.679 0,0"
             style="fill:#d86e66;fill-opacity:1;fill-rule:nonzero;stroke:none"
             id="path692" />
        </g>
        <g
           id="g694"
           transform="translate(314.3682,235.9121)">
          <path
             d="m 0,0 c 0,-1.31 -0.549,-3.678 -1.226,-3.678 -0.677,0 -1.226,2.368 -1.226,3.678 0,1.309 0.549,1.062 1.226,1.062 C -0.549,1.062 0,1.309 0,0"
             style="fill:#f2e3c4;fill-opacity:1;fill-rule:nonzero;stroke:none"
             id="path696" />
        </g>
        <g
           id="g698"
           transform="translate(311.916,203.2412)">
          <path
             d="M 0,0 C 0,1.308 0.549,3.678 1.226,3.678 1.903,3.678 2.452,1.308 2.452,0 2.452,-1.31 1.903,-1.062 1.226,-1.062 0.549,-1.062 0,-1.31 0,0"
             style="fill:#f2e3c4;fill-opacity:1;fill-rule:nonzero;stroke:none"
             id="path700" />
        </g>
        <g
           id="g702"
           transform="translate(329.4775,218.3496)">
          <path
             d="m 0,0 c -1.309,0 -3.678,0.549 -3.678,1.227 0,0.676 2.369,1.225 3.678,1.225 1.309,0 1.062,-0.549 1.062,-1.225 C 1.062,0.549 1.309,0 0,0"
             style="fill:#f2e3c4;fill-opacity:1;fill-rule:nonzero;stroke:none"
             id="path704" />
        </g>
        <g
           id="g706"
           transform="translate(296.8066,220.8027)">
          <path
             d="m 0,0 c 1.309,0 3.678,-0.55 3.678,-1.226 0,-0.676 -2.369,-1.227 -3.678,-1.227 -1.309,0 -1.062,0.551 -1.062,1.227 C -1.062,-0.55 -1.309,0 0,0"
             style="fill:#f2e3c4;fill-opacity:1;fill-rule:nonzero;stroke:none"
             id="path708" />
        </g>
        <g
           id="g710"
           transform="translate(325.5596,230.2598)">
          <path
             d="m 0,0 c -0.925,-0.926 -2.988,-2.212 -3.467,-1.732 -0.478,0.477 0.808,2.541 1.734,3.466 0.925,0.926 1.139,0.363 1.617,-0.115 C 0.363,1.14 0.926,0.926 0,0"
             style="fill:#f2e3c4;fill-opacity:1;fill-rule:nonzero;stroke:none"
             id="path712" />
        </g>
        <g
           id="g714"
           transform="translate(300.7246,208.8926)">
          <path
             d="M 0,0 C 0.926,0.925 2.988,2.213 3.467,1.733 3.946,1.255 2.659,-0.809 1.733,-1.733 0.808,-2.659 0.594,-2.098 0.115,-1.618 -0.363,-1.14 -0.925,-0.926 0,0"
             style="fill:#f2e3c4;fill-opacity:1;fill-rule:nonzero;stroke:none"
             id="path716" />
        </g>
        <g
           id="g718"
           transform="translate(323.8262,207.1582)">
          <path
             d="M 0,0 C -0.926,0.926 -2.212,2.989 -1.734,3.468 -1.255,3.947 0.808,2.659 1.733,1.734 2.659,0.809 2.096,0.595 1.618,0.116 1.139,-0.363 0.925,-0.926 0,0"
             style="fill:#f2e3c4;fill-opacity:1;fill-rule:nonzero;stroke:none"
             id="path720" />
        </g>
        <g
           id="g722"
           transform="translate(302.458,231.9941)">
          <path
             d="m 0,0 c 0.926,-0.926 2.212,-2.989 1.734,-3.467 -0.479,-0.479 -2.542,0.807 -3.467,1.733 -0.925,0.925 -0.364,1.139 0.115,1.619 C -1.139,0.363 -0.925,0.926 0,0"
             style="fill:#f2e3c4;fill-opacity:1;fill-rule:nonzero;stroke:none"
             id="path724" />
        </g>
        <path
           d="m 380.032,299.646 h -97.211 v 20.587 h 97.211 z"
           style="fill:#f2e3c4;fill-opacity:1;fill-rule:nonzero;stroke:none"
           id="path726" />
        <path
           d="M 508.024,406.5 H 148 v 40.844 h 360.024 z"
           style="fill:#d8c5a3;fill-opacity:1;fill-rule:nonzero;stroke:none"
           id="path728" />
        <path
           d="M 1252,406.5 H 891.976 v 40.844 H 1252 Z"
           style="fill:#d8c5a3;fill-opacity:1;fill-rule:nonzero;stroke:none"
           id="path730" />
        <path
           d="M 508.024,678.39 H 148 v 30.581 h 360.024 z"
           style="fill:#d8c5a3;fill-opacity:1;fill-rule:nonzero;stroke:none"
           id="path732" />
        <path
           d="M 1252,678.39 H 891.976 v 30.581 H 1252 Z"
           style="fill:#d8c5a3;fill-opacity:1;fill-rule:nonzero;stroke:none"
           id="path734" />
        <g
           id="g736"
           transform="translate(360.0391,562.5605)">
          <path
             d="m 0,0 -13.559,54.706 c 0,3.031 -3.977,5.488 -8.882,5.488 h -18.647 c -4.905,0 -8.883,-2.457 -8.883,-5.488 L -63.529,0 c -1.218,-1.521 -1.95,-3.446 -1.95,-5.546 v -101.27 c 0,-4.907 3.977,-8.884 8.883,-8.884 h 49.662 c 4.906,0 8.883,3.977 8.883,8.884 V -5.546 C 1.949,-3.446 1.217,-1.521 0,0"
             style="fill:#f7eddc;fill-opacity:1;fill-rule:nonzero;stroke:none"
             id="path738" />
        </g>
        <g
           id="g740"
           transform="translate(355.2949,560.2148)">
          <path
             d="M 0,0 -9.991,40.314 H -44.05 L -54.041,0 l -0.71,-0.886 c -0.372,-0.464 -0.815,-1.243 -0.815,-2.314 v -101.271 c 0,-2.049 1.666,-3.715 3.714,-3.715 h 49.663 c 2.047,0 3.714,1.666 3.714,3.715 V -3.2 c 0,1.071 -0.443,1.85 -0.815,2.314 z"
             style="fill:#0d47a1;fill-opacity:1;fill-rule:nonzero;stroke:none"
             id="path742" />
        </g>
        <path
           d="m 361.988,480.096 h -67.952 v 64.094 h 67.952 z"
           style="fill:#d8c5a3;fill-opacity:1;fill-rule:nonzero;stroke:none"
           id="path744" />
        <g
           id="g746"
           transform="translate(353.4766,512.1426)">
          <path
             d="m 0,0 c 0,-14.064 -11.4,-25.465 -25.464,-25.465 -14.064,0 -25.465,11.401 -25.465,25.465 0,14.064 11.401,25.465 25.465,25.465 C -11.4,25.465 0,14.064 0,0"
             style="fill:#6ba152;fill-opacity:1;fill-rule:nonzero;stroke:none"
             id="path748" />
        </g>
        <g
           id="g750"
           transform="translate(350.7842,512.1426)">
          <path
             d="m 0,0 c 0,-12.576 -10.196,-22.771 -22.771,-22.771 -12.577,0 -22.772,10.195 -22.772,22.771 0,12.576 10.195,22.771 22.772,22.771 C -10.196,22.771 0,12.576 0,0"
             style="fill:#f2e3c4;fill-opacity:1;fill-rule:nonzero;stroke:none"
             id="path752" />
        </g>
        <g
           id="g754"
           transform="translate(348.5801,512.1426)">
          <path
             d="m 0,0 c 0,-11.359 -9.208,-20.568 -20.567,-20.568 -11.36,0 -20.568,9.209 -20.568,20.568 0,11.358 9.208,20.567 20.568,20.567 C -9.208,20.567 0,11.358 0,0"
             style="fill:#0d47a1;fill-opacity:1;fill-rule:nonzero;stroke:none"
             id="path756" />
        </g>
        <g
           id="g758"
           transform="translate(336.3369,512.1426)">
          <path
             d="m 0,0 c 0,-4.597 -3.728,-8.324 -8.324,-8.324 -4.598,0 -8.325,3.727 -8.325,8.324 0,4.597 3.727,8.324 8.325,8.324 C -3.728,8.324 0,4.597 0,0"
             style="fill:#d86e66;fill-opacity:1;fill-rule:nonzero;stroke:none"
             id="path760" />
        </g>
        <g
           id="g762"
           transform="translate(329.2168,528.1914)">
          <path
             d="m 0,0 c 0,-1.286 -0.539,-3.613 -1.204,-3.613 -0.666,0 -1.205,2.327 -1.205,3.613 0,1.286 0.539,1.044 1.205,1.044 C -0.539,1.044 0,1.286 0,0"
             style="fill:#f2e3c4;fill-opacity:1;fill-rule:nonzero;stroke:none"
             id="path764" />
        </g>
        <g
           id="g766"
           transform="translate(326.8076,496.0937)">
          <path
             d="M 0,0 C 0,1.285 0.539,3.613 1.205,3.613 1.87,3.613 2.409,1.285 2.409,0 2.409,-1.286 1.87,-1.044 1.205,-1.044 0.539,-1.044 0,-1.286 0,0"
             style="fill:#f2e3c4;fill-opacity:1;fill-rule:nonzero;stroke:none"
             id="path768" />
        </g>
        <g
           id="g770"
           transform="translate(344.0615,510.9375)">
          <path
             d="M 0,0 C -1.286,0 -3.613,0.539 -3.613,1.205 -3.613,1.87 -1.286,2.409 0,2.409 1.285,2.409 1.044,1.87 1.044,1.205 1.044,0.539 1.285,0 0,0"
             style="fill:#f2e3c4;fill-opacity:1;fill-rule:nonzero;stroke:none"
             id="path772" />
        </g>
        <g
           id="g774"
           transform="translate(311.9629,513.3477)">
          <path
             d="M 0,0 C 1.286,0 3.613,-0.54 3.613,-1.205 3.613,-1.87 1.286,-2.41 0,-2.41 c -1.285,0 -1.043,0.54 -1.043,1.205 C -1.043,-0.54 -1.285,0 0,0"
             style="fill:#f2e3c4;fill-opacity:1;fill-rule:nonzero;stroke:none"
             id="path776" />
        </g>
        <g
           id="g778"
           transform="translate(340.2129,522.6387)">
          <path
             d="m 0,0 c -0.909,-0.909 -2.936,-2.173 -3.406,-1.703 -0.471,0.47 0.793,2.497 1.703,3.406 0.909,0.91 1.119,0.357 1.589,-0.113 C 0.356,1.12 0.909,0.91 0,0"
             style="fill:#f2e3c4;fill-opacity:1;fill-rule:nonzero;stroke:none"
             id="path780" />
        </g>
        <g
           id="g782"
           transform="translate(315.8125,501.6455)">
          <path
             d="M 0,0 C 0.909,0.909 2.936,2.174 3.406,1.703 3.877,1.233 2.612,-0.794 1.703,-1.702 0.794,-2.612 0.584,-2.06 0.113,-1.59 -0.356,-1.119 -0.909,-0.909 0,0"
             style="fill:#f2e3c4;fill-opacity:1;fill-rule:nonzero;stroke:none"
             id="path784" />
        </g>
        <g
           id="g786"
           transform="translate(338.5098,499.9414)">
          <path
             d="M 0,0 C -0.91,0.91 -2.174,2.938 -1.704,3.407 -1.234,3.878 0.793,2.613 1.703,1.704 2.612,0.795 2.06,0.585 1.589,0.114 1.119,-0.355 0.909,-0.909 0,0"
             style="fill:#f2e3c4;fill-opacity:1;fill-rule:nonzero;stroke:none"
             id="path788" />
        </g>
        <g
           id="g790"
           transform="translate(317.5156,524.3418)">
          <path
             d="m 0,0 c 0.909,-0.908 2.174,-2.937 1.703,-3.406 -0.47,-0.47 -2.497,0.794 -3.406,1.703 -0.909,0.91 -0.357,1.12 0.113,1.59 C -1.119,0.357 -0.909,0.91 0,0"
             style="fill:#f2e3c4;fill-opacity:1;fill-rule:nonzero;stroke:none"
             id="path792" />
        </g>
        <path
           d="m 347.351,612.4 h -38.153 v 19.658 h 38.153 z"
           style="fill:#f7eddc;fill-opacity:1;fill-rule:nonzero;stroke:none"
           id="path794" />
        <path
           d="m 351.046,615.347 h -45.543 v 19.813 h 45.543 z"
           style="fill:#c64738;fill-opacity:1;fill-rule:nonzero;stroke:none"
           id="path796" />
        <path
           d="m 332.165,615.347 h -2.594 v 11.155 h 2.594 z"
           style="fill:#aa3930;fill-opacity:1;fill-rule:nonzero;stroke:none"
           id="path798" />
        <path
           d="m 337.353,615.347 h -2.595 v 11.155 h 2.595 z"
           style="fill:#aa3930;fill-opacity:1;fill-rule:nonzero;stroke:none"
           id="path800" />
        <path
           d="m 342.54,615.347 h -2.595 v 11.155 h 2.595 z"
           style="fill:#aa3930;fill-opacity:1;fill-rule:nonzero;stroke:none"
           id="path802" />
        <path
           d="m 347.727,615.347 h -2.594 v 11.155 h 2.594 z"
           style="fill:#aa3930;fill-opacity:1;fill-rule:nonzero;stroke:none"
           id="path804" />
        <path
           d="m 311.416,615.347 h -2.594 v 11.155 h 2.594 z"
           style="fill:#aa3930;fill-opacity:1;fill-rule:nonzero;stroke:none"
           id="path806" />
        <path
           d="m 316.604,615.347 h -2.595 v 11.155 h 2.595 z"
           style="fill:#aa3930;fill-opacity:1;fill-rule:nonzero;stroke:none"
           id="path808" />
        <path
           d="m 321.79,615.347 h -2.594 v 11.155 h 2.594 z"
           style="fill:#aa3930;fill-opacity:1;fill-rule:nonzero;stroke:none"
           id="path810" />
        <path
           d="m 326.978,615.347 h -2.594 v 11.155 h 2.594 z"
           style="fill:#aa3930;fill-opacity:1;fill-rule:nonzero;stroke:none"
           id="path812" />
        <g
           id="g814"
           transform="translate(261.0928,562.5605)">
          <path
             d="m 0,0 -13.559,54.706 c 0,3.031 -3.977,5.488 -8.882,5.488 h -18.647 c -4.905,0 -8.883,-2.457 -8.883,-5.488 L -63.529,0 c -1.218,-1.521 -1.95,-3.446 -1.95,-5.546 v -101.27 c 0,-4.907 3.977,-8.884 8.883,-8.884 h 49.662 c 4.906,0 8.883,3.977 8.883,8.884 V -5.546 C 1.949,-3.446 1.217,-1.521 0,0"
             style="fill:#f7eddc;fill-opacity:1;fill-rule:nonzero;stroke:none"
             id="path816" />
        </g>
        <g
           id="g818"
           transform="translate(256.3486,560.2148)">
          <path
             d="M 0,0 -9.991,40.314 H -44.05 L -54.041,0 l -0.71,-0.886 c -0.372,-0.464 -0.815,-1.243 -0.815,-2.314 v -101.271 c 0,-2.049 1.666,-3.715 3.714,-3.715 h 49.663 c 2.047,0 3.714,1.666 3.714,3.715 V -3.2 c 0,1.071 -0.443,1.85 -0.815,2.314 z"
             style="fill:#0d47a1;fill-opacity:1;fill-rule:nonzero;stroke:none"
             id="path820" />
        </g>
        <path
           d="M 263.042,480.096 H 195.09 v 64.094 h 67.952 z"
           style="fill:#d8c5a3;fill-opacity:1;fill-rule:nonzero;stroke:none"
           id="path822" />
        <g
           id="g824"
           transform="translate(254.5303,512.1426)">
          <path
             d="m 0,0 c 0,-14.064 -11.4,-25.465 -25.464,-25.465 -14.064,0 -25.465,11.401 -25.465,25.465 0,14.064 11.401,25.465 25.465,25.465 C -11.4,25.465 0,14.064 0,0"
             style="fill:#6ba152;fill-opacity:1;fill-rule:nonzero;stroke:none"
             id="path826" />
        </g>
        <g
           id="g828"
           transform="translate(251.8379,512.1426)">
          <path
             d="m 0,0 c 0,-12.576 -10.196,-22.771 -22.771,-22.771 -12.577,0 -22.772,10.195 -22.772,22.771 0,12.576 10.195,22.771 22.772,22.771 C -10.196,22.771 0,12.576 0,0"
             style="fill:#f2e3c4;fill-opacity:1;fill-rule:nonzero;stroke:none"
             id="path830" />
        </g>
        <g
           id="g832"
           transform="translate(249.6338,512.1426)">
          <path
             d="m 0,0 c 0,-11.359 -9.208,-20.568 -20.567,-20.568 -11.36,0 -20.568,9.209 -20.568,20.568 0,11.358 9.208,20.567 20.568,20.567 C -9.208,20.567 0,11.358 0,0"
             style="fill:#0d47a1;fill-opacity:1;fill-rule:nonzero;stroke:none"
             id="path834" />
        </g>
        <g
           id="g836"
           transform="translate(237.3906,512.1426)">
          <path
             d="m 0,0 c 0,-4.597 -3.728,-8.324 -8.324,-8.324 -4.598,0 -8.325,3.727 -8.325,8.324 0,4.597 3.727,8.324 8.325,8.324 C -3.728,8.324 0,4.597 0,0"
             style="fill:#d86e66;fill-opacity:1;fill-rule:nonzero;stroke:none"
             id="path838" />
        </g>
        <g
           id="g840"
           transform="translate(230.2705,528.1914)">
          <path
             d="m 0,0 c 0,-1.286 -0.539,-3.613 -1.204,-3.613 -0.666,0 -1.205,2.327 -1.205,3.613 0,1.286 0.539,1.044 1.205,1.044 C -0.539,1.044 0,1.286 0,0"
             style="fill:#f2e3c4;fill-opacity:1;fill-rule:nonzero;stroke:none"
             id="path842" />
        </g>
        <g
           id="g844"
           transform="translate(227.8613,496.0937)">
          <path
             d="M 0,0 C 0,1.285 0.539,3.613 1.205,3.613 1.87,3.613 2.409,1.285 2.409,0 2.409,-1.286 1.87,-1.044 1.205,-1.044 0.539,-1.044 0,-1.286 0,0"
             style="fill:#f2e3c4;fill-opacity:1;fill-rule:nonzero;stroke:none"
             id="path846" />
        </g>
        <g
           id="g848"
           transform="translate(245.1152,510.9375)">
          <path
             d="M 0,0 C -1.286,0 -3.613,0.539 -3.613,1.205 -3.613,1.87 -1.286,2.409 0,2.409 1.285,2.409 1.044,1.87 1.044,1.205 1.044,0.539 1.285,0 0,0"
             style="fill:#f2e3c4;fill-opacity:1;fill-rule:nonzero;stroke:none"
             id="path850" />
        </g>
        <g
           id="g852"
           transform="translate(213.0166,513.3477)">
          <path
             d="M 0,0 C 1.286,0 3.613,-0.54 3.613,-1.205 3.613,-1.87 1.286,-2.41 0,-2.41 c -1.285,0 -1.043,0.54 -1.043,1.205 C -1.043,-0.54 -1.285,0 0,0"
             style="fill:#f2e3c4;fill-opacity:1;fill-rule:nonzero;stroke:none"
             id="path854" />
        </g>
        <g
           id="g856"
           transform="translate(241.2666,522.6387)">
          <path
             d="m 0,0 c -0.909,-0.909 -2.936,-2.173 -3.406,-1.703 -0.471,0.47 0.793,2.497 1.703,3.406 0.909,0.91 1.119,0.357 1.589,-0.113 C 0.356,1.12 0.909,0.91 0,0"
             style="fill:#f2e3c4;fill-opacity:1;fill-rule:nonzero;stroke:none"
             id="path858" />
        </g>
        <g
           id="g860"
           transform="translate(216.8662,501.6455)">
          <path
             d="M 0,0 C 0.909,0.909 2.936,2.174 3.406,1.703 3.877,1.233 2.612,-0.794 1.703,-1.702 0.794,-2.612 0.584,-2.06 0.113,-1.59 -0.356,-1.119 -0.909,-0.909 0,0"
             style="fill:#f2e3c4;fill-opacity:1;fill-rule:nonzero;stroke:none"
             id="path862" />
        </g>
        <g
           id="g864"
           transform="translate(239.5635,499.9414)">
          <path
             d="M 0,0 C -0.91,0.91 -2.174,2.938 -1.704,3.407 -1.234,3.878 0.793,2.613 1.703,1.704 2.612,0.795 2.06,0.585 1.589,0.114 1.119,-0.355 0.909,-0.909 0,0"
             style="fill:#f2e3c4;fill-opacity:1;fill-rule:nonzero;stroke:none"
             id="path866" />
        </g>
        <g
           id="g868"
           transform="translate(218.5693,524.3418)">
          <path
             d="m 0,0 c 0.909,-0.908 2.174,-2.937 1.703,-3.406 -0.47,-0.47 -2.497,0.794 -3.406,1.703 -0.909,0.91 -0.357,1.12 0.113,1.59 C -1.119,0.357 -0.909,0.91 0,0"
             style="fill:#f2e3c4;fill-opacity:1;fill-rule:nonzero;stroke:none"
             id="path870" />
        </g>
        <path
           d="m 248.404,612.4 h -38.153 v 19.658 h 38.153 z"
           style="fill:#f7eddc;fill-opacity:1;fill-rule:nonzero;stroke:none"
           id="path872" />
        <path
           d="M 252.1,615.347 H 206.557 V 635.16 H 252.1 Z"
           style="fill:#c64738;fill-opacity:1;fill-rule:nonzero;stroke:none"
           id="path874" />
        <path
           d="m 233.219,615.347 h -2.594 v 11.155 h 2.594 z"
           style="fill:#aa3930;fill-opacity:1;fill-rule:nonzero;stroke:none"
           id="path876" />
        <path
           d="m 238.406,615.347 h -2.595 v 11.155 h 2.595 z"
           style="fill:#aa3930;fill-opacity:1;fill-rule:nonzero;stroke:none"
           id="path878" />
        <path
           d="m 243.594,615.347 h -2.595 v 11.155 h 2.595 z"
           style="fill:#aa3930;fill-opacity:1;fill-rule:nonzero;stroke:none"
           id="path880" />
        <path
           d="m 248.78,615.347 h -2.594 v 11.155 h 2.594 z"
           style="fill:#aa3930;fill-opacity:1;fill-rule:nonzero;stroke:none"
           id="path882" />
        <path
           d="m 212.47,615.347 h -2.594 v 11.155 h 2.594 z"
           style="fill:#aa3930;fill-opacity:1;fill-rule:nonzero;stroke:none"
           id="path884" />
        <path
           d="m 217.657,615.347 h -2.595 v 11.155 h 2.595 z"
           style="fill:#aa3930;fill-opacity:1;fill-rule:nonzero;stroke:none"
           id="path886" />
        <path
           d="m 222.844,615.347 h -2.594 v 11.155 h 2.594 z"
           style="fill:#aa3930;fill-opacity:1;fill-rule:nonzero;stroke:none"
           id="path888" />
        <path
           d="m 228.031,615.347 h -2.594 v 11.155 h 2.594 z"
           style="fill:#aa3930;fill-opacity:1;fill-rule:nonzero;stroke:none"
           id="path890" />
        <g
           id="g892"
           transform="translate(458.9854,562.5605)">
          <path
             d="m 0,0 -13.559,54.706 c 0,3.031 -3.977,5.488 -8.882,5.488 h -18.647 c -4.905,0 -8.883,-2.457 -8.883,-5.488 L -63.529,0 c -1.218,-1.521 -1.95,-3.446 -1.95,-5.546 v -101.27 c 0,-4.907 3.977,-8.884 8.883,-8.884 h 49.662 c 4.906,0 8.883,3.977 8.883,8.884 V -5.546 C 1.949,-3.446 1.217,-1.521 0,0"
             style="fill:#f7eddc;fill-opacity:1;fill-rule:nonzero;stroke:none"
             id="path894" />
        </g>
        <g
           id="g896"
           transform="translate(454.2412,560.2148)">
          <path
             d="M 0,0 -9.991,40.314 H -44.05 L -54.041,0 l -0.71,-0.886 c -0.372,-0.464 -0.815,-1.243 -0.815,-2.314 v -101.271 c 0,-2.049 1.666,-3.715 3.714,-3.715 h 49.663 c 2.047,0 3.714,1.666 3.714,3.715 V -3.2 c 0,1.071 -0.443,1.85 -0.815,2.314 z"
             style="fill:#0d47a1;fill-opacity:1;fill-rule:nonzero;stroke:none"
             id="path898" />
        </g>
        <path
           d="m 460.935,480.096 h -67.952 v 64.094 h 67.952 z"
           style="fill:#d8c5a3;fill-opacity:1;fill-rule:nonzero;stroke:none"
           id="path900" />
        <g
           id="g902"
           transform="translate(452.4229,512.1426)">
          <path
             d="m 0,0 c 0,-14.064 -11.4,-25.465 -25.464,-25.465 -14.064,0 -25.465,11.401 -25.465,25.465 0,14.064 11.401,25.465 25.465,25.465 C -11.4,25.465 0,14.064 0,0"
             style="fill:#6ba152;fill-opacity:1;fill-rule:nonzero;stroke:none"
             id="path904" />
        </g>
        <g
           id="g906"
           transform="translate(449.7305,512.1426)">
          <path
             d="m 0,0 c 0,-12.576 -10.196,-22.771 -22.771,-22.771 -12.577,0 -22.772,10.195 -22.772,22.771 0,12.576 10.195,22.771 22.772,22.771 C -10.196,22.771 0,12.576 0,0"
             style="fill:#f2e3c4;fill-opacity:1;fill-rule:nonzero;stroke:none"
             id="path908" />
        </g>
        <g
           id="g910"
           transform="translate(447.5264,512.1426)">
          <path
             d="m 0,0 c 0,-11.359 -9.208,-20.568 -20.567,-20.568 -11.36,0 -20.568,9.209 -20.568,20.568 0,11.358 9.208,20.567 20.568,20.567 C -9.208,20.567 0,11.358 0,0"
             style="fill:#0d47a1;fill-opacity:1;fill-rule:nonzero;stroke:none"
             id="path912" />
        </g>
        <g
           id="g914"
           transform="translate(435.2832,512.1426)">
          <path
             d="m 0,0 c 0,-4.597 -3.728,-8.324 -8.324,-8.324 -4.598,0 -8.325,3.727 -8.325,8.324 0,4.597 3.727,8.324 8.325,8.324 C -3.728,8.324 0,4.597 0,0"
             style="fill:#d86e66;fill-opacity:1;fill-rule:nonzero;stroke:none"
             id="path916" />
        </g>
        <g
           id="g918"
           transform="translate(428.1631,528.1914)">
          <path
             d="m 0,0 c 0,-1.286 -0.539,-3.613 -1.204,-3.613 -0.666,0 -1.205,2.327 -1.205,3.613 0,1.286 0.539,1.044 1.205,1.044 C -0.539,1.044 0,1.286 0,0"
             style="fill:#f2e3c4;fill-opacity:1;fill-rule:nonzero;stroke:none"
             id="path920" />
        </g>
        <g
           id="g922"
           transform="translate(425.7539,496.0937)">
          <path
             d="M 0,0 C 0,1.285 0.539,3.613 1.205,3.613 1.87,3.613 2.409,1.285 2.409,0 2.409,-1.286 1.87,-1.044 1.205,-1.044 0.539,-1.044 0,-1.286 0,0"
             style="fill:#f2e3c4;fill-opacity:1;fill-rule:nonzero;stroke:none"
             id="path924" />
        </g>
        <g
           id="g926"
           transform="translate(443.0078,510.9375)">
          <path
             d="M 0,0 C -1.286,0 -3.613,0.539 -3.613,1.205 -3.613,1.87 -1.286,2.409 0,2.409 1.285,2.409 1.044,1.87 1.044,1.205 1.044,0.539 1.285,0 0,0"
             style="fill:#f2e3c4;fill-opacity:1;fill-rule:nonzero;stroke:none"
             id="path928" />
        </g>
        <g
           id="g930"
           transform="translate(410.9092,513.3477)">
          <path
             d="M 0,0 C 1.286,0 3.613,-0.54 3.613,-1.205 3.613,-1.87 1.286,-2.41 0,-2.41 c -1.285,0 -1.043,0.54 -1.043,1.205 C -1.043,-0.54 -1.285,0 0,0"
             style="fill:#f2e3c4;fill-opacity:1;fill-rule:nonzero;stroke:none"
             id="path932" />
        </g>
        <g
           id="g934"
           transform="translate(439.1592,522.6387)">
          <path
             d="m 0,0 c -0.909,-0.909 -2.936,-2.173 -3.406,-1.703 -0.471,0.47 0.793,2.497 1.703,3.406 0.909,0.91 1.119,0.357 1.589,-0.113 C 0.356,1.12 0.909,0.91 0,0"
             style="fill:#f2e3c4;fill-opacity:1;fill-rule:nonzero;stroke:none"
             id="path936" />
        </g>
        <g
           id="g938"
           transform="translate(414.7588,501.6455)">
          <path
             d="M 0,0 C 0.909,0.909 2.936,2.174 3.406,1.703 3.877,1.233 2.612,-0.794 1.703,-1.702 0.794,-2.612 0.584,-2.06 0.113,-1.59 -0.356,-1.119 -0.909,-0.909 0,0"
             style="fill:#f2e3c4;fill-opacity:1;fill-rule:nonzero;stroke:none"
             id="path940" />
        </g>
        <g
           id="g942"
           transform="translate(437.4561,499.9414)">
          <path
             d="M 0,0 C -0.91,0.91 -2.174,2.938 -1.704,3.407 -1.234,3.878 0.793,2.613 1.703,1.704 2.612,0.795 2.06,0.585 1.589,0.114 1.119,-0.355 0.909,-0.909 0,0"
             style="fill:#f2e3c4;fill-opacity:1;fill-rule:nonzero;stroke:none"
             id="path944" />
        </g>
        <g
           id="g946"
           transform="translate(416.4619,524.3418)">
          <path
             d="m 0,0 c 0.909,-0.908 2.174,-2.937 1.703,-3.406 -0.47,-0.47 -2.497,0.794 -3.406,1.703 -0.909,0.91 -0.357,1.12 0.113,1.59 C -1.119,0.357 -0.909,0.91 0,0"
             style="fill:#f2e3c4;fill-opacity:1;fill-rule:nonzero;stroke:none"
             id="path948" />
        </g>
        <path
           d="m 446.297,612.4 h -38.153 v 19.658 h 38.153 z"
           style="fill:#f7eddc;fill-opacity:1;fill-rule:nonzero;stroke:none"
           id="path950" />
        <path
           d="m 449.992,615.347 h -45.543 v 19.813 h 45.543 z"
           style="fill:#c64738;fill-opacity:1;fill-rule:nonzero;stroke:none"
           id="path952" />
        <path
           d="m 431.111,615.347 h -2.594 v 11.155 h 2.594 z"
           style="fill:#aa3930;fill-opacity:1;fill-rule:nonzero;stroke:none"
           id="path954" />
        <path
           d="m 436.299,615.347 h -2.595 v 11.155 h 2.595 z"
           style="fill:#aa3930;fill-opacity:1;fill-rule:nonzero;stroke:none"
           id="path956" />
        <path
           d="m 441.486,615.347 h -2.595 v 11.155 h 2.595 z"
           style="fill:#aa3930;fill-opacity:1;fill-rule:nonzero;stroke:none"
           id="path958" />
        <path
           d="m 446.673,615.347 h -2.594 v 11.155 h 2.594 z"
           style="fill:#aa3930;fill-opacity:1;fill-rule:nonzero;stroke:none"
           id="path960" />
        <path
           d="m 410.362,615.347 h -2.594 v 11.155 h 2.594 z"
           style="fill:#aa3930;fill-opacity:1;fill-rule:nonzero;stroke:none"
           id="path962" />
        <path
           d="m 415.55,615.347 h -2.595 v 11.155 h 2.595 z"
           style="fill:#aa3930;fill-opacity:1;fill-rule:nonzero;stroke:none"
           id="path964" />
        <path
           d="m 420.736,615.347 h -2.594 v 11.155 h 2.594 z"
           style="fill:#aa3930;fill-opacity:1;fill-rule:nonzero;stroke:none"
           id="path966" />
        <path
           d="m 425.924,615.347 h -2.594 v 11.155 h 2.594 z"
           style="fill:#aa3930;fill-opacity:1;fill-rule:nonzero;stroke:none"
           id="path968" />
        <g
           id="g970"
           transform="translate(396.7407,803.9756)">
          <path
             d="m 0,0 h -2.594 l -3.29,33.687 H 0 Z"
             style="fill:#d8c5a3;fill-opacity:1;fill-rule:nonzero;stroke:none"
             id="path972" />
        </g>
        <g
           id="g974"
           transform="translate(394.3467,823.834)">
          <path
             d="m 0,0 c 0,0 -31.671,-21.347 -43.897,9.474 0,0 33.601,16.481 43.897,-9.474"
             style="fill:#6ba152;fill-opacity:1;fill-rule:nonzero;stroke:none"
             id="path976" />
        </g>
        <g
           id="g978"
           transform="translate(447.999,761.5273)">
          <path
             d="m 0,0 c 0,-29.027 -23.529,-52.557 -52.556,-52.557 -29.025,0 -52.555,23.53 -52.555,52.557 0,29.025 23.53,52.556 52.555,52.556 C -23.529,52.556 0,29.025 0,0"
             style="fill:#0d47a1;fill-opacity:1;fill-rule:nonzero;stroke:none"
             id="path980" />
        </g>
        <g
           id="g982"
           transform="translate(261.8784,803.9756)">
          <path
             d="m 0,0 h -2.594 l -3.29,33.687 H 0 Z"
             style="fill:#d8c5a3;fill-opacity:1;fill-rule:nonzero;stroke:none"
             id="path984" />
        </g>
        <g
           id="g986"
           transform="translate(259.4844,823.834)">
          <path
             d="m 0,0 c 0,0 -31.671,-21.347 -43.897,9.474 0,0 33.601,16.481 43.897,-9.474"
             style="fill:#6ba152;fill-opacity:1;fill-rule:nonzero;stroke:none"
             id="path988" />
        </g>
        <g
           id="g990"
           transform="translate(313.1367,761.5273)">
          <path
             d="m 0,0 c 0,-29.027 -23.529,-52.557 -52.556,-52.557 -29.025,0 -52.555,23.53 -52.555,52.557 0,29.025 23.53,52.556 52.555,52.556 C -23.529,52.556 0,29.025 0,0"
             style="fill:#0d47a1;fill-opacity:1;fill-rule:nonzero;stroke:none"
             id="path992" />
        </g>
        <g
           id="g994"
           transform="translate(1140.7158,803.9756)">
          <path
             d="m 0,0 h -2.594 l -3.29,33.687 H 0 Z"
             style="fill:#d8c5a3;fill-opacity:1;fill-rule:nonzero;stroke:none"
             id="path996" />
        </g>
        <g
           id="g998"
           transform="translate(1138.3223,823.834)">
          <path
             d="m 0,0 c 0,0 -31.671,-21.347 -43.897,9.474 0,0 33.6,16.481 43.897,-9.474"
             style="fill:#6ba152;fill-opacity:1;fill-rule:nonzero;stroke:none"
             id="path1000" />
        </g>
        <g
           id="g1002"
           transform="translate(1191.9746,761.5273)">
          <path
             d="m 0,0 c 0,-29.027 -23.529,-52.557 -52.556,-52.557 -29.025,0 -52.555,23.53 -52.555,52.557 0,29.025 23.53,52.556 52.555,52.556 C -23.529,52.556 0,29.025 0,0"
             style="fill:#0d47a1;fill-opacity:1;fill-rule:nonzero;stroke:none"
             id="path1004" />
        </g>
        <g
           id="g1006"
           transform="translate(1005.8535,803.9756)">
          <path
             d="m 0,0 h -2.594 l -3.29,33.687 H 0 Z"
             style="fill:#d8c5a3;fill-opacity:1;fill-rule:nonzero;stroke:none"
             id="path1008" />
        </g>
        <g
           id="g1010"
           transform="translate(1003.46,823.834)">
          <path
             d="m 0,0 c 0,0 -31.671,-21.347 -43.897,9.474 0,0 33.6,16.481 43.897,-9.474"
             style="fill:#6ba152;fill-opacity:1;fill-rule:nonzero;stroke:none"
             id="path1012" />
        </g>
        <g
           id="g1014"
           transform="translate(1057.1123,761.5273)">
          <path
             d="m 0,0 c 0,-29.027 -23.529,-52.557 -52.556,-52.557 -29.025,0 -52.555,23.53 -52.555,52.557 0,29.025 23.53,52.556 52.555,52.556 C -23.529,52.556 0,29.025 0,0"
             style="fill:#0d47a1;fill-opacity:1;fill-rule:nonzero;stroke:none"
             id="path1016" />
        </g>
        <path
           d="M 802.234,610.95 H 595.375 v -32.617 h 206.859 z"
           style="fill:#6ba152;fill-opacity:1;fill-rule:nonzero;stroke:none"
           id="path1018" />
        <g
           id="g1020"
           transform="translate(837.8281,764.8633)" />
      </g>
    </g>
  </g>
</svg>
