<svg id="Layer_1" data-name="Layer 1" xmlns="http://www.w3.org/2000/svg" viewBox="0 0 288.15 63.99"><defs><style>.cls-1{fill:#76ff03;}</style></defs><title>logo</title><path class="cls-1" d="M.85,11V54.33a10,10,0,0,0,10,10H59.49a6.76,6.76,0,0,0,6.78-6.81L66,35.11H78.88a1.7,1.7,0,0,0,1.7-1.7V29.74a1.7,1.7,0,0,0-1.7-1.7l-12.71,0V18.14a1.68,1.68,0,0,1,1.68-1.68H83.33a1.7,1.7,0,0,0,1.7-1.7V10.9a1.68,1.68,0,0,0-1.68-1.68H58.67a1.7,1.7,0,0,0-1.7,1.7V54.65A3.38,3.38,0,0,1,53.58,58l-41.07,0a5,5,0,0,1-5-5V12.18a5,5,0,0,1,5-5H82.59a6.77,6.77,0,0,1,6.54,5L99.35,49.3a6.77,6.77,0,0,0,6.54,5h5.45l8.76-32,8.7,32h5.53a6.78,6.78,0,0,0,6.53-4.93L151.32,12a6.78,6.78,0,0,1,6.53-4.93h118.7a5,5,0,0,1,5,5V53a5,5,0,0,1-5,5H104.21a3.5,3.5,0,0,0-3.5,3.5h0a3.5,3.5,0,0,0,3.51,3.5L279,64.53a10,10,0,0,0,10-10V11A10,10,0,0,0,279,1H149.83a6.77,6.77,0,0,0-6.6,5.2L134.34,43.9,125.47,9.09H115.35l-9.1,35.32L97.66,6.27A6.77,6.77,0,0,0,91,1H10.85A10,10,0,0,0,.85,11Z" transform="translate(-0.85 -1)"/><path class="cls-1" d="M197.46,27a25.67,25.67,0,0,0-.62-2.53,25.31,25.31,0,0,0-1.19-3.2,18.47,18.47,0,0,0-1.75-3.14,16.91,16.91,0,0,0-2.43-2.75,24.5,24.5,0,0,0-15.82-6.23H159.77a1.69,1.69,0,0,0-1.7,1.68V52.61a1.69,1.69,0,0,0,1.7,1.68h9c3.48,0,3.51,0,4.18,0a35,35,0,0,0,9.49-1.18A20.48,20.48,0,0,0,189.16,50a20.91,20.91,0,0,0,3.33-3.09,21.41,21.41,0,0,0,2.37-3.31,22.61,22.61,0,0,0,2.6-7.13,24.47,24.47,0,0,0,.4-4.32A26,26,0,0,0,197.46,27ZM188,37a18.1,18.1,0,0,1-1.24,2.81A12.75,12.75,0,0,1,185.37,42,11,11,0,0,1,182,44.74a13,13,0,0,1-3.11,1.18c-.74.18-1.52.29-2.2.39s-1.29.17-1.72.22h-6.08a1.69,1.69,0,0,1-1.7-1.68V18.52a1.69,1.69,0,0,1,1.7-1.68h5.2a18.34,18.34,0,0,1,4.75.62,13.21,13.21,0,0,1,3,1.18,12.3,12.3,0,0,1,3.56,2.92,12.62,12.62,0,0,1,2.15,4.1,18.32,18.32,0,0,1,1,5.11A15.46,15.46,0,0,1,188,37Z" transform="translate(-0.85 -1)"/><path class="cls-1" d="M229.3,9.14,206.39,9a1.69,1.69,0,0,0-1.7,1.68V52.57a1.69,1.69,0,0,0,1.7,1.68h23a1.69,1.69,0,0,0,1.7-1.68v-4a1.69,1.69,0,0,0-1.7-1.68H215.49a1.69,1.69,0,0,1-1.7-1.68V36.56a1.69,1.69,0,0,1,1.7-1.68h11.89a1.69,1.69,0,0,0,1.7-1.68V29.4a1.69,1.69,0,0,0-1.7-1.68H215.49A1.69,1.69,0,0,1,213.8,26V18.1a1.69,1.69,0,0,1,1.7-1.68h13.83a1.69,1.69,0,0,0,1.7-1.7l0-3.91A1.69,1.69,0,0,0,229.3,9.14Z" transform="translate(-0.85 -1)"/><path class="cls-1" d="M238.1,9.15h6.15a1.69,1.69,0,0,1,1.6,1.13l10.47,30.1a1.7,1.7,0,0,0,3.2,0L270,10.28a1.69,1.69,0,0,1,1.6-1.13h6a1.69,1.69,0,0,1,1.59,2.27L263.78,53.15a1.69,1.69,0,0,1-1.59,1.1h-8.61a1.69,1.69,0,0,1-1.59-1.1L236.51,11.42A1.69,1.69,0,0,1,238.1,9.15Z" transform="translate(-0.85 -1)"/><path class="cls-1" d="M50.08,27.34a25.67,25.67,0,0,0-.62-2.53,25.31,25.31,0,0,0-1.19-3.2,18.47,18.47,0,0,0-1.75-3.14,16.91,16.91,0,0,0-2.43-2.75A24.5,24.5,0,0,0,28.26,9.48H10.68V54.64H21.37c3.48,0,3.51,0,4.18,0A35,35,0,0,0,35,53.45a20.48,20.48,0,0,0,6.73-3.14,20.91,20.91,0,0,0,3.33-3.09,21.41,21.41,0,0,0,2.37-3.31,22.61,22.61,0,0,0,2.6-7.13,24.47,24.47,0,0,0,.4-4.32A26,26,0,0,0,50.08,27.34ZM40.58,37.39a18.1,18.1,0,0,1-1.24,2.81A12.75,12.75,0,0,1,38,42.33a11,11,0,0,1-3.39,2.75,13,13,0,0,1-3.11,1.18c-.74.18-1.52.29-2.2.39s-1.37.18-1.81.22H19.78V17.18h6.89a18.34,18.34,0,0,1,4.75.62,13.21,13.21,0,0,1,3,1.18A12.3,12.3,0,0,1,38,21.89,12.62,12.62,0,0,1,40.13,26a18.32,18.32,0,0,1,1,5.11A15.46,15.46,0,0,1,40.58,37.39Z" transform="translate(-0.85 -1)"/></svg>