<svg id="Layer_1" data-name="Layer 1" xmlns="http://www.w3.org/2000/svg" viewBox="0 0 302.87864 296.35618"><defs><style>.cls-1,.cls-4{fill:#fff;}.cls-1{stroke:#0d47a1;stroke-miterlimit:10;stroke-width:4.69515px;}.cls-2{fill:#d32f2f;}.cls-3{fill:#0d47a1;}</style></defs><title>txBig</title><path class="cls-1" d="M171.65918,5.28579h76.06137V56.9324c.51714,1.09686,1.43611,2.62964,2.81709,2.81709,1.56584.21253,2.09107-1.52645,3.75612-1.87806,3.49285-.73757,5.07087,6.09362,11.26835,7.51223,2.20684.50515,3.27531-.07065,6.5732.939,2.36958.72546,2.62242,1.269,4.22563,1.40854,3.2915.28645,4.03068-1.84761,6.5732-1.40854,2.46616.42588,2.27123,2.52006,5.63418,3.75612,2.13494.7847,2.54129.0612,5.16466.939,2.87.96038,2.68951,1.9287,4.69515,2.34757,2.47246.51635,3.18688-.86323,7.51223-1.40854a23.01713,23.01713,0,0,1,5.63418,0c2.77021.34119,5.2343.64467,7.51223,2.34757,1.67007,1.24848,2.06547,2.37111,3.2866,2.34757,1.29678-.025,1.626-1.306,3.2866-2.34757,1.77369-1.11253,2.95544-.628,6.5732-.939,3.47866-.29906,2.93865-.79456,7.51223-1.40854,3.82065-.51292,5.776-.754,7.98175,0a20.5808,20.5808,0,0,1,4.22563,2.34757c2.95814,1.888,2.95384,2.35987,4.69515,3.2866,2.449,1.3034,2.82385.56507,6.5732,1.87806,3.61788,1.267,3.58114,2.06376,6.5732,2.81709,3.0217.76078,3.74379.12049,5.16466.939,1.32939.76583,2.89263,2.591,3.2866,7.51223v34.74408a12.16057,12.16057,0,0,0,1.40854,2.81709c1.367,2.02048,2.38,2.17122,3.2866,3.75612.75293,1.3163.23481,1.528.939,4.69515a31.25422,31.25422,0,0,0,1.87806,5.63418c1.06495,2.38543,1.66961,2.81531,2.34757,4.22563.72886,1.51629,1.33341,3.731.46951,9.85981-1.07119,7.59975-2.4222,7.18486-2.81709,12.20738-.53548,6.81086,1.89393,8.27259,0,12.20738-1.36069,2.82686-3.26906,3.43218-3.75612,6.5732-.46751,3.01514,1.01933,4.20944,0,5.63418-1.09223,1.52664-3.14744.64189-7.98175,2.34757-1.44041.50823-.89937.46026-3.2866,1.40854a86.45392,86.45392,0,0,1-8.45126,2.81709,6.67222,6.67222,0,0,0-3.75612,1.40854c-1.53269,1.27168-1.14112,2.35746-2.81709,4.22563-1.63677,1.82444-2.69885,1.5565-3.75612,3.2866-.81088,1.32687-.65928,2.25865-.939,3.2866-.3099,1.13865-1.38356,3.25686-10.79884,6.5732-7.78556,2.74229-9.43121,2.13216-12.20738,4.69515-1.85095,1.70884-1.94569,2.74292-4.22563,4.22563-3.06308,1.992-4.73509,1.32409-6.5732,3.2866-1.38568,1.47944-.77064,2.21684-2.34757,5.63418-1.31518,2.85013-2.18188,3.28821-4.22563,6.5732a38.30358,38.30358,0,0,0-3.75612,7.51223c-1.59888,4.67291-1.26469,8.70892-.939,12.20738.54649,5.87091,1.89646,7.32972,3.2866,14.08544,1.27082,6.17579,2.87182,9.02644,1.40854,12.20738a6.96014,6.96014,0,0,1-3.2866,3.75612c-1.25632.5783-1.93451-.07746-3.2866.46951-1.91113.77311-2.07677,2.44988-3.2866,3.2866-2.32184,1.60579-6.633-.56119-8.92078-2.34757-2.08009-1.62422-2.40529-2.9604-4.22563-3.2866-1.71317-.307-2.20228.73723-4.22563.939-2.25392.22478-3.55073-.88114-7.98175-3.2866-3.41172-1.85212-4.29928-2.03607-6.5732-3.2866-2.14368-1.17892-1.91669-1.16447-3.2866-1.87806-4.22357-2.2-5.70072-1.98274-7.51223-3.2866-2.08422-1.50013-4.27561-4.44724-3.75612-7.04272.2931-1.46437,1.22955-1.68013,1.40854-2.81709.43289-2.7498-5.77967-3.15911-7.51223-7.51223-.60334-1.51589.174-1.29415-.46951-5.63418a17.21653,17.21653,0,0,0-1.87806-6.5732c-1.02732-1.77787-1.5671-1.63932-3.2866-3.75612-2.1797-2.68332-2.32958-4.1582-4.22563-7.51223a31.79388,31.79388,0,0,0-4.69515-6.5732c-2.25037-2.40712-2.94862-2.32625-4.22563-4.22563-1.00256-1.49119-1.17992-2.445-2.34757-6.5732-1.40221-4.9575-2.1033-7.43624-2.81709-8.92078a26.30382,26.30382,0,0,0-4.69515-6.5732c-2.30748-2.56287-3.56807-3.25241-8.45126-7.51223-2.06774-1.80378-3.7013-3.30233-4.69515-4.22563l-17.372-.46951a12.13137,12.13137,0,0,0-3.2866,5.63418c-.68155,2.79645.24072,4.0426-.939,5.63418-1.38075,1.86276-3.42281,1.20643-4.69515,3.2866-.858,1.40281-.19183,2.13041-.939,3.2866-1.5189,2.35024-5.98729,1.99819-7.51223,1.87806-1.25182-.09864-4.2287-.464-10.32932-3.75612-2.76244-1.4907-3.63152-2.21418-7.51223-4.69515-8.80429-5.62867-8.32062-4.45557-10.79884-6.5732a29.964,29.964,0,0,1-8.92078-13.14641c-.81775-2.55691-.52924-3.06173-1.87806-7.51223-1.42316-4.69578-2.13474-7.04367-3.75612-8.92078-2.62308-3.0368-4.35774-1.86734-8.45126-5.16466-3.19943-2.57711-3.21189-4.15508-6.5732-7.98175-3.349-3.81263-4.50512-3.13922-8.92078-7.51223-2.582-2.55708-2.128-2.59823-5.16466-5.63418-4.24538-4.24437-5.19223-4.22334-6.5732-6.5732-.72832-1.23927-3.00459-5.11256-1.40854-8.92078a8.60574,8.60574,0,0,1,4.22563-4.22563h73.24428V5.28579Z" transform="translate(-88.46893 -2.93822)"/><path class="cls-2" d="M242.75233,152.82415,241.8133,11.859H174.77472V128.39155H97.00635v5.59018a11.03288,11.03288,0,0,0,2.32839,2.79678c1.84393,1.57649,2.66483,1.1715,4.19111,2.33065,2.977,2.26092,2.06386,5.48,4.65679,6.52582,1.28681.519,1.72458-.188,3.25975.46613,1.54947.66022,2.04186,1.78031,3.25975,3.26291,2.35164,2.86279,3.31154,2.09008,5.58815,4.6613,2.61816,2.957,1.52008,4.17253,3.72543,6.05969,2.3708,2.02874,3.7092.68332,6.98518,2.79678a12.16495,12.16495,0,0,1,5.12247,6.05969c.64434,1.93946.25191,2.97627,1.397,4.6613,1.19072,1.75211,2.15658,1.428,2.79407,2.79678,1.03837,2.22945-1.22784,3.72551-.46568,6.52582.5032,1.84882,1.59037,1.5617,2.79407,4.19517,1.15917,2.536.31842,3.16866,1.397,4.6613,1.21928,1.68733,2.42995,1.0676,5.12247,3.26291,1.47048,1.199,1.06028,1.34377,2.79407,2.79678,1.73766,1.45626,3.16024,2.64847,5.12247,2.79678,1.44268.10905,1.844-.447,2.79407,0,1.32743.62451.97342,1.91195,2.32839,2.79678,1.47972.96629,2.66469-.071,3.72543.93226.99946.94532.44539,2.33728,1.397,2.79678.8296.40058,1.61433-.48164,2.32839,0,.64929.438.241,1.32965.93136,1.86452.73109.56645,1.93067.141,2.32839,0a3.74541,3.74541,0,0,0,1.86272-1.39839c.93531-1.393.09914-2.44559.93136-3.26291.69187-.67948,1.41645-.096,2.79407-.93226a3.04123,3.04123,0,0,0,1.397-1.39839c.45911-1.14871-.46537-1.867,0-2.79678.44632-.89175,1.46525-.56775,1.86272-1.39839.48461-1.01275-.85152-1.86768-.46568-3.26291.23008-.83194.7511-.69416,1.397-1.86452.79635-1.44286.23446-2.069.93136-2.79678.7206-.75251,1.3172-.07869,3.25975-.93226,1.03811-.45614,1.37228-.8703,2.32839-.93226.76676-.0497.96649.18976,1.397,0,.97141-.42815.63889-1.94882,1.397-2.33065.8254-.41569,1.74007,1.12456,3.72543,1.86452,2.07486.77334,2.44049-.40027,5.58815,0,2.9033.36917,3.68683,1.50681,5.58815.93226,1.25379-.37887,1.4256-1.02845,2.32839-.93226,1.09308.11648,1.83549,1.17466,3.25975,3.26291,1.30043,1.90668,1.10818,2.12581,1.86272,2.79678,1.49683,1.331,2.47432.66525,3.72543,1.86452,1.38956,1.332.54211,2.49674,1.86272,3.729,1.4715,1.3731,3.08515.45085,4.19111,1.86452.78788,1.00706.10792,1.65271.93136,2.79678,1.11855,1.55413,2.99946,1.2329,3.25975,2.33065.20913.882-.969,1.2412-.93136,2.33065.05241,1.51475,2.35668,1.59265,3.25975,3.729.55751,1.31887-.15067,1.69134.46568,3.729a9.966,9.966,0,0,0,1.397,2.79678c1.496,2.21,2.39374,1.98151,2.79407,3.26291.60322,1.93084-1.226,3.119-.46568,4.6613.44874.91024,1.17346.67407,2.79407,1.86452,1.23156.90466,1.18912,1.31731,3.25975,3.729,2.37012,2.76059,2.6791,2.51507,3.25975,3.729,1.10491,2.31008-.04627,3.13147.93136,4.6613,1.62567,2.54386,5.50586,1.36348,6.5195,3.729.5485,1.28007-.39067,2.08549.46568,3.729.6182,1.18646,1.50564,1.53057,1.397,2.33065-.12887.94939-1.479,1.2053-1.397,1.86452.07592.61106,1.25046.50872,1.86272,1.39839.53188.77285.02976,1.40849,0,3.26291a7.17808,7.17808,0,0,0,.93136,4.19517c.74749,1.1146,1.26092.76642,2.32839,1.86452,2.22786,2.29179,2.3243,6.21466,2.32839,6.52582.016,1.2181-.19231,2.17085.46568,2.79678.67442.64153,1.75374.45922,1.86272.93226.11318.49134-1.00165.90276-.93136,1.39839.08211.57891,1.70235.71757,2.79407.93226,3.05056.59993,3.06216,2.00748,6.98518,3.729,3.28709,1.44249,3.41736.515,5.58815,1.86452,2.11255,1.3133,2.47332,2.49262,4.65679,3.26291a13.15325,13.15325,0,0,0,3.72543.46613c4.35534.21867,5.365-.46957,6.98518.46613,1.03874.5999.62752.885,2.32839,2.33065,1.08518.92233,3.58838,3.04988,5.12247,2.33065.94693-.44394.65225-1.56349,1.86272-2.33065,1.19154-.75516,2.12864-.08438,2.79407-.46613,1.98044-1.13619-1.65927-9.81844-3.72543-20.0436-1.8605-9.20735-1.15584-13.28505-.93136-14.45a33.68642,33.68642,0,0,1,3.72543-9.78874s1.24185-2.30072,7.45086-10.721c-1.02777-1.20223-1.085-1.90583-.93136-2.33065.264-.73009,1.18927-.74406,1.86272-1.86452a3.64331,3.64331,0,0,0,.46568-1.39839c.18037-1.69393-1.72532-2.58969-1.397-3.26291.26274-.53882,1.7476-.63843,2.32839,0,.512.56278-.01069,1.33409.46568,1.86452.60853.67763,2.1599.19662,2.79407,0,.83245-.2581,3.61936-1.12219,3.72543-2.79678.089-1.40471-1.74908-2.73755-2.79407-3.26291-1.00884-.50721-1.48111-.36362-1.86272-.93226,0,0-.342-.50972,0-3.26291,0,0,1.03169-.31321,1.397,0,.47148.40422-.45022,1.609,0,2.33065.20749.33256.759.64685,2.32839.46613.47546-2.498.75838-3.27967.93136-3.26291.30253.0293.04866,2.47928.93136,2.79678.74621.26843,1.63641-1.22755,2.32839-.93226.70284.29989.2462,2.0402.93136,2.33065.615.26072,1.17466-1.0602,2.79407-1.39839,1.1306-.23611,1.40244.29395,2.32839,0,1.26476-.40149,1.17716-1.52363,2.32839-2.33065,1.55609-1.09081,2.66486.29415,5.12247-.46613,1.70844-.52852,1.4395-1.28041,4.19111-2.79678,2.336-1.28732,2.743-.86287,3.72543-1.86452a7.7256,7.7256,0,0,0,1.86272-4.6613c.04332-1.46405-.39587-2.60429,0-2.79678.41565-.20214.97831,1.01693,1.86272.93226.89168-.08535.8686-1.37708,2.32839-2.33065.90794-.593,1.34923-.37583,1.86272-.93226.83222-.90182.97257-2.46064.46568-2.79678-.52827-.35034-1.67848.68543-1.86272.46613-.23386-.27836,1.75135-1.79021,1.397-2.79678-.30111-.85547-2.00148-.5201-2.32839-1.39839-.30185-.81092.75508-2.15153,1.86272-2.79678,1.06455-.62013,1.55529-.23642,2.32839-.93226.79049-.71151.66083-1.45788,1.397-1.86452.56419-.31164,1.50118-.40846,1.86272,0,.96581,1.09118-2.70522,5.18675-1.86272,6.05969.4243.43961,1.46787-.48246,3.72543-.46613a21.75318,21.75318,0,0,1,2.79407.46613c2.52781.16857,3.2597-1.81647,6.05383-2.79678,3.74328-1.3133,6.8653.69322,7.45086-.46613.53566-1.06046-2.0648-2.76236-1.397-4.6613.21357-.60739.48643-.45259,1.397-1.86452a21.32353,21.32353,0,0,1,1.397-2.33065c.84467-.9858,1.53136-.69021,1.86272-1.39839.3367-.71957-.20334-1.17059-.46568-2.79678a17.65579,17.65579,0,0,1,0-3.26291c.09334-2.07784.27593-3.17924,0-3.26291-.284-.08615-.72819,1.00487-.93136.93226-.27633-.09872.05736-2.29048.93136-4.6613,1.30421-3.53774,2.27132-3.29586,2.79407-5.59356.55441-2.43688-.431-3.15893,0-6.52582.21823-1.7046,1.0488-2.221.93136-3.729" transform="translate(-88.46893 -2.93822)"/><path class="cls-2" d="M378.27639,171.74167" transform="translate(-88.46893 -2.93822)"/><path class="cls-2" d="M250.06812,213.28077" transform="translate(-88.46893 -2.93822)"/><path class="cls-3" d="M241.8133,11.859H174.77472V128.39155H97.00635v6.05969a11.03288,11.03288,0,0,0,2.32839,2.79678c1.84393,1.57649,2.66483,1.1715,4.19111,2.33065,2.977,2.26092,2.06386,5.48,4.65679,6.52582,1.28681.519,1.72458-.188,3.25975.46613,1.54947.66022,2.04186,1.78031,3.25975,3.26291,2.35164,2.86279,3.31154,2.09008,5.58815,4.6613,2.61816,2.957,1.52008,4.17253,3.72543,6.05969,2.3708,2.02874,3.7092.68332,6.98518,2.79678a12.16495,12.16495,0,0,1,5.12247,6.05969c.64434,1.93946.25191,2.97627,1.397,4.6613,1.19072,1.75211,2.15658,1.428,2.79407,2.79678,1.03837,2.22945-1.22784,3.72551-.46568,6.52582.5032,1.84882,1.59037,1.5617,2.79407,4.19517,1.15917,2.536.31842,3.16866,1.397,4.6613,1.21928,1.68733,2.42995,1.0676,5.12247,3.26291,1.47048,1.199,1.06028,1.34377,2.79407,2.79678,1.73766,1.45626,3.16024,2.64847,5.12247,2.79678,1.44268.10905,1.844-.447,2.79407,0,1.32743.62451.97342,1.91195,2.32839,2.79678,1.47972.96629,2.66469-.071,3.72543.93226.99946.94532.44539,2.33728,1.397,2.79678.8296.40058,1.61433-.48164,2.32839,0,.64929.438.241,1.32965.93136,1.86452.73109.56645,1.93067.141,2.32839,0a3.74541,3.74541,0,0,0,1.86272-1.39839c.93531-1.393.09914-2.44559.93136-3.26291.69187-.67948,1.41645-.096,2.79407-.93226a3.04123,3.04123,0,0,0,1.397-1.39839c.45911-1.14871-.46537-1.867,0-2.79678.44632-.89175,1.46525-.56775,1.86272-1.39839.48461-1.01275-.85152-1.86768-.46568-3.26291.23008-.83194.7511-.69416,1.397-1.86452.79635-1.44286.23446-2.069.93136-2.79678.7206-.75251,1.3172-.07869,3.25975-.93226,1.03811-.45614,1.37228-.8703,2.32839-.93226.76676-.0497.96649.18976,1.397,0,.97141-.42815.63889-1.94882,1.397-2.33065.8254-.41569,1.74007,1.12456,3.72543,1.86452,2.07486.77334,2.44049-.40027,5.58815,0,2.9033.36917,3.68683,1.50682,5.58815.93226,1.25379-.37887,1.4256-1.02845,2.32839-.93226,1.09308.11648,1.83549,1.17466,3.25975,3.26291,1.30043,1.90668,1.10818,2.12581,1.86272,2.79678,1.49683,1.331,2.47432.66525,3.72543,1.86452,1.38956,1.332.54211,2.49674,1.86272,3.729,1.4715,1.3731,3.08515.45085,4.19111,1.86452.78788,1.00706.10792,1.65271.93136,2.79678,1.11855,1.55413,2.99946,1.2329,3.25975,2.33065.20913.882-.969,1.2412-.93136,2.33065.05241,1.51475,2.35668,1.59265,3.25975,3.729.55751,1.31887-.15067,1.69134.46568,3.729a9.966,9.966,0,0,0,1.397,2.79678c1.496,2.21,2.39374,1.98151,2.79407,3.26291.60322,1.93084-1.226,3.119-.46568,4.6613.44874.91024,1.17346.67407,2.79407,1.86452a38.88906,38.88906,0,0,1,5.384,5.33324" transform="translate(-88.46893 -2.93822)"/><path class="cls-2" d="M278.239,209.99417" transform="translate(-88.46893 -2.93822)"/><polygon class="cls-4" points="110.909 116.076 121.19 138.149 143.248 137.602 127.287 153.16 131.055 175.129 111.326 162.255 91.596 175.129 95.364 153.16 79.403 137.602 101.461 138.149 110.909 116.076"/></svg>