<svg id="Layer_1" data-name="Layer 1" xmlns="http://www.w3.org/2000/svg" viewBox="0 0 79.46323 79.71323"><defs><style>.cls-1,.cls-5{fill:#fff;}.cls-1,.cls-2{stroke:#0d47a1;stroke-miterlimit:10;}.cls-1{stroke-width:2.71323px;}.cls-2{fill:none;}.cls-3{fill:#d32f2f;}.cls-4{fill:#0d47a1;}</style></defs><title>txIcon</title><rect class="cls-1" x="1.35662" y="1.35662" width="76.75" height="77" rx="10.85293" ry="10.85293"/><path class="cls-2" d="M23.82483,10.53861h16.2v11c.11014.23362.30587.56008.6.6.3335.04527.44537-.32511.8-.4.74393-.15709,1.08,1.29785,2.4,1.6a8.9293,8.9293,0,0,1,1.4.2c.50469.15451.55854.27028.9.3.701.061.85848-.39352,1.4-.3.52526.09071.48374.53674,1.2.8.45471.16713.54126.013,1.1.2.61128.20455.57283.41078,1,.5.5266.11.67876-.18386,1.6-.3a4.90233,4.90233,0,0,1,1.2,0,3.09782,3.09782,0,0,1,1.6.5c.3557.26591.43992.505.7.5.2762-.00533.34631-.27815.7-.5.37777-.237.62947-.13376,1.4-.2.74091-.0637.62589-.16923,1.6-.3a3.54088,3.54088,0,0,1,1.7,0,4.38342,4.38342,0,0,1,.9.5c.63.40213.62913.50262,1,.7.52161.27761.60144.12035,1.4.4.77056.26984.76273.43955,1.4.6.64358.162.79738.02566,1.1.2.28314.16311.61609.55184.7,1.6v7.4a2.59,2.59,0,0,0,.3.6c.29116.43033.50691.46244.7.8.16036.28035.05.32545.2,1a6.65671,6.65671,0,0,0,.4,1.2c.22682.50806.3556.59962.5.9a3.45939,3.45939,0,0,1,.1,2.1c-.22815,1.61864-.51589,1.53027-.6,2.6-.11405,1.45062.40338,1.76194,0,2.6-.28981.60208-.69626.731-.8,1.4-.09957.64218.2171.89655,0,1.2-.23263.32515-.67036.13671-1.7.5-.30679.10825-.19155.098-.7.3a18.41346,18.41346,0,0,1-1.8.6,1.42109,1.42109,0,0,0-.8.3c-.32644.27085-.243.50211-.6.9-.34861.38858-.57482.33151-.8.7a1.93537,1.93537,0,0,0-.2.7c-.066.24252-.29468.69366-2.3,1.4-1.65822.58407-2.00872.45412-2.6,1-.39423.364-.4144.5842-.9.9-.65239.42427-1.00851.282-1.4.7-.29513.3151-.16414.47216-.5,1.2a11.432,11.432,0,0,1-.9,1.4,8.15812,8.15812,0,0,0-.8,1.6,5.85533,5.85533,0,0,0-.2,2.6,23.88822,23.88822,0,0,0,.7,3c.27067,1.31536.61166,1.9225.3,2.6a1.48241,1.48241,0,0,1-.7.8c-.26758.12317-.412-.0165-.7.1-.407.16466-.44232.52179-.7.7-.49452.342-1.41273-.11953-1.9-.5-.443-.34594-.51229-.63052-.9-.7-.36488-.06538-.46906.157-.9.2-.48005.04788-.75626-.18767-1.7-.7-.72665-.39448-.91569-.43365-1.4-.7-.45657-.25109-.40823-.248-.7-.4-.89956-.46858-1.21417-.4223-1.6-.7a1.71948,1.71948,0,0,1-.8-1.5c.06243-.31189.26188-.35784.3-.6.0922-.58567-1.231-.67285-1.6-1.6-.1285-.32286.03707-.27563-.1-1.2a3.66688,3.66688,0,0,0-.4-1.4c-.2188-.37866-.33377-.34915-.7-.8a9.16523,9.16523,0,0,1-.9-1.6,6.77165,6.77165,0,0,0-1-1.4c-.4793-.51268-.628-.49546-.9-.9a4.41052,4.41052,0,0,1-.5-1.4,14.70617,14.70617,0,0,0-.6-1.9,5.60234,5.60234,0,0,0-1-1.4,19.67437,19.67437,0,0,0-1.8-1.6c-.4404-.38418-.78832-.70335-1-.9l-3.7-.1a2.58381,2.58381,0,0,0-.7,1.2c-.14516.59561.05127.861-.2,1.2-.29408.39674-.729.257-1,.7-.18275.29878-.04086.45375-.2.7-.3235.50057-1.27521.42559-1.6.4a5.50494,5.50494,0,0,1-2.2-.8c-.58836-.3175-.77346-.47159-1.6-1-1.87519-1.19883-1.77217-.949-2.3-1.4a6.38191,6.38191,0,0,1-1.9-2.8c-.17417-.54459-.11272-.65211-.4-1.6a5.06692,5.06692,0,0,0-.8-1.9c-.55868-.6468-.92814-.39772-1.8-1.1-.68143-.54889-.68409-.885-1.4-1.7-.71328-.812-.95953-.66861-1.9-1.6-.54993-.54462-.45323-.55339-1.1-1.2-.90421-.904-1.10587-.89951-1.4-1.4a2.19194,2.19194,0,0,1-.3-1.9,1.8329,1.8329,0,0,1,.9-.9h15.6v-25.1Z" transform="translate(-0.39338 -0.14338)"/><path class="cls-3" d="M38.96667,41.9622l-.2-30.02359H24.48839V36.7584H7.92483V37.949a2.34985,2.34985,0,0,0,.49592.59568c.39273.33577.56757.24951.89265.4964.63406.48154.43957,1.16717.99183,1.38991.27407.11054.36731-.04.69428.09928.33.14062.43489.37918.69428.695.50087.60973.70531.44516,1.1902.99279.55763.62979.32376.88869.79346,1.29063.50495.43209.79.14554,1.48775.59568a2.591,2.591,0,0,1,1.091,1.29063c.13724.41308.05365.6339.29755.99279.25361.37318.45932.30415.5951.59568.22116.47484-.26151.79348-.09918,1.38991.10717.39377.33873.33262.5951.89351.24689.54013.06782.67488.29755.99279.25969.35938.51754.22738,1.091.695.31319.25536.22583.2862.5951.59568a1.97051,1.97051,0,0,0,1.091.59568c.30727.02323.39275-.0952.5951,0,.28272.133.20733.40722.49592.59568.31516.20581.56754-.01512.79346.19856.21287.20134.09486.49781.29755.59568.17669.08532.34383-.10258.49592,0,.13829.09328.05133.2832.19837.39712.15571.12065.41121.03.49592,0a.79772.79772,0,0,0,.39673-.29784c.19921-.29669.02112-.52088.19837-.695.14736-.14472.30168-.02044.5951-.19856a.64774.64774,0,0,0,.29755-.29784c.09778-.24466-.09912-.39764,0-.59568.09506-.18993.31208-.12092.39673-.29784.10321-.2157-.18136-.39779-.09918-.695.049-.17719.16-.14785.29755-.39712.16961-.30731.04994-.44067.19837-.59568.15348-.16027.28054-.01676.69428-.19856.2211-.09715.29228-.18536.49592-.19856.16331-.01059.20585.04042.29755,0,.2069-.09119.13607-.41507.29755-.4964.1758-.08854.37061.23951.79346.39712.44192.16471.51979-.08525,1.1902,0,.61836.07863.78524.32093,1.1902.19856.267-.08069.30363-.219.49592-.19856.23281.02481.39093.25019.69428.695.277.4061.236.45277.39673.59568.3188.28349.527.14169.79346.39712.296.28369.11546.53177.39673.79423.31341.29245.65709.096.89265.39712.16781.21449.023.352.19837.59568.23824.331.63884.26259.69428.4964.04454.18785-.20639.26436-.19837.4964.01116.32262.50194.33921.69428.79423.11874.2809-.03209.36023.09918.79423a2.12262,2.12262,0,0,0,.29755.59568c.31862.4707.50983.422.5951.695.12848.41124-.26113.6643-.09918.99279.09558.19387.24993.14357.5951.39712.2623.19268.25327.28057.69428.79423.5048.588.57061.53567.69428.79423.23533.492-.00986.667.19837.99279.34624.54181,1.17267.2904,1.38856.79423.11682.27264-.08321.44418.09918.79423.13167.2527.32068.326.29755.4964-.02745.20221-.315.25671-.29755.39712.01617.13015.26633.10835.39673.29784.11328.16461.00634.3,0,.695a1.52883,1.52883,0,0,0,.19837.89351c.15921.23739.26856.16324.49592.39712a2.26127,2.26127,0,0,1,.49592,1.38991c.00341.25944-.041.46236.09918.59568.14364.13664.37352.09781.39673.19856.02411.10465-.21334.19227-.19837.29784.01749.1233.36258.15283.5951.19856.64973.12778.6522.42757,1.48775.79423.7001.30723.72785.1097,1.1902.39712.44994.27971.52678.53089.99183.695a2.80146,2.80146,0,0,0,.79346.09928c.92763.04657,1.14268-.1,1.48775.09928.22124.12777.13365.18849.49592.4964.23113.19644.76427.64958,1.091.4964.20168-.09455.13892-.333.39673-.4964.25378-.16084.45337-.018.5951-.09928.42181-.242-.3534-2.09119-.79346-4.269a7.91,7.91,0,0,1-.19837-3.07765,7.17473,7.17473,0,0,1,.79346-2.08486,26.39761,26.39761,0,0,1,1.58693-2.28342c-.2189-.25606-.23108-.40592-.19837-.4964.05623-.1555.2533-.15847.39673-.39712a.776.776,0,0,0,.09918-.29784c.03842-.36078-.36747-.55157-.29755-.695.056-.11476.37221-.136.49592,0,.109.11986-.00228.28414.09918.39712.12961.14433.46.04188.5951,0,.1773-.055.77087-.239.79346-.59568.01895-.29918-.37253-.58306-.5951-.695-.21487-.108-.31546-.07745-.39673-.19856,0,0-.07285-.10856,0-.695,0,0,.21974-.06671.29755,0,.10042.08609-.09589.3427,0,.4964.04419.07083.16166.13777.49592.09928.10127-.532.16152-.69852.19837-.695.06444.00624.01036.52805.19837.59568.15893.05717.34853-.26145.49592-.19856.14969.06387.05244.43453.19837.4964.131.05553.25019-.22581.5951-.29784.2408-.05029.2987.06261.49592,0,.26938-.08551.25072-.32451.49592-.4964.33143-.23233.56758.06265,1.091-.09928.36387-.11257.30659-.27271.89265-.59568.49754-.27418.58421-.18378.79346-.39712a1.64544,1.64544,0,0,0,.39673-.99279c.00923-.31182-.08432-.55468,0-.59568.08853-.04305.20837.21659.39673.19856.18992-.01818.185-.2933.49592-.4964.19338-.12631.28737-.08.39673-.19856.17725-.19207.20714-.52408.09918-.59568-.11251-.07462-.35749.146-.39673.09928-.04981-.05929.373-.38129.29755-.59568-.06413-.1822-.42629-.11077-.49592-.29784-.06429-.17271.16082-.45825.39673-.59568.22673-.13208.33126-.05035.49592-.19856.16836-.15154.14075-.31051.29755-.39712.12017-.06638.31973-.087.39673,0,.2057.23241-.57617,1.10471-.39673,1.29063.09037.09363.31263-.10276.79346-.09928a4.63312,4.63312,0,0,1,.5951.09928c.53839.0359.69427-.38688,1.28938-.59568.79727-.27971,1.46221.14765,1.58693-.09928.11409-.22586-.43977-.58834-.29755-.99279.04549-.12936.1036-.09639.29755-.39712a4.54161,4.54161,0,0,1,.29755-.4964c.1799-.21.32616-.147.39673-.29784.07171-.15326-.04331-.24932-.09918-.59568a3.76043,3.76043,0,0,1,0-.695c.01988-.44255.05877-.67713,0-.695-.06049-.01835-.15509.214-.19837.19856a2.0339,2.0339,0,0,1,.19837-.99279c.27778-.75349.48376-.702.5951-1.19135.11808-.519-.0918-.67281,0-1.38991.04648-.36306.22338-.473.19837-.79423" transform="translate(-0.39338 -0.14338)"/><path class="cls-3" d="M67.83138,45.99136" transform="translate(-0.39338 -0.14338)"/><path class="cls-3" d="M40.52483,54.83861" transform="translate(-0.39338 -0.14338)"/><path class="cls-4" d="M38.76667,11.93861H24.48839V36.7584H7.92483V38.049a2.34985,2.34985,0,0,0,.49592.59568c.39273.33577.56757.24951.89265.4964.63406.48154.43957,1.16717.99183,1.38991.27407.11054.36731-.04.69428.09928.33.14062.43489.37918.69428.695.50087.60973.70531.44516,1.1902.99279.55763.62979.32376.88869.79346,1.29063.50495.43209.79.14554,1.48775.59568a2.591,2.591,0,0,1,1.091,1.29063c.13724.41308.05365.6339.29755.99279.25361.37318.45932.30415.5951.59568.22116.47484-.26151.79348-.09918,1.38991.10717.39377.33873.33262.5951.89351.24689.54013.06782.67488.29755.99279.25969.35938.51754.22738,1.091.695.31319.25536.22583.2862.5951.59568a1.97051,1.97051,0,0,0,1.091.59568c.30727.02323.39275-.0952.5951,0,.28272.133.20733.40722.49592.59568.31516.20581.56754-.01512.79346.19856.21287.20134.09486.49781.29755.59568.17669.08532.34383-.10258.49592,0,.13829.09328.05133.2832.19837.39712.15571.12065.41121.03.49592,0a.79772.79772,0,0,0,.39673-.29784c.19921-.29669.02112-.52088.19837-.695.14736-.14472.30168-.02044.5951-.19856a.64774.64774,0,0,0,.29755-.29784c.09778-.24466-.09912-.39764,0-.59568.09506-.18993.31208-.12092.39673-.29784.10321-.2157-.18136-.39779-.09918-.695.049-.17719.16-.14785.29755-.39712.16961-.30731.04994-.44067.19837-.59568.15348-.16027.28054-.01676.69428-.19856.2211-.09715.29228-.18536.49592-.19856.16331-.01059.20585.04042.29755,0,.2069-.09119.13607-.41507.29755-.4964.1758-.08854.37061.23951.79346.39712.44192.16471.51979-.08525,1.1902,0,.61836.07863.78524.32093,1.1902.19856.267-.08069.30363-.219.49592-.19856.23281.02481.39093.25019.69428.695.277.4061.236.45277.39673.59568.3188.28349.527.14169.79346.39712.296.28369.11546.53177.39673.79423.31341.29245.65709.096.89265.39712.16781.21449.023.352.19837.59568.23824.331.63884.26259.69428.4964.04454.18785-.20639.26436-.19837.4964.01116.32262.50194.33921.69428.79423.11874.2809-.03209.36023.09918.79423a2.12262,2.12262,0,0,0,.29755.59568c.31862.4707.50983.422.5951.695.12848.41124-.26113.6643-.09918.99279.09558.19387.24993.14357.5951.39712a8.28282,8.28282,0,0,1,1.14672,1.13591" transform="translate(-0.39338 -0.14338)"/><path class="cls-3" d="M46.52483,54.13861" transform="translate(-0.39338 -0.14338)"/><polygon class="cls-5" points="29.335 34.618 31.525 39.319 36.223 39.202 32.823 42.516 33.626 47.195 29.424 44.453 25.222 47.195 26.024 42.516 22.625 39.202 27.323 39.319 29.335 34.618"/></svg>