<?xml version="1.0" encoding="UTF-8" standalone="no"?>
<svg
   xmlns:dc="http://purl.org/dc/elements/1.1/"
   xmlns:cc="http://creativecommons.org/ns#"
   xmlns:rdf="http://www.w3.org/1999/02/22-rdf-syntax-ns#"
   xmlns:svg="http://www.w3.org/2000/svg"
   xmlns="http://www.w3.org/2000/svg"
   xmlns:sodipodi="http://sodipodi.sourceforge.net/DTD/sodipodi-0.dtd"
   xmlns:inkscape="http://www.inkscape.org/namespaces/inkscape"
   width="420px"
   height="275px"
   viewBox="0 0 420 275"
   version="1.1"
   id="SVGRoot"
   sodipodi:docname="content-stock5.svg"
   inkscape:version="1.0.1 (3bc2e813f5, 2020-09-07)">
  <defs
     id="defs1857" />
  <sodipodi:namedview
     id="base"
     pagecolor="#ffffff"
     bordercolor="#666666"
     borderopacity="1.0"
     inkscape:pageopacity="0.0"
     inkscape:pageshadow="2"
     inkscape:zoom="1.4"
     inkscape:cx="155.30697"
     inkscape:cy="85.313869"
     inkscape:document-units="px"
     inkscape:current-layer="layer1"
     inkscape:document-rotation="0"
     showgrid="false"
     inkscape:window-width="1920"
     inkscape:window-height="1017"
     inkscape:window-x="-8"
     inkscape:window-y="-8"
     inkscape:window-maximized="1" />
  <metadata
     id="metadata1860">
    <rdf:RDF>
      <cc:Work
         rdf:about="">
        <dc:format>image/svg+xml</dc:format>
        <dc:type
           rdf:resource="http://purl.org/dc/dcmitype/StillImage" />
        <dc:title></dc:title>
      </cc:Work>
    </rdf:RDF>
  </metadata>
  <g
     inkscape:label="Layer 1"
     inkscape:groupmode="layer"
     id="layer1">
    <g
       id="g456"
       transform="matrix(0.34283382,0,0,0.34282948,-29.270509,-31.172819)">
      <g
         id="g6">
        <g
           id="g4" />
      </g>
      <g
         id="g10">
        <rect
           x="417.79999"
           y="94.400002"
           fill="#f1f2f2"
           width="156"
           height="47.599998"
           id="rect8" />
      </g>
      <g
         id="g14">
        <rect
           x="625.5"
           y="94.400002"
           fill="#f1f2f2"
           width="307.5"
           height="47.599998"
           id="rect12" />
      </g>
      <g
         id="g18">
        <rect
           x="417.79999"
           y="182.10001"
           fill="#f1f2f2"
           width="385.20001"
           height="47.599998"
           id="rect16" />
      </g>
      <g
         id="g22">
        <rect
           x="417.79999"
           y="269.89999"
           fill="#f1f2f2"
           width="89.800003"
           height="47.599998"
           id="rect20" />
      </g>
      <g
         id="g26">
        <rect
           x="805.29999"
           y="357.60001"
           fill="#f1f2f2"
           width="127.8"
           height="47.599998"
           id="rect24" />
      </g>
      <g
         id="g30">
        <rect
           x="610.09998"
           y="269.89999"
           fill="#f1f2f2"
           width="322.89999"
           height="47.599998"
           id="rect28" />
      </g>
      <g
         id="g34">
        <rect
           x="417.79999"
           y="357.60001"
           fill="#f1f2f2"
           width="275.60001"
           height="47.599998"
           id="rect32" />
      </g>
      <g
         id="g38">
        <rect
           x="417.79999"
           y="445.39999"
           fill="#f1f2f2"
           width="515.29999"
           height="47.599998"
           id="rect36" />
      </g>
      <g
         id="g42">
        <rect
           x="417.79999"
           y="533.09998"
           fill="#f1f2f2"
           width="257.60001"
           height="47.599998"
           id="rect40" />
      </g>
      <g
         id="g46">
        <rect
           x="417.79999"
           y="620.90002"
           fill="#f1f2f2"
           width="81"
           height="47.599998"
           id="rect44" />
      </g>
      <g
         id="g50">
        <rect
           x="569.59998"
           y="620.90002"
           fill="#f1f2f2"
           width="81"
           height="47.599998"
           id="rect48" />
      </g>
      <g
         id="g54">
        <rect
           x="721.5"
           y="620.90002"
           fill="#f1f2f2"
           width="105.8"
           height="47.599998"
           id="rect52" />
      </g>
      <g
         id="g58">
        <path
           d="M 592.5,524.3 H 511.4 C 479.8,524.3 454,498.6 454,466.9 V 289.8 c 0,-28.9 -23.5,-52.4 -52.4,-52.4 h -61.1 c -1.4,0 -2.5,-1.1 -2.5,-2.5 0,-1.4 1.1,-2.5 2.5,-2.5 h 61.1 c 31.6,0 57.4,25.7 57.4,57.4 V 467 c 0,28.9 23.5,52.4 52.4,52.4 h 81.1 c 1.4,0 2.5,1.1 2.5,2.5 -0.1,1.3 -1.2,2.4 -2.5,2.4 z"
           id="path56" />
      </g>
      <g
         id="g62">
        <path
           d="M 325.5,581.6 H 103.4 c -9.6,0 -17.5,-7.8 -17.5,-17.5 V 147.5 c 0,-1.4 1.1,-2.5 2.5,-2.5 h 252 c 1.4,0 2.5,1.1 2.5,2.5 v 416.7 c 0,9.6 -7.8,17.4 -17.4,17.4 z M 90.9,150 v 414.2 c 0,6.9 5.6,12.5 12.5,12.5 h 222.1 c 6.9,0 12.5,-5.6 12.5,-12.5 V 150 Z"
           id="path60" />
      </g>
      <g
         id="g68">
        <path
           fill="#939598"
           d="m 340.4,109.3 c 0,-8.2 -6.7,-15 -15,-15 h -222 c -8.2,0 -15,6.7 -15,15 v 38.2 h 252 z"
           id="path64" />
        <path
           d="m 340.4,150 h -252 c -1.4,0 -2.5,-1.1 -2.5,-2.5 v -38.2 c 0,-9.6 7.8,-17.5 17.5,-17.5 h 222.1 c 9.6,0 17.5,7.8 17.5,17.5 v 38.2 c -0.1,1.4 -1.2,2.5 -2.6,2.5 z M 90.9,145 h 247 v -35.7 c 0,-6.9 -5.6,-12.5 -12.5,-12.5 h -222 c -6.9,0 -12.5,5.6 -12.5,12.5 z"
           id="path66" />
      </g>
      <g
         id="g72">
        <path
           d="M 1295.6,892.1 H 970.2 c -8,0 -14.6,-6.5 -14.6,-14.6 v -264 c 0,-1.4 1.1,-2.5 2.5,-2.5 h 349.5 c 1.4,0 2.5,1.1 2.5,2.5 v 264 c 0.1,8.1 -6.5,14.6 -14.5,14.6 z M 960.6,616 v 261.5 c 0,5.3 4.3,9.6 9.6,9.6 h 325.4 c 5.3,0 9.6,-4.3 9.6,-9.6 V 616 Z"
           id="path70" />
      </g>
      <g
         id="g78">
        <path
           fill="#939598"
           d="m 1307.7,573.2 c 0,-6.6 -5.4,-12.1 -12.1,-12.1 H 970.2 c -6.6,0 -12.1,5.4 -12.1,12.1 v 40.4 h 349.5 v -40.4 z"
           id="path74" />
        <path
           d="M 1307.7,616 H 958.1 c -1.4,0 -2.5,-1.1 -2.5,-2.5 v -40.4 c 0,-8 6.5,-14.6 14.6,-14.6 h 325.4 c 8,0 14.6,6.5 14.6,14.6 v 40.4 c 0,1.4 -1.2,2.5 -2.5,2.5 z m -347.1,-5 h 344.5 v -37.9 c 0,-5.3 -4.3,-9.6 -9.6,-9.6 H 970.2 c -5.3,0 -9.6,4.3 -9.6,9.6 z"
           id="path76" />
      </g>
      <g
         id="g84">
        <path
           fill="#939598"
           d="m 678.2,595.7 c 16.4,0 29.8,-13.3 29.8,-29.8 h -59.5 c 0,16.5 13.3,29.8 29.7,29.8 z"
           id="path80" />
        <path
           d="m 678.2,598.2 c -17.8,0 -32.3,-14.5 -32.3,-32.3 0,-1.4 1.1,-2.5 2.5,-2.5 H 708 c 1.4,0 2.5,1.1 2.5,2.5 0,17.8 -14.5,32.3 -32.3,32.3 z m -27.1,-29.7 c 1.3,13.9 13,24.8 27.1,24.8 14.2,0 25.9,-10.9 27.2,-24.8 z"
           id="path82" />
      </g>
      <g
         id="g88">
        <path
           d="m 678.6,169.4 c -1.4,0 -2.5,-1.1 -2.5,-2.5 V 117 c 0,-1.4 1.1,-2.5 2.5,-2.5 1.4,0 2.5,1.1 2.5,2.5 v 49.9 c 0,1.4 -1.1,2.5 -2.5,2.5 z"
           id="path86" />
      </g>
      <g
         id="g92">
        <path
           d="m 599.4,195.4 c -0.8,0 -1.5,-0.4 -2,-1 L 568,154 c -0.8,-1.1 -0.6,-2.7 0.6,-3.5 1.1,-0.8 2.7,-0.6 3.5,0.6 l 29.3,40.4 c 0.8,1.1 0.6,2.7 -0.6,3.5 -0.4,0.3 -0.9,0.4 -1.4,0.4 z"
           id="path90" />
      </g>
      <g
         id="g96">
        <path
           d="m 550.5,263 c -0.3,0 -0.5,0 -0.8,-0.1 l -47.4,-15.4 c -1.3,-0.4 -2,-1.8 -1.6,-3.1 0.4,-1.3 1.8,-2 3.1,-1.6 l 47.4,15.4 c 1.3,0.4 2,1.8 1.6,3.1 -0.3,1.1 -1.2,1.7 -2.3,1.7 z"
           id="path94" />
      </g>
      <g
         id="g100">
        <path
           d="m 503.3,361.9 c -1.1,0 -2,-0.7 -2.4,-1.7 -0.4,-1.3 0.3,-2.7 1.6,-3.1 l 47.4,-15.4 c 1.3,-0.4 2.7,0.3 3.1,1.6 0.4,1.3 -0.3,2.7 -1.6,3.1 L 504,361.8 c -0.2,0 -0.4,0.1 -0.7,0.1 z"
           id="path98" />
      </g>
      <g
         id="g104">
        <path
           d="m 854.9,361.2 c -0.3,0 -0.5,0 -0.8,-0.1 l -47.4,-15.4 c -1.3,-0.4 -2,-1.8 -1.6,-3.1 0.4,-1.3 1.8,-2 3.1,-1.6 l 47.4,15.4 c 1.3,0.4 2,1.8 1.6,3.1 -0.3,1 -1.2,1.7 -2.3,1.7 z"
           id="path102" />
      </g>
      <g
         id="g108">
        <path
           d="m 807.2,262.3 c -1.1,0 -2,-0.7 -2.4,-1.7 -0.4,-1.3 0.3,-2.7 1.6,-3.1 l 47.4,-15.4 c 1.3,-0.4 2.7,0.3 3.1,1.6 0.4,1.3 -0.3,2.7 -1.6,3.1 L 808,262.2 c -0.2,0.1 -0.5,0.1 -0.8,0.1 z"
           id="path106" />
      </g>
      <g
         id="g112">
        <path
           d="m 758,195 c -0.5,0 -1,-0.2 -1.5,-0.5 -1.1,-0.8 -1.4,-2.4 -0.6,-3.5 l 29.3,-40.4 c 0.8,-1.1 2.4,-1.4 3.5,-0.6 1.1,0.8 1.4,2.4 0.6,3.5 L 760,194 c -0.5,0.6 -1.2,1 -2,1 z"
           id="path110" />
      </g>
      <g
         id="g116">
        <path
           d="m 616,549.9 c -1.1,0 -2,-0.7 -2.4,-1.7 -1,-2.9 -1.4,-6 -1.4,-9 v -12.8 c 0,-1.2 0.8,-2.2 2,-2.4 l 127.3,-28.5 c 0.7,-0.2 1.5,0 2.1,0.5 0.6,0.5 0.9,1.2 0.9,2 v 21.4 c 0,1.2 -0.8,2.2 -2,2.4 l -126,28.2 c -0.1,-0.1 -0.3,-0.1 -0.5,-0.1 z m 1.2,-21.6 v 10.8 c 0,1.8 0.2,3.6 0.6,5.3 L 739.5,517.2 V 501 Z"
           id="path114" />
      </g>
      <g
         id="g122">
        <path
           fill="#939598"
           d="M 633.9,564.8 742,540.7 c 0,-0.5 0.1,-1 0.1,-1.5 v -16.9 -3 l -126,28.2 c 2.7,8.3 9.3,14.8 17.8,17.3 z"
           id="path118" />
        <path
           d="m 633.9,567.3 c -0.2,0 -0.5,0 -0.7,-0.1 -9.2,-2.7 -16.5,-9.9 -19.5,-19 -0.2,-0.7 -0.1,-1.4 0.2,-2 0.3,-0.6 0.9,-1 1.6,-1.2 l 126,-28.2 c 0.7,-0.2 1.5,0 2.1,0.5 0.6,0.5 0.9,1.2 0.9,1.9 v 19.9 c 0,0.4 0,0.8 -0.1,1.2 -0.1,1.1 -0.9,2.5 -2,2.7 l -108.1,24.2 c -0.1,0.1 -0.2,0.1 -0.4,0.1 z m -14.5,-18.1 c 2.8,6.2 8.1,10.9 14.6,13 l 105.6,-23.6 v -16.3 z"
           id="path120" />
      </g>
      <g
         id="g126">
        <path
           d="m 715.2,568.5 h -73.7 c -2.8,0 -5.7,-0.4 -8.4,-1.2 -1.1,-0.3 -1.8,-1.3 -1.8,-2.5 0,-1.1 0.8,-2.1 2,-2.3 l 108.1,-24.2 c 0.8,-0.2 1.6,0 2.2,0.5 0.6,0.5 0.9,1.3 0.9,2 -0.9,15.5 -13.7,27.7 -29.3,27.7 z m -63.8,-5 h 63.8 c 11.7,0 21.6,-8.4 23.8,-19.6 z"
           id="path124" />
      </g>
      <g
         id="g132">
        <path
           fill="#FAFFAD"
           d="M 678.2,189.7 C 616.2,189.7 566,240 566,302 c 0,38.4 19.3,72.2 48.6,92.5 v 89.3 h 94.6 32.6 v -7.3 -82 c 29.4,-20.3 48.6,-54.1 48.6,-92.5 0.1,-62 -50.2,-112.3 -112.2,-112.3 z"
           id="path128"
           style="fill:#ff9800;fill-opacity:1" />
        <path
           d="M 741.9,486.3 H 614.6 c -1.4,0 -2.5,-1.1 -2.5,-2.5 v -88 c -30.5,-21.5 -48.6,-56.5 -48.6,-93.8 0,-63.3 51.5,-114.8 114.8,-114.8 63.3,0 114.8,51.5 114.8,114.8 0,37.3 -18.2,72.2 -48.6,93.8 v 88 c -0.1,1.4 -1.3,2.5 -2.6,2.5 z m -124.8,-5 h 122.3 v -86.8 c 0,-0.8 0.4,-1.6 1.1,-2.1 29.8,-20.5 47.6,-54.3 47.6,-90.4 0,-60.5 -49.2,-109.8 -109.8,-109.8 -60.5,0 -109.8,49.2 -109.8,109.8 0,36.1 17.8,69.9 47.6,90.4 0.7,0.5 1.1,1.2 1.1,2.1 v 86.8 z"
           id="path130" />
      </g>
      <g
         id="g138">
        <polygon
           fill="#939598"
           points="741.9,484.4 741.9,483.8 709.3,483.8 614.7,504.9 614.7,522.3 614.7,526.3 742,497.9 742,484.4 "
           id="polygon134" />
        <path
           d="m 614.7,528.8 c -0.6,0 -1.1,-0.2 -1.6,-0.5 -0.6,-0.5 -0.9,-1.2 -0.9,-1.9 V 505 c 0,-1.2 0.8,-2.2 1.9,-2.4 l 94.5,-21.1 c 0.2,0 0.4,-0.1 0.5,-0.1 h 32.6 c 1.3,0 2.4,1 2.5,2.3 0.1,0.3 0.2,0.6 0.2,0.9 V 498 c 0,1.2 -0.8,2.2 -2,2.4 l -127.3,28.5 c 0,-0.1 -0.2,-0.1 -0.4,-0.1 z m 2.5,-21.9 v 16.3 l 122.3,-27.3 v -9.6 h -30 z"
           id="path136" />
      </g>
      <g
         id="g142">
        <path
           d="m 697.9,486.3 c -1.4,0 -2.5,-1.1 -2.5,-2.5 v -58.6 c 0,-1.4 1.1,-2.5 2.5,-2.5 1.4,0 2.5,1.1 2.5,2.5 v 58.6 c 0,1.4 -1.1,2.5 -2.5,2.5 z"
           id="path140" />
      </g>
      <g
         id="g146">
        <rect
           x="123.8"
           y="407.10001"
           fill="#FFA3C6"
           width="162.60001"
           height="39"
           id="rect144"
           style="fill:#76ff03;fill-opacity:1" />
      </g>
      <g
         id="g150">
        <rect
           x="123.8"
           y="479.5"
           fill="#FFA3C6"
           width="162.60001"
           height="39"
           id="rect148"
           style="fill:#76ff03;fill-opacity:1" />
      </g>
      <g
         id="g154">
        <path
           d="M 305.1,409.6 H 123.8 c -1.4,0 -2.5,-1.1 -2.5,-2.5 0,-1.4 1.1,-2.5 2.5,-2.5 h 181.3 c 1.4,0 2.5,1.1 2.5,2.5 0,1.4 -1.1,2.5 -2.5,2.5 z"
           id="path152" />
      </g>
      <g
         id="g158">
        <path
           d="M 305.1,482 H 123.8 c -1.4,0 -2.5,-1.1 -2.5,-2.5 0,-1.4 1.1,-2.5 2.5,-2.5 h 181.3 c 1.4,0 2.5,1.1 2.5,2.5 0,1.4 -1.1,2.5 -2.5,2.5 z"
           id="path156" />
      </g>
      <g
         id="g162">
        <rect
           x="662.90002"
           y="370.10001"
           fill="#DCE098"
           width="25"
           height="113.7"
           id="rect160"
           style="fill:#f57c00;fill-opacity:1" />
      </g>
      <g
         id="g166">
        <path
           d="m 662.9,486.3 c -1.4,0 -2.5,-1.1 -2.5,-2.5 v -124 L 619,318.4 c -0.7,-0.7 -0.9,-1.8 -0.5,-2.7 0.4,-0.9 1.3,-1.5 2.3,-1.5 h 54 c 0.7,0 1.3,0.3 1.8,0.7 l 15,15 h 25.6 c 1.4,0 2.5,1.1 2.5,2.5 V 370 c 0,1.4 -1.1,2.5 -2.5,2.5 -1.4,0 -2.5,-1.1 -2.5,-2.5 v -35.1 h -24.2 c -0.7,0 -1.3,-0.3 -1.8,-0.7 l -15,-15 h -46.9 l 37.8,37.8 c 0.5,0.5 0.7,1.1 0.7,1.8 v 125.1 c 0.1,1.3 -1,2.4 -2.4,2.4 z"
           id="path164" />
      </g>
      <g
         id="g172">
        <path
           fill="#76DDFF"
           d="m 214.5,274.5 c 31.3,0 57.3,22.3 63.1,51.9 17,-16.5 27.5,-39.5 27.5,-65 0,-50.1 -40.6,-90.7 -90.7,-90.7 -50.1,0 -90.7,40.6 -90.7,90.7 0,25.6 10.6,48.7 27.7,65.1 5.7,-29.6 31.8,-52 63.1,-52 z m -0.1,-79.4 c 16.5,0 29.9,13.2 30.5,29.6 h -0.1 c -0.2,22 -13.8,39.8 -30.4,39.8 -16.7,0 -30.2,-17.8 -30.4,-39.8 0.5,-16.5 13.9,-29.6 30.4,-29.6 z"
           id="path168"
           style="fill:#0d47a1;fill-opacity:1" />
        <path
           fill="#231f20"
           d="m 151.4,329.1 c -0.6,0 -1.3,-0.2 -1.7,-0.7 -18.3,-17.7 -28.4,-41.5 -28.4,-66.9 0,-51.4 41.8,-93.2 93.2,-93.2 51.4,0 93.2,41.8 93.2,93.2 0,25.4 -10,49.1 -28.3,66.8 -0.7,0.6 -1.6,0.9 -2.5,0.6 -0.9,-0.3 -1.5,-1 -1.7,-1.9 -5.7,-29 -31.2,-50 -60.7,-50 -29.5,0 -55,21 -60.6,50 -0.2,0.9 -0.8,1.6 -1.7,1.9 -0.3,0.1 -0.5,0.2 -0.8,0.2 z m 63,-155.8 c -48.6,0 -88.2,39.6 -88.2,88.2 0,22.6 8.4,43.8 23.7,60.1 7.7,-29 34.1,-49.6 64.5,-49.6 30.3,0 56.7,20.5 64.5,49.4 15.3,-16.4 23.6,-37.5 23.6,-60 0.1,-48.6 -39.5,-88.1 -88.1,-88.1 z m 0,93.6 c -17.9,0 -32.7,-19 -32.9,-42.2 0.6,-18 15.1,-32.1 33,-32.1 17.9,0 32.4,14 33,32 0,0.3 0,0.5 -0.1,0.8 -0.6,22.9 -15.3,41.5 -33,41.5 z m 0,-69.3 c -15.2,0 -27.5,11.9 -28,27.1 0.2,20.5 12.7,37.2 27.9,37.2 15.2,0 27.8,-16.7 27.9,-37.3 0,-0.2 0,-0.4 0.1,-0.5 -0.7,-14.9 -12.9,-26.5 -27.9,-26.5 z"
           id="path170" />
      </g>
      <g
         id="g178">
        <path
           fill="#ffffff"
           d="m 277.6,326.5 c -5.8,-29.6 -31.8,-51.9 -63.1,-51.9 -31.3,0 -57.4,22.4 -63.1,52.1 16.3,15.8 38.5,25.5 63,25.5 24.6,-0.1 46.8,-9.9 63.2,-25.7 z"
           id="path174" />
        <path
           fill="#231f20"
           d="m 214.4,354.6 c -24.3,0 -47.3,-9.3 -64.7,-26.2 -0.6,-0.6 -0.9,-1.4 -0.7,-2.3 6,-31.3 33.6,-54.1 65.5,-54.1 31.9,0 59.4,22.7 65.5,54 0.2,0.8 -0.1,1.7 -0.7,2.3 -17.5,16.9 -40.5,26.3 -64.9,26.3 z m -60.3,-28.9 c 16.4,15.4 37.7,23.9 60.3,23.9 22.6,0 44,-8.5 60.4,-24 -6.2,-28.2 -31.3,-48.6 -60.3,-48.6 -29.1,0 -54.3,20.4 -60.4,48.7 z"
           id="path176" />
      </g>
      <g
         id="g184">
        <path
           fill="#ffffff"
           d="m 214.4,264.4 c 16.7,0 30.2,-17.8 30.4,-39.8 h 0.1 C 244.3,208.2 231,195 214.4,195 c -16.5,0 -29.9,13.2 -30.5,29.6 0.3,22 13.8,39.8 30.5,39.8 z"
           id="path180" />
        <path
           fill="#231f20"
           d="m 214.4,266.9 c -17.9,0 -32.7,-19 -32.9,-42.2 0.6,-18 15.1,-32.1 33,-32.1 17.6,0 32,13.7 32.9,31.3 0.1,0.2 0.1,0.5 0.1,0.8 0,0.4 -0.1,0.7 -0.2,1 -0.6,22.8 -15.2,41.2 -32.9,41.2 z m 0,-69.3 c -15.2,0 -27.5,11.9 -28,27.1 0.2,20.5 12.7,37.2 27.9,37.2 15.2,0 27.8,-16.7 27.9,-37.3 0,-0.2 0,-0.4 0.1,-0.5 -0.7,-14.9 -12.9,-26.5 -27.9,-26.5 z"
           id="path182" />
      </g>
      <g
         id="g190">
        <path
           fill="#faffad"
           d="m 222.5,298.7 c 0,4.4 -3.6,8.1 -8.1,8.1 -4.5,0 -8.1,-3.6 -8.1,-8.1 0,-4.4 3.6,-8.1 8.1,-8.1 4.5,0 8.1,3.7 8.1,8.1 z"
           id="path186" />
        <path
           d="m 214.4,309.2 c -5.8,0 -10.6,-4.7 -10.6,-10.5 0,-5.8 4.7,-10.6 10.6,-10.6 5.8,0 10.6,4.7 10.6,10.6 0,5.8 -4.8,10.5 -10.6,10.5 z m 0,-16.1 c -3.1,0 -5.6,2.5 -5.6,5.6 0,3.1 2.5,5.6 5.6,5.6 3.1,0 5.6,-2.5 5.6,-5.6 0,-3.1 -2.5,-5.6 -5.6,-5.6 z"
           id="path188" />
      </g>
      <g
         id="g196">
        <line
           fill="#ffffff"
           x1="214.39999"
           y1="320.10001"
           x2="214.39999"
           y2="352.10001"
           id="line192" />
        <path
           fill="#231f20"
           d="m 214.4,354.6 c -1.4,0 -2.5,-1.1 -2.5,-2.5 v -32 c 0,-1.4 1.1,-2.5 2.5,-2.5 1.4,0 2.5,1.1 2.5,2.5 v 32 c 0,1.4 -1.1,2.5 -2.5,2.5 z"
           id="path194" />
      </g>
      <g
         id="g202">
        <rect
           x="111.3"
           y="112.6"
           fill="#ffffff"
           width="111.2"
           height="16.6"
           id="rect198" />
        <path
           d="M 222.5,131.7 H 111.3 c -1.4,0 -2.5,-1.1 -2.5,-2.5 v -16.6 c 0,-1.4 1.1,-2.5 2.5,-2.5 h 111.2 c 1.4,0 2.5,1.1 2.5,2.5 v 16.6 c 0,1.4 -1.1,2.5 -2.5,2.5 z m -108.7,-5 H 220 V 115.1 H 113.8 Z"
           id="path200" />
      </g>
      <g
         id="g208">
        <path
           fill="#939598"
           d="m 1307.7,109.3 c 0,-8.2 -6.7,-15 -15,-15 h -270.3 c -8.2,0 -15,6.7 -15,15 v 38.2 h 300.3 z"
           id="path204" />
        <path
           d="m 1307.7,150 h -300.3 c -1.4,0 -2.5,-1.1 -2.5,-2.5 v -38.2 c 0,-9.6 7.8,-17.5 17.5,-17.5 h 270.3 c 9.6,0 17.5,7.8 17.5,17.5 v 38.2 c 0,1.4 -1.2,2.5 -2.5,2.5 z m -297.8,-5 h 295.3 v -35.7 c 0,-6.9 -5.6,-12.5 -12.5,-12.5 h -270.3 c -6.9,0 -12.5,5.6 -12.5,12.5 z"
           id="path206" />
      </g>
      <g
         id="g214">
        <rect
           x="1030.3"
           y="112.6"
           fill="#ffffff"
           width="111.2"
           height="16.6"
           id="rect210" />
        <path
           d="m 1141.5,131.7 h -111.2 c -1.4,0 -2.5,-1.1 -2.5,-2.5 v -16.6 c 0,-1.4 1.1,-2.5 2.5,-2.5 h 111.2 c 1.4,0 2.5,1.1 2.5,2.5 v 16.6 c 0,1.4 -1.1,2.5 -2.5,2.5 z m -108.7,-5 H 1139 v -11.6 h -106.2 z"
           id="path212" />
      </g>
      <g
         id="g220">
        <path
           fill="#ffffff"
           d="M 325.5,644.7 H 103.4 c -8.2,0 -15,6.7 -15,15 V 697.9 863 c 0,8.2 6.7,15 15,15 h 222.1 c 8.2,0 15,-6.7 15,-15 V 697.8 659.6 c -0.1,-8.2 -6.8,-14.9 -15,-14.9 z"
           id="path216" />
        <path
           d="M 325.5,880.5 H 103.4 c -9.6,0 -17.5,-7.8 -17.5,-17.5 V 659.6 c 0,-9.6 7.8,-17.5 17.5,-17.5 h 222.1 c 9.6,0 17.5,7.8 17.5,17.5 V 863 c -0.1,9.7 -7.9,17.5 -17.5,17.5 z M 103.4,647.2 c -6.9,0 -12.5,5.6 -12.5,12.5 V 863 c 0,6.9 5.6,12.5 12.5,12.5 h 222.1 c 6.9,0 12.5,-5.6 12.5,-12.5 V 659.6 c 0,-6.9 -5.6,-12.5 -12.5,-12.5 H 103.4 Z"
           id="path218" />
      </g>
      <g
         id="g226">
        <rect
           x="980.90002"
           y="579"
           fill="#ffffff"
           width="111.2"
           height="16.6"
           id="rect222" />
        <path
           d="M 1092.1,598.1 H 980.9 c -1.4,0 -2.5,-1.1 -2.5,-2.5 V 579 c 0,-1.4 1.1,-2.5 2.5,-2.5 h 111.2 c 1.4,0 2.5,1.1 2.5,2.5 v 16.6 c 0,1.4 -1.2,2.5 -2.5,2.5 z m -108.7,-5 h 106.2 V 581.5 H 983.4 Z"
           id="path224" />
      </g>
      <g
         id="g230">
        <path
           d="M 958.1,741.2 H 908 c -28.9,0 -52.4,-23.5 -52.4,-52.4 V 569.2 c 0,-26.1 -21.3,-47.4 -47.4,-47.4 h -42 c -1.4,0 -2.5,-1.1 -2.5,-2.5 0,-1.4 1.1,-2.5 2.5,-2.5 h 42 c 28.9,0 52.4,23.5 52.4,52.4 v 119.6 c 0,26.1 21.3,47.4 47.4,47.4 h 50.2 c 1.4,0 2.5,1.1 2.5,2.5 -0.1,1.4 -1.2,2.5 -2.6,2.5 z"
           id="path228" />
      </g>
      <g
         id="g236">
        <polygon
           fill="#ffffff"
           points="614.7,504.9 709.3,483.8 614.6,483.8 614.6,484.4 614.7,484.4 "
           id="polygon232" />
        <path
           d="m 614.7,507.4 c -0.6,0 -1.1,-0.2 -1.6,-0.5 -0.6,-0.5 -0.9,-1.2 -0.9,-1.9 v -19.7 c -0.1,-0.2 -0.1,-0.5 -0.1,-0.7 v -0.7 c 0,-1.4 1.1,-2.5 2.5,-2.5 h 94.6 c 1.3,0 2.3,1 2.5,2.2 0.1,1.3 -0.7,2.4 -1.9,2.7 l -94.5,21.1 c -0.2,0 -0.4,0 -0.6,0 z m 2.5,-21.1 v 15.5 l 69.4,-15.5 z"
           id="path234" />
      </g>
      <g
         id="g242">
        <polyline
           fill="#ffffff"
           points="417.8,718.7 417.8,855.1 881.8,855.1   "
           id="polyline238" />
        <path
           d="m 881.8,857.6 h -464 c -1.4,0 -2.5,-1.1 -2.5,-2.5 V 718.7 c 0,-1.4 1.1,-2.5 2.5,-2.5 1.4,0 2.5,1.1 2.5,2.5 v 133.9 h 461.5 c 1.4,0 2.5,1.1 2.5,2.5 0,1.4 -1.1,2.5 -2.5,2.5 z"
           id="path240" />
      </g>
      <g
         id="g248">
        <polyline
           fill="#ffffff"
           points="417.8,855.1 471.2,801.7 526.7,801.7 595.2,733.2 661.6,799.6 691.9,769.3 742,819.4     825.8,735.6   "
           id="polyline244" />
        <path
           d="m 417.8,857.6 c -0.6,0 -1.3,-0.2 -1.8,-0.7 -1,-1 -1,-2.6 0,-3.5 L 469.4,800 c 0.5,-0.5 1.1,-0.7 1.8,-0.7 h 54.4 l 67.8,-67.8 c 0.9,-0.9 2.6,-0.9 3.5,0 l 64.7,64.7 28.5,-28.5 c 1,-1 2.6,-1 3.5,0 l 48.3,48.3 82,-82 c 1,-1 2.6,-1 3.5,0 1,1 1,2.6 0,3.5 l -83.8,83.8 c -1,1 -2.6,1 -3.5,0 L 691.8,773 663.3,801.5 c -1,1 -2.6,1 -3.5,0 l -64.7,-64.7 -66.8,66.8 c -0.5,0.5 -1.1,0.7 -1.8,0.7 H 472.1 L 419.4,857 c -0.3,0.4 -1,0.6 -1.6,0.6 z"
           id="path246" />
      </g>
      <g
         id="g252">
        <path
           d="m 471.2,857.6 c -1.4,0 -2.5,-1.1 -2.5,-2.5 v -13.5 c 0,-1.4 1.1,-2.5 2.5,-2.5 1.4,0 2.5,1.1 2.5,2.5 v 13.5 c 0,1.4 -1.1,2.5 -2.5,2.5 z m 0,-33.4 c -1.4,0 -2.5,-1.1 -2.5,-2.5 v -20 c 0,-1.4 1.1,-2.5 2.5,-2.5 1.4,0 2.5,1.1 2.5,2.5 v 20 c 0,1.3 -1.1,2.5 -2.5,2.5 z"
           id="path250" />
      </g>
      <g
         id="g256">
        <path
           d="m 526.7,857.6 c -1.4,0 -2.5,-1.1 -2.5,-2.5 v -13.5 c 0,-1.4 1.1,-2.5 2.5,-2.5 1.4,0 2.5,1.1 2.5,2.5 v 13.5 c 0,1.4 -1.1,2.5 -2.5,2.5 z m 0,-33.4 c -1.4,0 -2.5,-1.1 -2.5,-2.5 v -20 c 0,-1.4 1.1,-2.5 2.5,-2.5 1.4,0 2.5,1.1 2.5,2.5 v 20 c 0,1.3 -1.1,2.5 -2.5,2.5 z"
           id="path254" />
      </g>
      <g
         id="g260">
        <path
           d="m 595.2,857.6 c -1.4,0 -2.5,-1.1 -2.5,-2.5 V 853 c 0,-1.4 1.1,-2.5 2.5,-2.5 1.4,0 2.5,1.1 2.5,2.5 v 2.2 c 0,1.3 -1.1,2.4 -2.5,2.4 z m 0,-22.1 c -1.4,0 -2.5,-1.1 -2.5,-2.5 v -20 c 0,-1.4 1.1,-2.5 2.5,-2.5 1.4,0 2.5,1.1 2.5,2.5 v 20 c 0,1.4 -1.1,2.5 -2.5,2.5 z m 0,-39.9 c -1.4,0 -2.5,-1.1 -2.5,-2.5 v -20 c 0,-1.4 1.1,-2.5 2.5,-2.5 1.4,0 2.5,1.1 2.5,2.5 v 20 c 0,1.3 -1.1,2.5 -2.5,2.5 z m 0,-40 c -1.4,0 -2.5,-1.1 -2.5,-2.5 v -20 c 0,-1.4 1.1,-2.5 2.5,-2.5 1.4,0 2.5,1.1 2.5,2.5 v 20 c 0,1.4 -1.1,2.5 -2.5,2.5 z"
           id="path258" />
      </g>
      <g
         id="g264">
        <path
           d="m 661.6,857.6 c -1.4,0 -2.5,-1.1 -2.5,-2.5 v -15.6 c 0,-1.4 1.1,-2.5 2.5,-2.5 1.4,0 2.5,1.1 2.5,2.5 v 15.6 c 0,1.4 -1.1,2.5 -2.5,2.5 z m 0,-35.5 c -1.4,0 -2.5,-1.1 -2.5,-2.5 v -20 c 0,-1.4 1.1,-2.5 2.5,-2.5 1.4,0 2.5,1.1 2.5,2.5 v 20 c 0,1.3 -1.1,2.5 -2.5,2.5 z"
           id="path262" />
      </g>
      <g
         id="g268">
        <path
           d="m 691.9,857.6 c -1.4,0 -2.5,-1.1 -2.5,-2.5 v -6 c 0,-1.4 1.1,-2.5 2.5,-2.5 1.4,0 2.5,1.1 2.5,2.5 v 6 c 0,1.4 -1.1,2.5 -2.5,2.5 z m 0,-25.9 c -1.4,0 -2.5,-1.1 -2.5,-2.5 v -20 c 0,-1.4 1.1,-2.5 2.5,-2.5 1.4,0 2.5,1.1 2.5,2.5 v 20 c 0,1.4 -1.1,2.5 -2.5,2.5 z m 0,-40 c -1.4,0 -2.5,-1.1 -2.5,-2.5 v -20 c 0,-1.4 1.1,-2.5 2.5,-2.5 1.4,0 2.5,1.1 2.5,2.5 v 20 c 0,1.4 -1.1,2.5 -2.5,2.5 z"
           id="path266" />
      </g>
      <g
         id="g272">
        <path
           d="m 742,841.8 c -1.4,0 -2.5,-1.1 -2.5,-2.5 v -20 c 0,-1.4 1.1,-2.5 2.5,-2.5 1.4,0 2.5,1.1 2.5,2.5 v 20 c 0,1.4 -1.1,2.5 -2.5,2.5 z"
           id="path270" />
      </g>
      <g
         id="g276">
        <path
           d="m 825.8,837.9 c -1.4,0 -2.5,-1.1 -2.5,-2.5 v -20 c 0,-1.4 1.1,-2.5 2.5,-2.5 1.4,0 2.5,1.1 2.5,2.5 v 20 c 0,1.4 -1.1,2.5 -2.5,2.5 z m 0,-39.9 c -1.4,0 -2.5,-1.1 -2.5,-2.5 v -20 c 0,-1.4 1.1,-2.5 2.5,-2.5 1.4,0 2.5,1.1 2.5,2.5 v 20 c 0,1.3 -1.1,2.5 -2.5,2.5 z m 0,-40 c -1.4,0 -2.5,-1.1 -2.5,-2.5 v -20 c 0,-1.4 1.1,-2.5 2.5,-2.5 1.4,0 2.5,1.1 2.5,2.5 v 20 c 0,1.4 -1.1,2.5 -2.5,2.5 z"
           id="path274" />
      </g>
      <g
         id="g282">
        <polygon
           fill="#FFA3C6"
           points="833.7,765 796.4,727.7 847.4,714 "
           id="polygon278"
           style="fill:#76ff03;fill-opacity:1" />
        <path
           d="m 833.7,767.5 c -0.7,0 -1.3,-0.3 -1.8,-0.7 l -37.3,-37.3 c -0.6,-0.6 -0.9,-1.5 -0.6,-2.4 0.2,-0.9 0.9,-1.5 1.8,-1.8 l 51,-13.7 c 0.9,-0.2 1.8,0 2.4,0.6 0.6,0.6 0.9,1.5 0.6,2.4 l -13.7,51 c -0.2,0.9 -0.9,1.5 -1.8,1.8 -0.2,0.1 -0.4,0.1 -0.6,0.1 z m -32.5,-38.6 31.2,31.2 11.4,-42.6 z"
           id="path280" />
      </g>
      <g
         id="g288">
        <polyline
           fill="#ffffff"
           points="88.4,687.8 131,687.8 169.6,726.4 226.6,726.4   "
           id="polyline284" />
        <path
           d="m 226.6,728.9 h -57 c -0.7,0 -1.3,-0.3 -1.8,-0.7 L 129.9,690.3 H 88.4 c -1.4,0 -2.5,-1.1 -2.5,-2.5 0,-1.4 1.1,-2.5 2.5,-2.5 H 131 c 0.7,0 1.3,0.3 1.8,0.7 l 37.9,37.9 h 56 c 1.4,0 2.5,1.1 2.5,2.5 0,1.4 -1.2,2.5 -2.6,2.5 z"
           id="path286" />
      </g>
      <g
         id="g294">
        <line
           fill="#ffffff"
           x1="88.400002"
           y1="776.29999"
           x2="139.3"
           y2="776.29999"
           id="line290" />
        <path
           d="M 139.3,778.8 H 88.4 c -1.4,0 -2.5,-1.1 -2.5,-2.5 0,-1.4 1.1,-2.5 2.5,-2.5 h 50.9 c 1.4,0 2.5,1.1 2.5,2.5 0,1.4 -1.1,2.5 -2.5,2.5 z"
           id="path292" />
      </g>
      <g
         id="g300">
        <polyline
           fill="#ffffff"
           points="88.4,856.5 150.9,856.5 178.7,828.7 209.9,828.7   "
           id="polyline296" />
        <path
           d="M 150.9,859 H 88.4 c -1.4,0 -2.5,-1.1 -2.5,-2.5 0,-1.4 1.1,-2.5 2.5,-2.5 h 61.5 l 27,-27 c 0.5,-0.5 1.1,-0.7 1.8,-0.7 h 31.2 c 1.4,0 2.5,1.1 2.5,2.5 0,1.4 -1.1,2.5 -2.5,2.5 h -30.2 l -27,27 c -0.5,0.4 -1.1,0.7 -1.8,0.7 z"
           id="path298" />
      </g>
      <g
         id="g306">
        <line
           fill="#ffffff"
           x1="340.39999"
           y1="677.79999"
           x2="214.3"
           y2="677.79999"
           id="line302" />
        <path
           d="M 340.4,680.3 H 214.3 c -1.4,0 -2.5,-1.1 -2.5,-2.5 0,-1.4 1.1,-2.5 2.5,-2.5 h 126.1 c 1.4,0 2.5,1.1 2.5,2.5 0,1.3 -1.1,2.5 -2.5,2.5 z"
           id="path304" />
      </g>
      <g
         id="g312">
        <polyline
           fill="#ffffff"
           points="340.4,741.4 298.2,741.4 260.7,776.3 214.4,776.3   "
           id="polyline308" />
        <path
           d="m 260.7,778.8 h -46.3 c -1.4,0 -2.5,-1.1 -2.5,-2.5 0,-1.4 1.1,-2.5 2.5,-2.5 h 45.3 l 36.7,-34.3 c 0.5,-0.4 1.1,-0.7 1.7,-0.7 h 42.3 c 1.4,0 2.5,1.1 2.5,2.5 0,1.4 -1.1,2.5 -2.5,2.5 h -41.3 l -36.7,34.3 c -0.4,0.5 -1,0.7 -1.7,0.7 z"
           id="path310" />
      </g>
      <g
         id="g318">
        <line
           fill="#ffffff"
           x1="340.39999"
           y1="844.90002"
           x2="290.60001"
           y2="844.90002"
           id="line314" />
        <path
           d="m 340.4,847.4 h -49.8 c -1.4,0 -2.5,-1.1 -2.5,-2.5 0,-1.4 1.1,-2.5 2.5,-2.5 h 49.8 c 1.4,0 2.5,1.1 2.5,2.5 0,1.4 -1.1,2.5 -2.5,2.5 z"
           id="path316" />
      </g>
      <g
         id="g324">
        <path
           fill="#76DDFF"
           d="m 214.3,677.8 c 0,7.8 -6.3,14.1 -14.1,14.1 -7.8,0 -14.1,-6.3 -14.1,-14.1 0,-7.8 6.3,-14.1 14.1,-14.1 7.8,0 14.1,6.3 14.1,14.1 z"
           id="path320"
           style="fill:#0d47a1;fill-opacity:1" />
        <path
           fill="#231f20"
           d="m 200.2,694.4 c -9.2,0 -16.6,-7.5 -16.6,-16.6 0,-9.2 7.5,-16.6 16.6,-16.6 9.1,0 16.6,7.5 16.6,16.6 0,9.1 -7.4,16.6 -16.6,16.6 z m 0,-28.3 c -6.4,0 -11.6,5.2 -11.6,11.6 0,6.4 5.2,11.6 11.6,11.6 6.4,0 11.6,-5.2 11.6,-11.6 0,-6.4 -5.2,-11.6 -11.6,-11.6 z"
           id="path322" />
      </g>
      <g
         id="g330">
        <path
           fill="#76DDFF"
           d="m 290.6,844.9 c 0,7.8 -6.3,14.1 -14.1,14.1 -7.8,0 -14.1,-6.3 -14.1,-14.1 0,-7.8 6.3,-14.1 14.1,-14.1 7.8,0 14.1,6.3 14.1,14.1 z"
           id="path326"
           style="fill:#0d47a1;fill-opacity:1" />
        <path
           fill="#231f20"
           d="m 276.5,861.6 c -9.2,0 -16.6,-7.5 -16.6,-16.6 0,-9.2 7.5,-16.6 16.6,-16.6 9.2,0 16.6,7.5 16.6,16.6 0,9.1 -7.5,16.6 -16.6,16.6 z m 0,-28.3 c -6.4,0 -11.6,5.2 -11.6,11.6 0,6.4 5.2,11.6 11.6,11.6 6.4,0 11.6,-5.2 11.6,-11.6 0,-6.4 -5.2,-11.6 -11.6,-11.6 z"
           id="path328" />
      </g>
      <g
         id="g336">
        <path
           fill="#76DDFF"
           d="m 238.2,828.7 c 0,7.8 -6.3,14.1 -14.1,14.1 -7.8,0 -14.1,-6.3 -14.1,-14.1 0,-7.8 6.3,-14.1 14.1,-14.1 7.7,0 14.1,6.3 14.1,14.1 z"
           id="path332"
           style="fill:#0d47a1;fill-opacity:1" />
        <path
           fill="#231f20"
           d="m 224,845.4 c -9.2,0 -16.6,-7.5 -16.6,-16.6 0,-9.2 7.5,-16.6 16.6,-16.6 9.2,0 16.6,7.5 16.6,16.6 0.1,9.1 -7.4,16.6 -16.6,16.6 z m 0,-28.3 c -6.4,0 -11.6,5.2 -11.6,11.6 0,6.4 5.2,11.6 11.6,11.6 6.4,0 11.6,-5.2 11.6,-11.6 0.1,-6.4 -5.2,-11.6 -11.6,-11.6 z"
           id="path334" />
      </g>
      <g
         id="g342">
        <path
           fill="#76DDFF"
           d="m 254.9,726.4 c 0,7.8 -6.3,14.1 -14.1,14.1 -7.8,0 -14.1,-6.3 -14.1,-14.1 0,-7.8 6.3,-14.1 14.1,-14.1 7.8,0 14.1,6.3 14.1,14.1 z"
           id="path338"
           style="fill:#0d47a1;fill-opacity:1" />
        <path
           fill="#231f20"
           d="m 240.8,743 c -9.2,0 -16.6,-7.5 -16.6,-16.6 0,-9.2 7.5,-16.6 16.6,-16.6 9.2,0 16.6,7.5 16.6,16.6 0,9.2 -7.4,16.6 -16.6,16.6 z m 0,-28.2 c -6.4,0 -11.6,5.2 -11.6,11.6 0,6.4 5.2,11.6 11.6,11.6 6.4,0 11.6,-5.2 11.6,-11.6 0,-6.4 -5.2,-11.6 -11.6,-11.6 z"
           id="path340" />
      </g>
      <g
         id="g348">
        <path
           fill="#76DDFF"
           d="m 167.6,775.5 c 0,7.8 -6.3,14.1 -14.1,14.1 -7.8,0 -14.1,-6.3 -14.1,-14.1 0,-7.8 6.3,-14.1 14.1,-14.1 7.7,-0.1 14.1,6.3 14.1,14.1 z"
           id="path344"
           style="fill:#0d47a1;fill-opacity:1" />
        <path
           fill="#231f20"
           d="m 153.4,792.1 c -9.2,0 -16.6,-7.5 -16.6,-16.6 0,-9.2 7.5,-16.6 16.6,-16.6 9.1,0 16.6,7.5 16.6,16.6 0.1,9.1 -7.4,16.6 -16.6,16.6 z m 0,-28.3 c -6.4,0 -11.6,5.2 -11.6,11.6 0,6.4 5.2,11.6 11.6,11.6 6.4,0 11.6,-5.2 11.6,-11.6 0.1,-6.3 -5.1,-11.6 -11.6,-11.6 z"
           id="path346" />
      </g>
      <g
         id="g354">
        <path
           fill="#76DDFF"
           d="m 214.3,775.5 c 0,7.8 -6.3,14.1 -14.1,14.1 -7.8,0 -14.1,-6.3 -14.1,-14.1 0,-7.8 6.3,-14.1 14.1,-14.1 7.8,0 14.1,6.3 14.1,14.1 z"
           id="path350"
           style="fill:#0d47a1;fill-opacity:1" />
        <path
           fill="#231f20"
           d="m 200.2,792.1 c -9.2,0 -16.6,-7.5 -16.6,-16.6 0,-9.2 7.5,-16.6 16.6,-16.6 9.1,0 16.6,7.5 16.6,16.6 0,9.1 -7.4,16.6 -16.6,16.6 z m 0,-28.3 c -6.4,0 -11.6,5.2 -11.6,11.6 0,6.4 5.2,11.6 11.6,11.6 6.4,0 11.6,-5.2 11.6,-11.6 0,-6.3 -5.2,-11.6 -11.6,-11.6 z"
           id="path352" />
      </g>
      <g
         id="g358">
        <path
           d="m 1307.7,494.6 h -300.3 c -1.4,0 -2.5,-1.1 -2.5,-2.5 V 147.5 c 0,-1.4 1.1,-2.5 2.5,-2.5 h 300.3 c 1.4,0 2.5,1.1 2.5,2.5 v 344.6 c 0,1.4 -1.2,2.5 -2.5,2.5 z m -297.8,-5 h 295.3 V 150 h -295.3 z"
           id="path356" />
      </g>
      <g
         id="g364">
        <polygon
           fill="#76DDFF"
           points="1048.9,194.8 1265.6,194.8 1266.1,357.4 1049.4,357.4 "
           id="polygon360"
           style="fill:#0d47a1;fill-opacity:1" />
        <path
           fill="#231f20"
           d="m 1266.2,359.9 c 0,0 0,0 0,0 h -216.8 c -1.4,0 -2.5,-1.1 -2.5,-2.5 l -0.5,-162.5 c 0,-0.7 0.3,-1.3 0.7,-1.8 0.5,-0.5 1.1,-0.7 1.8,-0.7 h 216.7 c 1.4,0 2.5,1.1 2.5,2.5 l 0.5,161.8 c 0.1,0.2 0.1,0.5 0.1,0.7 0,1.4 -1.1,2.5 -2.5,2.5 z m -214.3,-5 h 211.7 l -0.5,-157.5 h -211.7 z"
           id="path362" />
      </g>
      <g
         id="g370">
        <rect
           x="1235.2"
           y="305.10001"
           fill="#FFA3C6"
           width="31"
           height="52.299999"
           id="rect366"
           style="fill:#76ff03;fill-opacity:1" />
        <path
           d="m 1266.1,359.9 h -31 c -1.4,0 -2.5,-1.1 -2.5,-2.5 v -52.3 c 0,-1.4 1.1,-2.5 2.5,-2.5 h 31 c 1.4,0 2.5,1.1 2.5,2.5 v 52.3 c 0,1.4 -1.1,2.5 -2.5,2.5 z m -28.4,-5 h 26 v -47.3 h -26 z"
           id="path368" />
      </g>
      <g
         id="g376">
        <rect
           x="1204.2"
           y="230.60001"
           fill="#ffffff"
           width="31"
           height="126.8"
           id="rect372"
           style="fill:#76ddff;fill-opacity:1" />
        <path
           d="m 1235.2,359.9 h -31 c -1.4,0 -2.5,-1.1 -2.5,-2.5 V 230.6 c 0,-1.4 1.1,-2.5 2.5,-2.5 h 31 c 1.4,0 2.5,1.1 2.5,2.5 v 126.8 c 0,1.4 -1.2,2.5 -2.5,2.5 z m -28.5,-5 h 26 V 233 h -26 z"
           id="path374" />
      </g>
      <g
         id="g382">
        <rect
           x="1173.2"
           y="281.20001"
           fill="#FFA3C6"
           width="31"
           height="76.199997"
           id="rect378"
           style="fill:#76ff03;fill-opacity:1" />
        <path
           d="m 1204.2,359.9 h -31 c -1.4,0 -2.5,-1.1 -2.5,-2.5 v -76.2 c 0,-1.4 1.1,-2.5 2.5,-2.5 h 31 c 1.4,0 2.5,1.1 2.5,2.5 v 76.2 c 0,1.4 -1.1,2.5 -2.5,2.5 z m -28.5,-5 h 26 v -71.2 h -26 z"
           id="path380" />
      </g>
      <g
         id="g388">
        <rect
           x="1142.3"
           y="316.70001"
           fill="#ffffff"
           width="31"
           height="40.599998"
           id="rect384"
           style="fill:#76ddff;fill-opacity:1" />
        <path
           d="m 1173.2,359.9 h -31 c -1.4,0 -2.5,-1.1 -2.5,-2.5 v -40.6 c 0,-1.4 1.1,-2.5 2.5,-2.5 h 31 c 1.4,0 2.5,1.1 2.5,2.5 v 40.6 c 0,1.4 -1.1,2.5 -2.5,2.5 z m -28.4,-5 h 26 v -35.6 h -26 z"
           id="path386" />
      </g>
      <g
         id="g394">
        <rect
           x="1111.3"
           y="281.20001"
           fill="#FFA3C6"
           width="31"
           height="76.199997"
           id="rect390"
           style="fill:#76ff03;fill-opacity:1" />
        <path
           d="m 1142.3,359.9 h -31 c -1.4,0 -2.5,-1.1 -2.5,-2.5 v -76.2 c 0,-1.4 1.1,-2.5 2.5,-2.5 h 31 c 1.4,0 2.5,1.1 2.5,2.5 v 76.2 c 0,1.4 -1.1,2.5 -2.5,2.5 z m -28.5,-5 h 26 v -71.2 h -26 z"
           id="path392" />
      </g>
      <g
         id="g400">
        <rect
           x="1080.4"
           y="255.60001"
           fill="#ffffff"
           width="31"
           height="101.7"
           id="rect396"
           style="fill:#76ddff;fill-opacity:1" />
        <path
           d="m 1111.3,359.9 h -31 c -1.4,0 -2.5,-1.1 -2.5,-2.5 V 255.6 c 0,-1.4 1.1,-2.5 2.5,-2.5 h 31 c 1.4,0 2.5,1.1 2.5,2.5 v 101.7 c 0,1.5 -1.1,2.6 -2.5,2.6 z m -28.5,-5 h 26 v -96.8 h -26 z"
           id="path398" />
      </g>
      <g
         id="g406">
        <rect
           x="1049.4"
           y="319.29999"
           fill="#FFA3C6"
           width="31"
           height="38.099998"
           id="rect402"
           style="fill:#76ff03;fill-opacity:1" />
        <path
           d="m 1080.4,359.9 h -31 c -1.4,0 -2.5,-1.1 -2.5,-2.5 v -38.1 c 0,-1.4 1.1,-2.5 2.5,-2.5 h 31 c 1.4,0 2.5,1.1 2.5,2.5 v 38.1 c -0.1,1.4 -1.2,2.5 -2.5,2.5 z m -28.5,-5 h 26 v -33.1 h -26 z"
           id="path404" />
      </g>
      <g
         id="g412">
        <rect
           x="1049.4"
           y="393.70001"
           fill="#faffad"
           width="114.4"
           height="46.400002"
           id="rect408"
           style="fill:#76ddff;fill-opacity:1" />
        <path
           d="m 1163.8,442.7 h -114.4 c -1.4,0 -2.5,-1.1 -2.5,-2.5 v -46.4 c 0,-1.4 1.1,-2.5 2.5,-2.5 h 114.4 c 1.4,0 2.5,1.1 2.5,2.5 v 46.4 c 0,1.3 -1.1,2.5 -2.5,2.5 z m -111.9,-5 h 109.4 v -41.5 h -109.4 z"
           id="path410" />
      </g>
      <g
         id="g416">
        <path
           d="m 1266.1,408.5 h -77.4 c -1.4,0 -2.5,-1.1 -2.5,-2.5 0,-1.4 1.1,-2.5 2.5,-2.5 h 77.4 c 1.4,0 2.5,1.1 2.5,2.5 0,1.4 -1.1,2.5 -2.5,2.5 z"
           id="path414" />
      </g>
      <g
         id="g420">
        <path
           d="m 1266.1,432.6 h -77.4 c -1.4,0 -2.5,-1.1 -2.5,-2.5 0,-1.4 1.1,-2.5 2.5,-2.5 h 77.4 c 1.4,0 2.5,1.1 2.5,2.5 0,1.4 -1.1,2.5 -2.5,2.5 z"
           id="path418" />
      </g>
      <g
         id="g426">
        <path
           fill="#939598"
           d="m 1246.4,672.4 c 0,-6.1 -5,-11.1 -11.1,-11.1 h -204.9 c -6.1,0 -11.1,5 -11.1,11.1 v 9.2 h 227 v -9.2 z"
           id="path422" />
        <path
           d="m 1246.4,684.2 h -227 c -1.4,0 -2.5,-1.1 -2.5,-2.5 v -9.2 c 0,-7.5 6.1,-13.6 13.6,-13.6 h 204.9 c 7.5,0 13.6,6.1 13.6,13.6 v 9.2 c -0.1,1.4 -1.2,2.5 -2.6,2.5 z m -224.5,-5 h 222 v -6.8 c 0,-4.7 -3.9,-8.6 -8.6,-8.6 h -204.9 c -4.7,0 -8.6,3.9 -8.6,8.6 v 6.8 z"
           id="path424" />
      </g>
      <g
         id="g432">
        <path
           fill="#939598"
           d="m 1005.5,845.7 c 0,6.1 5,11.1 11.1,11.1 h 232.6 c 6.1,0 11.1,-5 11.1,-11.1 v -9.2 h -254.8 z"
           id="path428" />
        <path
           d="m 1249.2,859.3 h -232.6 c -7.5,0 -13.6,-6.1 -13.6,-13.6 v -9.2 c 0,-1.4 1.1,-2.5 2.5,-2.5 h 254.8 c 1.4,0 2.5,1.1 2.5,2.5 v 9.2 c 0,7.5 -6.1,13.6 -13.6,13.6 z M 1008,838.9 v 6.7 c 0,4.7 3.9,8.6 8.6,8.6 h 232.6 c 4.7,0 8.6,-3.9 8.6,-8.6 v -6.7 z"
           id="path430" />
      </g>
      <g
         id="g436">
        <path
           d="m 1246.4,820.1 h -227 c -1.4,0 -2.5,-1.1 -2.5,-2.5 v -136 c 0,-1.4 1.1,-2.5 2.5,-2.5 h 227 c 1.4,0 2.5,1.1 2.5,2.5 v 136 c 0,1.4 -1.1,2.5 -2.5,2.5 z m -224.5,-5 h 222 v -131 h -222 z"
           id="path434" />
      </g>
      <g
         id="g440">
        <path
           d="m 1150,849.1 h -34.1 c -1.4,0 -2.5,-1.1 -2.5,-2.5 0,-1.4 1.1,-2.5 2.5,-2.5 h 34.1 c 1.4,0 2.5,1.1 2.5,2.5 0,1.4 -1.2,2.5 -2.5,2.5 z"
           id="path438" />
      </g>
      <g
         id="g454">
        <g
           id="g446">
          <path
             fill="#76ddff"
             d="m 1118.2,697.7 c 1,2.9 2.7,5.4 5,7.3 6.7,5.4 16.6,4.4 22.1,-2.3 1.1,-1.4 2,-3 2.6,-4.7 l 0.4,-1.3 1.3,0.4 c 4.8,1.6 9.3,3.8 13.3,6.6 l 1.1,0.8 -0.7,1.1 c -1.9,3 -2.8,6.6 -2.4,10.1 0.5,4.1 2.5,7.9 5.7,10.5 4.2,3.4 9.8,4.4 14.9,2.7 l 1.3,-0.4 0.5,1.3 c 1.6,4.6 2.7,9.4 3.1,14.3 l 0.1,1.3 -1.3,0.1 c -4.1,0.4 -7.9,2.5 -10.5,5.7 -2.7,3.3 -3.9,7.4 -3.4,11.6 0.4,4.2 2.5,7.9 5.7,10.5 0.5,0.4 1,0.7 1.4,1 l 1.1,0.7 -0.7,1.1 c -1.3,2.2 -2.8,4.2 -4.3,6.1 -1.5,1.9 -3.2,3.7 -5.1,5.5 l -1,0.9 -0.9,-1 c -0.4,-0.4 -0.8,-0.8 -1.3,-1.2 -6.7,-5.4 -16.7,-4.4 -22.1,2.3 -2.6,3.2 -3.8,7.3 -3.4,11.5 l 0.1,1.3 -1.3,0.2 c -4.9,0.6 -9.8,0.6 -14.6,-0.1 l -1.3,-0.2 0.2,-1.3 c 0.1,-1.2 0.1,-2.3 0,-3.5 -0.4,-4.2 -2.5,-7.9 -5.7,-10.5 -6.2,-5 -15.2,-4.6 -20.9,1 l -1,0.9 -1,-0.9 c -3.6,-3.5 -6.7,-7.4 -9.2,-11.7 l -0.7,-1.2 1.2,-0.7 c 1.6,-1 3,-2.2 4.2,-3.6 2.6,-3.3 3.9,-7.4 3.4,-11.6 -0.5,-4.2 -2.5,-7.9 -5.7,-10.5 -2.3,-1.9 -5.2,-3.1 -8.2,-3.4 l -1.4,-0.1 0.1,-1.4 c 0.5,-4.9 1.6,-9.7 3.4,-14.3 l 0.5,-1.2 1.3,0.4 c 6.3,2.2 13.3,0.3 17.5,-4.9 2.7,-3.3 3.9,-7.4 3.4,-11.6 -0.3,-2.3 -1,-4.6 -2.2,-6.5 l -0.7,-1.2 1.1,-0.7 c 4.2,-2.7 8.7,-4.8 13.4,-6.3 l 1.3,-0.4 z"
             id="path442" />
          <path
             fill="#231F20"
             d="m 1132.4,804.7 c -2.7,0 -5.3,-0.2 -8,-0.6 l -1.3,-0.2 c -1.3,-0.2 -2.3,-1.4 -2.1,-2.8 l 0.2,-1.3 c 0.1,-0.9 0.1,-1.9 0,-2.9 -0.4,-3.5 -2.1,-6.7 -4.8,-8.9 -5.1,-4.1 -12.9,-3.7 -17.6,0.9 l -1,0.9 c -1,1 -2.5,1 -3.5,0 l -1,-0.9 c -3.8,-3.7 -7,-7.8 -9.7,-12.3 l -0.7,-1.1 c -0.7,-1.2 -0.3,-2.7 0.8,-3.4 l 1.2,-0.7 c 1.3,-0.8 2.5,-1.8 3.5,-3.1 2.2,-2.7 3.2,-6.2 2.9,-9.7 -0.4,-3.5 -2.1,-6.6 -4.8,-8.8 -2,-1.6 -4.3,-2.6 -6.9,-2.9 l -1.3,-0.1 c -0.7,-0.1 -1.3,-0.4 -1.7,-0.9 -0.4,-0.5 -0.6,-1.2 -0.6,-1.8 l 0.1,-1.4 c 0.5,-5.2 1.7,-10.2 3.5,-14.9 l 0.5,-1.2 c 0.5,-1.3 1.9,-1.9 3.2,-1.4 l 1.3,0.4 c 5.2,1.9 11.2,0.2 14.7,-4.1 2.2,-2.7 3.2,-6.2 2.9,-9.7 -0.2,-2 -0.9,-3.9 -1.9,-5.5 l -0.7,-1.2 c -0.7,-1.2 -0.3,-2.7 0.8,-3.4 l 1.1,-0.7 c 4.4,-2.8 9.1,-5 14,-6.6 l 1.3,-0.4 c 1.3,-0.4 2.7,0.3 3.1,1.6 l 0.4,1.3 c 0.8,2.4 2.3,4.5 4.2,6.1 5.4,4.4 14.2,3.5 18.6,-1.9 0.9,-1.2 1.7,-2.5 2.2,-4 l 0.4,-1.3 c 0.5,-1.3 1.9,-2 3.2,-1.5 l 1.3,0.4 c 5,1.7 9.7,4 13.9,6.9 l 1.1,0.8 c 1.1,0.8 1.4,2.3 0.7,3.4 l -0.7,1.1 c -1.6,2.5 -2.3,5.6 -2,8.5 0.4,3.5 2.1,6.6 4.8,8.8 3.5,2.8 8.3,3.7 12.5,2.3 l 1.3,-0.4 c 1.3,-0.4 2.7,0.2 3.2,1.5 l 0.5,1.3 c 1.8,4.9 2.8,9.9 3.2,15 l 0.1,1.3 c 0.1,1.3 -0.9,2.5 -2.2,2.7 l -1.3,0.1 c -3.5,0.4 -6.6,2.1 -8.8,4.8 -2.2,2.8 -3.3,6.2 -2.9,9.7 0.4,3.5 2.1,6.6 4.8,8.9 0.3,0.3 0.8,0.6 1.2,0.8 l 1.2,0.8 c 1.1,0.7 1.5,2.2 0.8,3.4 l -0.7,1.1 c -1.4,2.3 -2.9,4.5 -4.5,6.4 -1.5,1.9 -3.3,3.7 -5.3,5.7 l -1,0.9 c -1,0.9 -2.5,0.9 -3.5,-0.1 l -0.9,-1 c -0.4,-0.4 -0.7,-0.7 -1.1,-1 -2.3,-1.8 -5.2,-2.9 -8.2,-2.9 -4,0 -7.8,1.8 -10.3,4.9 -2.2,2.7 -3.2,6.1 -2.9,9.7 l 0.1,1.3 c 0.1,1.3 -0.8,2.5 -2.2,2.7 l -1.3,0.2 c -2.5,0.3 -4.9,0.4 -7.4,0.4 z m -6.2,-5.3 c 3.9,0.5 7.9,0.5 11.8,0.1 -0.2,-4.4 1.3,-8.7 4.1,-12.2 3.5,-4.3 8.6,-6.7 14.2,-6.7 4.2,0 8.2,1.4 11.4,4 0.2,0.2 0.5,0.4 0.7,0.6 1.6,-1.5 2.9,-3 4.1,-4.5 1.2,-1.5 2.4,-3.2 3.5,-4.9 -0.2,-0.2 -0.5,-0.3 -0.7,-0.5 -3.8,-3.1 -6.1,-7.4 -6.6,-12.2 -0.5,-4.8 0.9,-9.6 4,-13.4 2.8,-3.5 6.7,-5.8 11.1,-6.5 -0.4,-3.9 -1.2,-7.8 -2.5,-11.6 -5.6,1.5 -11.7,0.2 -16.2,-3.4 -3.7,-3 -6.1,-7.4 -6.6,-12.2 -0.4,-3.8 0.4,-7.6 2.2,-10.8 -3.3,-2.2 -7,-4 -10.8,-5.4 -0.7,1.6 -1.5,3.1 -2.6,4.4 -3.5,4.3 -8.6,6.7 -14.1,6.7 v 0 c -4.2,0 -8.2,-1.4 -11.5,-4.1 -2.4,-2 -4.3,-4.5 -5.4,-7.4 -3.8,1.3 -7.5,3 -10.9,5.1 1.1,2 1.8,4.3 2,6.6 0.5,4.9 -0.9,9.6 -4,13.4 -4.5,5.6 -12.3,8 -19.2,6 -1.3,3.7 -2.3,7.6 -2.7,11.5 3.1,0.5 6,1.8 8.4,3.8 3.7,3 6.1,7.3 6.6,12.2 0.5,4.9 -0.9,9.6 -4,13.4 -1.2,1.4 -2.5,2.6 -3.9,3.6 2.1,3.5 4.6,6.6 7.5,9.5 6.4,-5.6 16.7,-5.8 23.4,-0.4 3.7,3 6.1,7.4 6.6,12.2 0.2,1.1 0.2,2.1 0.1,3.1 z"
             id="path444"
             style="fill:#0d47a1;fill-opacity:1" />
        </g>
        <g
           id="g452">
          <path
             fill="#ffffff"
             d="m 1136.1,777.3 c -15.9,1.7 -30.1,-9.7 -31.8,-25.6 -1.7,-15.8 9.8,-30.1 25.6,-31.8 15.8,-1.7 30.1,9.7 31.8,25.6 1.7,15.9 -9.7,30.1 -25.6,31.8 z"
             id="path448" />
          <path
             fill="#231f20"
             d="m 1133,780 c -16,0 -29.4,-12 -31.1,-28 -1.9,-17.2 10.6,-32.7 27.8,-34.6 17.5,-1.9 32.7,10.7 34.5,27.8 1.8,17.2 -10.6,32.7 -27.8,34.5 -1.2,0.2 -2.3,0.3 -3.4,0.3 z m 0,-57.8 c -0.9,0 -1.9,0.1 -2.9,0.2 -14.5,1.6 -25,14.6 -23.4,29.1 1.6,14.4 14.4,24.9 29.1,23.4 14.4,-1.6 24.9,-14.6 23.4,-29 -1.4,-13.5 -12.7,-23.7 -26.2,-23.7 z"
             id="path450" />
        </g>
      </g>
    </g>
  </g>
</svg>
