<svg xmlns="http://www.w3.org/2000/svg" xmlns:xlink="http://www.w3.org/1999/xlink" viewBox="0 0 335.98999 235.47"><defs><style>.cls-1{fill:url(#linear-gradient);}.cls-2,.cls-4{fill:#9fa3a9;}.cls-13,.cls-2{opacity:0.4;}.cls-2{isolation:isolate;}.cls-3{fill:#ddd;}.cls-5{fill:#596374;}.cls-6{fill:#8fd5fb;}.cls-7{fill:#fff;}.cls-8{fill:#f05751;}.cls-9{fill:gray;}.cls-10{fill:#2f3b3b;}.cls-11{fill:#5fc39f;}.cls-12{fill:none;}.cls-14{fill:#ffc941;}</style><linearGradient id="linear-gradient" x1="167.995" y1="235.47" x2="167.995" y2="0.28" gradientUnits="userSpaceOnUse"><stop offset="0" stop-color="#29b6f6"/><stop offset="1" stop-color="#1565c0"/></linearGradient></defs><title>D_22-01</title><g id="Layer_1" data-name="Layer 1"><rect class="cls-1" y="0.28" width="335.98999" height="235.19"/></g><g id="Layer_2" data-name="Layer 2"><g id="items"><g id="table"><polygon class="cls-2" points="328.3 200.84 9.62 200.84 9.62 211.35 17.51 211.35 17.51 216.27 29.01 216.27 29.01 235.47 39.52 235.47 39.52 216.27 298.4 216.27 298.4 235.47 308.92 235.47 308.92 216.27 320.42 216.27 320.42 211.35 328.3 211.35 328.3 200.84"/><rect class="cls-3" x="5.65" y="200.84" width="318.67999" height="10.50999"/><rect class="cls-4" x="13.54" y="211.01" width="302.91001" height="5.25999"/><rect class="cls-5" x="25.04" y="216.24001" width="10.51" height="19.23"/><rect class="cls-5" x="294.44" y="216.24001" width="10.51001" height="19.23"/></g><g id="window"><rect class="cls-6" x="39" y="0.28" width="149.5" height="147.25"/><path class="cls-7" d="M206.25,147.27H195V-.28h-6.58V46.63H39.18V-.28H32.6V147.27H20.25v6.58H33.42v6H195.28v-6h11v-6.58ZM39.18,53.21H188.42v94.06H39.18Z" transform="translate(0 0.28)"/></g><g id="computer"><path class="cls-2" d="M244.56,79.31H102.24a3.65,3.65,0,0,0-3.63,3.64v91.88a3.65,3.65,0,0,0,3.63,3.64h55.47l-3.28,15.91h-10.8v6.14h59.85v-6.14H192.37l-3.64-15.91h55.83a3.66,3.66,0,0,0,3.65-3.64V82.95A3.66,3.66,0,0,0,244.56,79.31Z" transform="translate(0 0.28)"/><polygon class="cls-5" points="187.56 194.66 183.83 178.36 152.97 178.36 149.6 194.66 138.81 194.66 138.81 200.8 198.67 200.8 198.67 194.66 187.56 194.66"/><path class="cls-3" d="M97.42,79.31a3.65,3.65,0,0,0-3.63,3.64v91.88a3.65,3.65,0,0,0,3.63,3.64H239.75a3.66,3.66,0,0,0,3.65-3.64V82.95a3.66,3.66,0,0,0-3.65-3.64Z" transform="translate(0 0.28)"/><rect class="cls-7" x="101.34" y="87.15" width="134.48" height="84.04"/><rect class="cls-8" x="106.94" y="91.85" width="37.20999" height="11.15"/><rect class="cls-3" x="149.98" y="91.85" width="81.15001" height="11.15"/><rect class="cls-4" x="106.05" y="107.37" width="125.08" height="11.4"/><rect class="cls-4" x="106.26" y="155.28999" width="123.9" height="7.05"/><rect class="cls-8" x="151.98" y="123.59" width="33.69" height="24.88"/><rect class="cls-9" x="151.98" y="142.45" width="33.69" height="6.03"/><rect class="cls-7" x="161.48" y="144.60001" width="14.69" height="1.73"/><rect class="cls-3" x="106.26" y="124.04" width="33.68" height="24.88"/><rect class="cls-9" x="106.26" y="142.91" width="33.68" height="6.02"/><rect class="cls-7" x="115.76" y="145.03999" width="14.68999" height="1.75"/><rect class="cls-6" x="196.59" y="123.59" width="33.69" height="24.88"/><rect class="cls-9" x="196.59" y="142.45" width="33.69" height="6.03"/><rect class="cls-7" x="206.09" y="144.60001" width="14.69" height="1.73"/><polygon class="cls-7" points="165.74 129.06 165.74 138.8 172.72 134.03 165.74 129.06"/><polygon class="cls-7" points="210.01 129.06 210.01 138.8 217 134.03 210.01 129.06"/></g><g id="mouse"><path class="cls-2" d="M248.06,200.44a17.34,17.34,0,0,0-30.21,0Z" transform="translate(0 0.28)"/><path class="cls-7" d="M242.11,200.44a17.34,17.34,0,0,0-30.21,0h30.21Z" transform="translate(0 0.28)"/></g><g id="laptop"><path class="cls-2" d="M168.8,197.14v-1.5a.6.6,0,0,0-.6-.6H152.95a3.58,3.58,0,0,0,3.58-3.58h0V126.84a3.58,3.58,0,0,0-1-2.54,3.62,3.62,0,0,0-2.54-1H51.83a3.57,3.57,0,0,0-3.58,3.56q0,.01,0,.02V191.5a3.58,3.58,0,0,0,3.58,3.5H36.57a.6.6,0,0,0-.42.18.61.61,0,0,0-.18.43v1.5h0a10.51,10.51,0,0,0,8,3.63H160.84a10.51,10.51,0,0,0,8-3.63h0Z" transform="translate(0 0.28)"/><path class="cls-10" d="M152.56,191.46A3.58,3.58,0,0,1,149,195H47.86a3.58,3.58,0,0,1-3.58-3.58h0V126.84a3.57,3.57,0,0,1,3.56-3.58q.01,0,.02,0H149a3.62,3.62,0,0,1,2.54,1,3.57994,3.57994,0,0,1,1,2.54v64.62Z" transform="translate(0 0.28)"/><circle class="cls-11" cx="98.42" cy="126.27" r="1.46"/><path class="cls-7" d="M164.83,197.15h0v-1.5a.6.6,0,0,0-.6-.6H32.6a.6.6,0,0,0-.42.18.61.61,0,0,0-.18.43v1.5h0a10.51,10.51,0,0,0,8,3.63H156.87a10.53,10.53,0,0,0,8-3.63h0Z" transform="translate(0 0.28)"/><rect class="cls-6" x="49.91" y="129.06" width="97.01" height="60.63"/><polygon class="cls-11" points="94.04 170.58 119.82 144.36 135.81 160.62 135.81 136.75 61.14 136.75 61.14 185.79 86.31 162.15 94.04 170.58"/><polygon class="cls-10" points="86.31 162.15 61.14 185.79 79.09 185.79 94.04 170.58 86.31 162.15"/><polygon class="cls-5" points="119.82 144.36 94.04 170.58 79.09 185.79 107.98 185.79 135.81 185.79 135.81 160.62 119.82 144.36"/><rect class="cls-12" x="61.14" y="136.75" width="74.67" height="49.04001"/><rect class="cls-7" x="61.1" y="136.65" width="74.62" height="3.85001"/></g><g id="lamp"><g class="cls-13"><path class="cls-4" d="M320.38,149.36a6.18,6.18,0,0,0-.85-12L294.14,101l-4.85,4.11,24.22,34.67a6.15,6.15,0,0,0,.42,7.8L289.63,192c-10-.29-17.72-1.79-17.72,8.54h40.48c0-10.31-7.71-8.83-17.68-8.54l2.2-.08ZM292.15,192h0Z" transform="translate(0 0.28)"/><polygon class="cls-4" points="286.4 107.88 286.4 107.88 300.7 95.76 288.58 81.46 274.29 93.58 253.93 98.55 278.17 127.15 286.4 107.88"/></g><path class="cls-10" d="M290.18,101l-4.85,4.11,26.85,38.44L285.67,192h2.51c1.64,0,3.23-.06,4.76-.12l26.79-48.54Z" transform="translate(0 0.28)"/><circle class="cls-7" cx="314.54001" cy="143.74001" r="6.17999"/><polygon class="cls-11" points="296.73 95.76 284.62 81.46 270.32 93.58 249.96 98.55 274.2 127.15 282.44 107.88 282.44 107.88 296.73 95.76"/><path class="cls-7" d="M308.42,200.5c0-11.18-9.06-8.5-20.24-8.5s-20.24-2.68-20.24,8.5h40.48Z" transform="translate(0 0.28)"/></g><g id="picture"><rect class="cls-2" x="257.04001" y="138.5" width="35.64999" height="39.25"/><rect class="cls-7" x="252.22" y="138.5" width="35.64999" height="39.25"/><rect class="cls-8" x="254.79999" y="141.33" width="30.5" height="27.14999"/><path class="cls-7" d="M272.47,146.53h-5.24l-5.84,15.54h4.9l.71-2.57h5.45l.78,2.56h5Zm-4.37,9.61,1.7-5.58,1.71,5.58Z" transform="translate(0 0.28)"/></g><g id="board"><rect class="cls-8" x="210.14999" y="14.7" width="101.5" height="55.66"/><path class="cls-10" d="M207.14,10.23V72.51H314.65V10.23Zm6,57.3V15.22h95.49V67.53H213.14Z" transform="translate(0 0.28)"/><rect class="cls-3" x="220.75" y="21.28" width="21" height="21"/><rect class="cls-7" x="255.5" y="57.53" width="21" height="21"/><rect class="cls-6" x="278.5" y="31.86" width="21" height="21"/><circle class="cls-6" cx="265.67001" cy="61.28" r="1.5"/><circle class="cls-5" cx="231" cy="25.61" r="1.5"/><circle class="cls-14" cx="288.67001" cy="35.61" r="1.5"/></g></g></g></svg>