<svg id="Layer_1" data-name="Layer 1" xmlns="http://www.w3.org/2000/svg" viewBox="0 0 322.64999 235.47"><defs><style>.cls-1,.cls-3{fill:#9fa3a9;}.cls-1,.cls-12{opacity:0.4;}.cls-1{isolation:isolate;}.cls-2{fill:#ddd;}.cls-4{fill:#596374;}.cls-5{fill:#8fd5fb;}.cls-6{fill:#fff;}.cls-7{fill:#f05751;}.cls-8{fill:gray;}.cls-9{fill:#2f3b3b;}.cls-10{fill:#5fc39f;}.cls-11{fill:none;}.cls-13{fill:#ffc941;}</style></defs><title>jumbo-stock</title><g id="Layer_2" data-name="Layer 2"><g id="items"><g id="table"><polygon class="cls-1" points="322.65 200.84 3.97 200.84 3.97 211.35 11.86 211.35 11.86 216.27 23.36 216.27 23.36 235.47 33.87 235.47 33.87 216.27 292.75 216.27 292.75 235.47 303.27 235.47 303.27 216.27 314.77 216.27 314.77 211.35 322.65 211.35 322.65 200.84"/><rect class="cls-2" y="200.84" width="318.67999" height="10.50999"/><rect class="cls-3" x="7.89" y="211.00999" width="302.91001" height="5.25999"/><rect class="cls-4" x="19.39" y="216.24001" width="10.51" height="19.23"/><rect class="cls-4" x="288.79" y="216.24001" width="10.51001" height="19.23"/></g><g id="window"><rect class="cls-5" x="33.35" y="0.28" width="149.5" height="147.25"/><path class="cls-6" d="M206.25,147.55H195V0h-6.58V46.91H39.18V0H32.6V147.55H20.25v6.58H33.42v6H195.28v-6h11v-6.58ZM39.18,53.49H188.42v94.06H39.18Z" transform="translate(-5.65)"/></g><g id="computer"><path class="cls-1" d="M244.56,79.59H102.24a3.65,3.65,0,0,0-3.63,3.64v91.88a3.65,3.65,0,0,0,3.63,3.64h55.47l-3.28,15.91h-10.8v6.14h59.85v-6.14H192.37l-3.64-15.91h55.83a3.66,3.66,0,0,0,3.65-3.64V83.23A3.66,3.66,0,0,0,244.56,79.59Z" transform="translate(-5.65)"/><polygon class="cls-4" points="181.91 194.66 178.18 178.36 147.32 178.36 143.95 194.66 133.16 194.66 133.16 200.8 193.02 200.8 193.02 194.66 181.91 194.66"/><path class="cls-2" d="M97.42,79.59a3.65,3.65,0,0,0-3.63,3.64v91.88a3.65,3.65,0,0,0,3.63,3.64H239.75a3.66,3.66,0,0,0,3.65-3.64V83.23a3.66,3.66,0,0,0-3.65-3.64Z" transform="translate(-5.65)"/><rect class="cls-6" x="95.69" y="87.15" width="134.48" height="84.04"/><rect class="cls-7" x="101.29" y="91.85" width="37.20999" height="11.15"/><rect class="cls-2" x="144.33" y="91.85" width="81.15001" height="11.15"/><rect class="cls-3" x="100.4" y="107.37" width="125.08" height="11.4"/><rect class="cls-3" x="100.61" y="155.28999" width="123.9" height="7.05"/><rect class="cls-7" x="146.33" y="123.59" width="33.69" height="24.88"/><rect class="cls-8" x="146.33" y="142.45" width="33.69" height="6.03"/><rect class="cls-6" x="155.83" y="144.60001" width="14.69" height="1.73"/><rect class="cls-2" x="100.61" y="124.04" width="33.68" height="24.88"/><rect class="cls-8" x="100.61" y="142.91" width="33.68" height="6.02"/><rect class="cls-6" x="110.11" y="145.03999" width="14.68999" height="1.75"/><rect class="cls-5" x="190.94" y="123.59" width="33.69" height="24.88"/><rect class="cls-8" x="190.94" y="142.45" width="33.69" height="6.03"/><rect class="cls-6" x="200.44" y="144.60001" width="14.69" height="1.73"/><polygon class="cls-6" points="160.09 129.06 160.09 138.8 167.07 134.03 160.09 129.06"/><polygon class="cls-6" points="204.36 129.06 204.36 138.8 211.35 134.03 204.36 129.06"/></g><g id="mouse"><path class="cls-1" d="M248.06,200.72a17.34,17.34,0,0,0-30.21,0Z" transform="translate(-5.65)"/><path class="cls-6" d="M242.11,200.72a17.34,17.34,0,0,0-30.21,0h30.21Z" transform="translate(-5.65)"/></g><g id="laptop"><path class="cls-1" d="M168.8,197.42v-1.5a.6.6,0,0,0-.6-.6H152.95a3.58,3.58,0,0,0,3.58-3.58h0V127.12a3.58,3.58,0,0,0-1-2.54,3.62,3.62,0,0,0-2.54-1H51.83a3.57,3.57,0,0,0-3.58,3.56v64.64a3.58,3.58,0,0,0,3.58,3.5H36.57a.6.6,0,0,0-.42.18.61.61,0,0,0-.18.43v1.5h0a10.51,10.51,0,0,0,8,3.63H160.84a10.51,10.51,0,0,0,8-3.63h0Z" transform="translate(-5.65)"/><path class="cls-9" d="M152.56,191.74a3.58,3.58,0,0,1-3.56,3.54H47.86a3.58,3.58,0,0,1-3.58-3.58h0V127.12a3.57,3.57,0,0,1,3.56-3.58H149a3.62,3.62,0,0,1,2.54,1,3.57994,3.57994,0,0,1,1,2.54V191.7Z" transform="translate(-5.65)"/><circle class="cls-10" cx="92.77" cy="126.27" r="1.46"/><path class="cls-6" d="M164.83,197.43h0v-1.5a.6.6,0,0,0-.6-.6H32.6a.6.6,0,0,0-.42.18.61.61,0,0,0-.18.43v1.5h0a10.51,10.51,0,0,0,8,3.63H156.87a10.53,10.53,0,0,0,8-3.63h0Z" transform="translate(-5.65)"/><rect class="cls-5" x="44.26" y="129.06" width="97.01" height="60.63"/><polygon class="cls-10" points="88.39 170.58 114.17 144.36 130.16 160.62 130.16 136.75 55.49 136.75 55.49 185.79 80.66 162.15 88.39 170.58"/><polygon class="cls-9" points="80.66 162.15 55.49 185.79 73.44 185.79 88.39 170.58 80.66 162.15"/><polygon class="cls-4" points="114.17 144.36 88.39 170.58 73.44 185.79 102.33 185.79 130.16 185.79 130.16 160.62 114.17 144.36"/><rect class="cls-11" x="55.49" y="136.75" width="74.67" height="49.04001"/><rect class="cls-6" x="55.45" y="136.64999" width="74.62" height="3.85001"/></g><g id="lamp"><g class="cls-12"><path class="cls-3" d="M320.38,149.64a6.18,6.18,0,0,0-.85-12l-25.39-36.36-4.85,4.11,24.22,34.67a6.15,6.15,0,0,0,.42,7.8l-24.3,44.42c-10-.29-17.72-1.79-17.72,8.54h40.48c0-10.31-7.71-8.83-17.68-8.54l2.2-.08Zm-28.23,42.64Z" transform="translate(-5.65)"/><polygon class="cls-3" points="280.75 107.88 280.75 107.88 295.05 95.76 282.93 81.46 268.64 93.58 248.28 98.55 272.52 127.15 280.75 107.88"/></g><path class="cls-9" d="M290.18,101.28l-4.85,4.11,26.85,38.44-26.51,48.45h2.51c1.64,0,3.23-.06,4.76-.12l26.79-48.54Z" transform="translate(-5.65)"/><circle class="cls-6" cx="308.89001" cy="143.74001" r="6.17999"/><polygon class="cls-10" points="291.08 95.76 278.97 81.46 264.67 93.58 244.31 98.55 268.55 127.15 276.79 107.88 276.79 107.88 291.08 95.76"/><path class="cls-6" d="M308.42,200.78c0-11.18-9.06-8.5-20.24-8.5s-20.24-2.68-20.24,8.5h40.48Z" transform="translate(-5.65)"/></g><g id="picture"><rect class="cls-1" x="251.39001" y="138.5" width="35.64999" height="39.25"/><rect class="cls-6" x="246.57" y="138.5" width="35.64999" height="39.25"/><rect class="cls-7" x="249.14999" y="141.33" width="30.5" height="27.14999"/><path class="cls-6" d="M272.47,146.81h-5.24l-5.84,15.54h4.9l.71-2.57h5.45l.78,2.56h5Zm-4.37,9.61,1.7-5.58,1.71,5.58Z" transform="translate(-5.65)"/></g><g id="board"><rect class="cls-7" x="204.49999" y="14.7" width="101.5" height="55.66"/><path class="cls-9" d="M207.14,10.51V72.79H314.65V10.51Zm6,57.3V15.5h95.49V67.81Z" transform="translate(-5.65)"/><rect class="cls-2" x="215.1" y="21.28" width="21" height="21"/><rect class="cls-6" x="249.85" y="57.53" width="21" height="21"/><rect class="cls-5" x="272.85" y="31.86" width="21" height="21"/><circle class="cls-5" cx="260.02001" cy="61.28" r="1.5"/><circle class="cls-4" cx="225.35" cy="25.61" r="1.5"/><circle class="cls-13" cx="283.02001" cy="35.61" r="1.5"/></g></g></g></svg>