<svg id="Layer_1" data-name="Layer 1" xmlns="http://www.w3.org/2000/svg" viewBox="0 0 198.88 192.44392"><defs><style>.cls-1{fill:#194fa6;}.cls-2{fill:#fff;}.cls-3{fill:#c93e3e;}</style></defs><title>txmap</title><path class="cls-1" d="M63.62521,116.83511,61.3376,130.16236c-1.56761.43912-2.95137.63827-3.47733.05616-.16851-.18382-.40338-.14807-.68933.06638-2.18547,1.61866-7.30188,13.35277-7.30188,13.35277s-3.24758-6.41341-4.13094-7.18445c-.88337-.77615-6.296-5.06028-9.38523-7.70018-3.09948-2.645-3.27818-8.74695-4.35559-11.61665-1.07743-2.8748-4.84582-6.85253-8.25677-8.00654-3.41606-1.1489-7.0006-6.8985-12.92895-9.58949C4.88839,96.84429,1.12,86.07016,1.12,86.07016H33.33l29.708,28.95736A2.0487,2.0487,0,0,1,63.62521,116.83511Z" transform="translate(-1.12 -4.10519)"/><path class="cls-1" d="M101.79926,12.27V160.40647s-2.17522-1.48079-4.62112-3.39562c-1.12846-.88851-2.31821-1.86378-3.3752-2.83905a14.05758,14.05758,0,0,1-3.15564-3.702c-1.55231-3.41606-3.1965-13.58767-5.4228-13.49576-2.23141.09194-17.34072-7.24061-17.67264-8.34865-.21445-.70466-3.48752.77616-6.21426,1.537l2.28761-13.32725a2.0487,2.0487,0,0,0-.58723-1.80759L33.33,86.07016H56.13948l.54126-17.70325.12765-4.15135L58.39134,12.27Z" transform="translate(-1.12 -4.10519)"/><path class="cls-2" d="M190.05,106.56141H101.79926V52.12915s7.94527.28084,9.38012,2.15992a12.33791,12.33791,0,0,0,2.45608,2.57356s-.03063-3.1097,2.12421-3.1097,11.03964.94463,11.71366,1.88419A30.33741,30.33741,0,0,0,130.68,58.7366h.05619c.36252.00511,2.39482.03575,4.58026.04594,2.6246.02044,5.47388.02555,5.89256-.04594.80679-.13788,5.02453-1.17443,5.20835.05616.18893,1.23569.046,3.0382.85276,3.30882s9.49755,1.61869,12.62767,0c3.13011-1.61355,10.30434-2.01182,11.826-.98039,1.21017.8221,3.08417,4.422,4.805,5.88748a2.13541,2.13541,0,0,0,1.32249.623c.80168-.00511,1.90464-.00511,2.94118-.00511l2.97183.434v35.3963s4.44241-1.103,4.62112,0A12.78443,12.78443,0,0,0,190.05,106.56141Z" transform="translate(-1.12 -4.10519)"/><path class="cls-2" d="M183.76426,67.63162v.42893l-2.97183-.434C182.35494,67.62651,183.76426,67.63162,183.76426,67.63162Z" transform="translate(-1.12 -4.10519)"/><path class="cls-3" d="M188.92152,124.137c-2.83394,1.52675-6.36232,1.15909-6.40829,3.98795a29.11855,29.11855,0,0,0,1.30719,7.113s-7.10274-2.36418-8.54269,0c-1.43485,2.36418-2.27228,4.57007-6.69936,5.71386a95.92376,95.92376,0,0,0-9.2729,3.08925c-1.394.53615-2.72671,1.08763-3.86538,1.61866-1.88931.87318-3.25269,1.67486-3.48756,2.23653-.73529,1.73612-1.55231,2.06293-3.42628,1.73612-1.86886-.3268-6.38788,5.336-10.73836,6.35214-4.34539,1.011-4.39647,2.83905-4.59559,4.713-.00511.06638-.01533.14807-.02045.23489-.05616.87315-.03574,2.65521-.01019,4.6109.04594,3.24247.097,6.97-.18892,7.87889a17.13088,17.13088,0,0,0-.60765,7.67977c.54634,3.13011,2.15481,4.62112,1.26122,6.77593-.89869,2.15484,2.15484,9.04823-.54125,8.655-2.691-.39827-6.44916-4.05945-7.0568-4.39644-.60764-.32681-6.94444-.12766-9.998-.85273-3.05351-.71489-8.61926.36252-11.31536-1.79229-2.691-2.15484-2.91566-9.33418-2.91566-9.33418v-73.5959H190.05c.58211.8834,1.08762,1.59314,1.08762,1.59314S191.76569,122.61024,188.92152,124.137Z" transform="translate(-1.12 -4.10519)"/><polygon class="cls-2" points="77.532 103.829 68.436 108.61 70.173 98.482 62.815 91.31 72.984 89.832 77.532 80.617 82.079 89.832 92.249 91.31 84.89 98.482 86.627 108.61 77.532 103.829"/><path class="cls-2" d="M159.30547,144.04105l-4.60068-26.83827,10.91709-10.64137h-5.85173l-8.68568,8.46611a2.02086,2.02086,0,0,0-.58723,1.80759l4.94285,28.8246,5.08577,29.65181-27.354-14.3791L108.00843,147.7022a2.01827,2.01827,0,0,0-1.89952,0l-4.30965,2.26716-7.99632,4.20244L53.59659,175.31152l7.741-45.14916c-1.56761.43912-2.95137.63827-3.47733.05616-.16851-.18382-.40338-.14807-.68933.06638l-8.30271,48.412a2.04558,2.04558,0,0,0,2.96671,2.15484l45.3432-23.84093,4.62112-2.42545,5.25943-2.76759,26.103,13.72551,29.12585,15.30846a2.01167,2.01167,0,0,0,.94975.23487,2.04707,2.04707,0,0,0,2.01185-2.38971ZM199.89989,71.5583a2.04413,2.04413,0,0,0-1.6493-1.394l-14.48633-2.10376v4.13092l9.80394,1.42465-9.80394,9.55882v5.70364l15.61993-15.22671A2.04646,2.04646,0,0,0,199.89989,71.5583Zm-23.37113-4.54963a2.13541,2.13541,0,0,0,1.32249.623c.80168-.00511,1.90464-.00511,2.94118-.00511Zm-67.637-61.7648a2.04489,2.04489,0,0,0-3.66626,0L101.75843,12.27,77.61622,61.19269,56.80839,64.21556,15.87186,70.16431a2.04647,2.04647,0,0,0-1.13359,3.48756l12.74,12.41829H33.33l-12.77577-12.454,36.12649-5.24921,22.58478-3.28329a2.04375,2.04375,0,0,0,1.537-1.11826l20.99676-42.545,5.25943-10.65667L130.73621,58.7366c.36252.00511,2.39482.03575,4.58026.04594Z" transform="translate(-1.12 -4.10519)"/></svg>